<svg xmlns="http://www.w3.org/2000/svg" width="29.939" height="26" viewBox="0 0 29.939 26">
  <g id="two-quotes" transform="translate(29.939 31) rotate(180)">
    <g id="Group_62" data-name="Group 62" transform="translate(0 5)">
      <path id="Path_76" data-name="Path 76" d="M5.743,5A5.828,5.828,0,0,0,0,10.909a5.828,5.828,0,0,0,5.743,5.909c5.743,0,1.914,11.424-5.743,11.424V31C13.666,31,19.022,5,5.743,5ZM22.289,5a5.828,5.828,0,0,0-5.743,5.909,5.828,5.828,0,0,0,5.743,5.909c5.743,0,1.914,11.424-5.743,11.424V31C30.211,31,35.567,5,22.289,5Z" transform="translate(0 -5)" fill="#fc3997"/>
    </g>
  </g>
</svg>
