<svg xmlns="http://www.w3.org/2000/svg" width="730" height="389.494" viewBox="0 0 730 389.494"><g transform="translate(-100 -47.19)"><g transform="translate(122.075 47.19)" opacity="0.5"><path d="M173.886,335.958H223.9a10.4,10.4,0,0,1,10.4,10.4v5.436a8.065,8.065,0,0,0,8.065,8.065h12.074a10.4,10.4,0,1,1,0,20.8H204.426a10.4,10.4,0,0,1-10.4-10.4v-6.573a6.927,6.927,0,0,0-6.927-6.926H173.886a10.4,10.4,0,1,1,0-20.8Z" transform="translate(-114.262 -11.649)" fill="#a5e5d9"/><path d="M700.559,140.785H681.036a10.4,10.4,0,0,1-10.4-10.4h0v-6.573a6.927,6.927,0,0,0-6.927-6.926H650.5a10.4,10.4,0,0,1-10.4-10.4h0a10.4,10.4,0,0,1,10.4-10.4h50.015a10.4,10.4,0,0,1,10.4,10.4h0v5.436a8.064,8.064,0,0,0,8.065,8.064h12.074a10.4,10.4,0,0,1,10.4,10.4h0a10.4,10.4,0,0,1-10.4,10.4Z" transform="translate(-55.602 -41.172)" fill="#a5e5d9"/><circle cx="21.175" cy="21.175" r="21.175" transform="translate(320.693)" fill="#a5e5d9"/><path d="M242.824,223.659a12.352,12.352,0,1,1-12.352-12.353A12.352,12.352,0,0,1,242.824,223.659Z" transform="translate(-107.537 -26.991)" fill="#a5e5d9"/><path d="M282.632,344.955a40.919,40.919,0,0,0,4.123.1v32.837a35.921,35.921,0,0,0,35.922,35.922H613.169a35.921,35.921,0,0,0,35.922-35.922V366.754h12.941a22.352,22.352,0,0,0,0-44.7H649.091V303.228H770.85A27.646,27.646,0,0,0,798.5,275.582h0a27.646,27.646,0,0,0-27.646-27.646H735.734a18.41,18.41,0,0,1-18.411-18.411V212.056h0a27.646,27.646,0,0,0-27.646-27.646H649.091V133.276a35.921,35.921,0,0,0-35.922-35.922H526.744a21.176,21.176,0,0,0-42.351,0H322.676a35.928,35.928,0,0,0-35.53,30.626c-.416.018-.833.026-1.244.063-.668-.062-1.343-.1-2.027-.1H266.107a21.7,21.7,0,0,0-21.7,21.618,13.663,13.663,0,0,1-13.59,13.675H170.289a22.351,22.351,0,0,0-22.351,22.351h0a22.352,22.352,0,0,0,22.351,22.353H283.9a2.855,2.855,0,0,1,2.85,2.848v53.086a40.607,40.607,0,0,0-35.816,19.485H189.611a19.324,19.324,0,0,0,0,38.648h59.406A40.581,40.581,0,0,0,282.632,344.955Zm-35.4-53.692a40.666,40.666,0,0,0-1.044,22.837H189.611a11.418,11.418,0,0,1,0-22.837Z" transform="translate(-116.175 -43.622)" fill="#a5e5d9"/><path d="M654.948,354.421a1.248,1.248,0,0,0,0-1.767l-6.972-6.972a1.162,1.162,0,0,1,1.643-1.644l8.615,8.616a1.249,1.249,0,0,1,0,1.767l-8.615,8.616a1.162,1.162,0,0,1-1.643-1.644Z" transform="translate(-54.674 -10.697)" fill="#a5e5d9"/><path d="M661.705,354.421a1.25,1.25,0,0,0,0-1.767l-6.973-6.972a1.162,1.162,0,0,1,1.643-1.644l8.616,8.616a1.249,1.249,0,0,1,0,1.767l-8.616,8.616a1.162,1.162,0,0,1-1.643-1.644Z" transform="translate(-53.842 -10.697)" fill="#a5e5d9"/><path d="M668.462,354.421a1.25,1.25,0,0,0,0-1.767l-6.973-6.972a1.162,1.162,0,0,1,1.643-1.644l8.616,8.616a1.248,1.248,0,0,1,0,1.767l-8.616,8.616a1.162,1.162,0,0,1-1.643-1.644Z" transform="translate(-53.011 -10.697)" fill="#a5e5d9"/><path d="M627.244,345.682a1.162,1.162,0,0,1,1.643-1.644l8.614,8.616a1.246,1.246,0,0,1,0,1.767l-8.614,8.616a1.162,1.162,0,0,1-1.643-1.644l6.972-6.972a1.25,1.25,0,0,0,0-1.767Z" transform="translate(-57.226 -10.697)" fill="#a5e5d9"/><path d="M640.973,354.421a1.25,1.25,0,0,0,0-1.767L634,345.682a1.162,1.162,0,0,1,1.643-1.644l8.615,8.616a1.249,1.249,0,0,1,0,1.767l-8.615,8.616A1.162,1.162,0,0,1,634,361.393Z" transform="translate(-56.394 -10.697)" fill="#a5e5d9"/><path d="M647.729,354.421a1.248,1.248,0,0,0,0-1.767l-6.972-6.972a1.162,1.162,0,0,1,1.643-1.644l8.615,8.616a1.249,1.249,0,0,1,0,1.767l-8.615,8.616a1.162,1.162,0,0,1-1.643-1.644Z" transform="translate(-55.562 -10.697)" fill="#a5e5d9"/><path d="M618.061,151.924a2.1,2.1,0,1,1-2.1,2.1A2.1,2.1,0,0,1,618.061,151.924Z" transform="translate(-58.572 -34.3)" fill="#a5e5d9"/><path d="M618.061,145.823a2.1,2.1,0,1,1-2.1,2.1A2.1,2.1,0,0,1,618.061,145.823Z" transform="translate(-58.572 -35.051)" fill="#a5e5d9"/><path d="M618.061,139.721a2.1,2.1,0,1,1-2.1,2.1A2.1,2.1,0,0,1,618.061,139.721Z" transform="translate(-58.572 -35.802)" fill="#a5e5d9"/><path d="M618.061,133.62a2.1,2.1,0,1,1-2.1,2.1A2.1,2.1,0,0,1,618.061,133.62Z" transform="translate(-58.572 -36.552)" fill="#a5e5d9"/><path d="M618.061,127.519a2.1,2.1,0,1,1-2.1,2.1A2.1,2.1,0,0,1,618.061,127.519Z" transform="translate(-58.572 -37.303)" fill="#a5e5d9"/><path d="M618.061,121.419a2.1,2.1,0,1,1-2.1,2.1A2.1,2.1,0,0,1,618.061,121.419Z" transform="translate(-58.572 -38.054)" fill="#a5e5d9"/><path d="M618.061,115.317a2.1,2.1,0,1,1-2.1,2.1A2.1,2.1,0,0,1,618.061,115.317Z" transform="translate(-58.572 -38.805)" fill="#a5e5d9"/><path d="M618.061,109.216a2.1,2.1,0,1,1-2.1,2.1A2.1,2.1,0,0,1,618.061,109.216Z" transform="translate(-58.572 -39.556)" fill="#a5e5d9"/><path d="M618.061,158.025a2.1,2.1,0,1,1-2.1,2.1A2.1,2.1,0,0,1,618.061,158.025Z" transform="translate(-58.572 -33.549)" fill="#a5e5d9"/><path d="M618.061,103.115a2.1,2.1,0,1,1-2.1,2.1A2.1,2.1,0,0,1,618.061,103.115Z" transform="translate(-58.572 -40.307)" fill="#a5e5d9"/><path d="M633.642,151.924a2.1,2.1,0,1,1-2.1,2.1A2.1,2.1,0,0,1,633.642,151.924Z" transform="translate(-56.654 -34.3)" fill="#a5e5d9"/><path d="M633.642,145.823a2.1,2.1,0,1,1-2.1,2.1A2.1,2.1,0,0,1,633.642,145.823Z" transform="translate(-56.654 -35.051)" fill="#a5e5d9"/><path d="M633.642,139.721a2.1,2.1,0,1,1-2.1,2.1A2.1,2.1,0,0,1,633.642,139.721Z" transform="translate(-56.654 -35.802)" fill="#a5e5d9"/><path d="M633.642,133.62a2.1,2.1,0,1,1-2.1,2.1A2.1,2.1,0,0,1,633.642,133.62Z" transform="translate(-56.654 -36.552)" fill="#a5e5d9"/><path d="M633.642,127.519a2.1,2.1,0,1,1-2.1,2.1A2.1,2.1,0,0,1,633.642,127.519Z" transform="translate(-56.654 -37.303)" fill="#a5e5d9"/><path d="M633.642,121.419a2.1,2.1,0,1,1-2.1,2.1A2.1,2.1,0,0,1,633.642,121.419Z" transform="translate(-56.654 -38.054)" fill="#a5e5d9"/><path d="M633.642,115.317a2.1,2.1,0,1,1-2.1,2.1A2.1,2.1,0,0,1,633.642,115.317Z" transform="translate(-56.654 -38.805)" fill="#a5e5d9"/><path d="M633.642,109.216a2.1,2.1,0,1,1-2.1,2.1A2.1,2.1,0,0,1,633.642,109.216Z" transform="translate(-56.654 -39.556)" fill="#a5e5d9"/><path d="M633.642,158.025a2.1,2.1,0,1,1-2.1,2.1A2.1,2.1,0,0,1,633.642,158.025Z" transform="translate(-56.654 -33.549)" fill="#a5e5d9"/><path d="M633.642,103.115a2.1,2.1,0,1,1-2.1,2.1A2.1,2.1,0,0,1,633.642,103.115Z" transform="translate(-56.654 -40.307)" fill="#a5e5d9"/><path d="M625.745,144.133a2.1,2.1,0,1,1-2.1,2.1A2.1,2.1,0,0,1,625.745,144.133Z" transform="translate(-57.626 -35.259)" fill="#a5e5d9"/><path d="M625.745,138.032a2.1,2.1,0,1,1-2.1,2.1A2.1,2.1,0,0,1,625.745,138.032Z" transform="translate(-57.626 -36.009)" fill="#a5e5d9"/><path d="M625.745,131.931a2.1,2.1,0,1,1-2.1,2.1A2.1,2.1,0,0,1,625.745,131.931Z" transform="translate(-57.626 -36.76)" fill="#a5e5d9"/><path d="M625.745,125.83a2.1,2.1,0,1,1-2.1,2.1A2.1,2.1,0,0,1,625.745,125.83Z" transform="translate(-57.626 -37.511)" fill="#a5e5d9"/><path d="M625.745,119.729a2.1,2.1,0,1,1-2.1,2.1A2.1,2.1,0,0,1,625.745,119.729Z" transform="translate(-57.626 -38.262)" fill="#a5e5d9"/><path d="M625.745,113.628a2.1,2.1,0,1,1-2.1,2.1A2.1,2.1,0,0,1,625.745,113.628Z" transform="translate(-57.626 -39.013)" fill="#a5e5d9"/><path d="M625.745,107.527a2.1,2.1,0,1,1-2.1,2.1A2.1,2.1,0,0,1,625.745,107.527Z" transform="translate(-57.626 -39.764)" fill="#a5e5d9"/><path d="M625.745,101.426a2.1,2.1,0,1,1-2.1,2.1A2.1,2.1,0,0,1,625.745,101.426Z" transform="translate(-57.626 -40.515)" fill="#a5e5d9"/><path d="M625.745,150.234a2.1,2.1,0,1,1-2.1,2.1A2.1,2.1,0,0,1,625.745,150.234Z" transform="translate(-57.626 -34.508)" fill="#a5e5d9"/><path d="M625.745,95.324a2.1,2.1,0,1,1-2.1,2.1A2.1,2.1,0,0,1,625.745,95.324Z" transform="translate(-57.626 -41.266)" fill="#a5e5d9"/><path d="M218.014,311.865a9.332,9.332,0,1,0,9.332,9.332A9.343,9.343,0,0,0,218.014,311.865Zm0,1.79a7.542,7.542,0,1,1-7.541,7.541A7.55,7.55,0,0,1,218.014,313.655Z" transform="translate(-108.699 -14.615)" fill="#a5e5d9"/><path d="M195.758,311.865a9.332,9.332,0,1,0,9.331,9.332A9.342,9.342,0,0,0,195.758,311.865Zm0,1.79a7.542,7.542,0,1,1-7.543,7.541A7.55,7.55,0,0,1,195.758,313.655Z" transform="translate(-111.438 -14.615)" fill="#a5e5d9"/><path d="M173.5,311.865a9.332,9.332,0,1,0,9.332,9.332A9.342,9.342,0,0,0,173.5,311.865Zm0,1.79a7.542,7.542,0,1,1-7.543,7.541A7.55,7.55,0,0,1,173.5,313.655Z" transform="translate(-114.177 -14.615)" fill="#a5e5d9"/><path d="M141.912,321.2a9.332,9.332,0,1,0,9.332-9.332A9.342,9.342,0,0,0,141.912,321.2Zm1.79,0a7.541,7.541,0,1,1,7.541,7.543A7.55,7.55,0,0,1,143.7,321.2Z" transform="translate(-116.917 -14.615)" fill="#a5e5d9"/><path d="M119.656,321.2a9.331,9.331,0,1,0,9.332-9.332A9.342,9.342,0,0,0,119.656,321.2Zm1.789,0a7.542,7.542,0,1,1,7.543,7.543A7.55,7.55,0,0,1,121.445,321.2Z" transform="translate(-119.656 -14.615)" fill="#a5e5d9"/><path d="M240.271,311.865A9.332,9.332,0,1,0,249.6,321.2,9.342,9.342,0,0,0,240.271,311.865Zm0,1.79a7.542,7.542,0,1,1-7.541,7.541A7.55,7.55,0,0,1,240.271,313.655Z" transform="translate(-105.96 -14.615)" fill="#a5e5d9"/><path d="M308.551,87.832a1.721,1.721,0,0,1-1.226.509h0a1.718,1.718,0,0,1-1.223-.509L301.361,83.1l-4.735,4.733a1.767,1.767,0,0,1-2.454,0,1.731,1.731,0,0,1,0-2.452l4.736-4.737-4.736-4.737a1.734,1.734,0,1,1,2.452-2.453l4.737,4.737,4.736-4.737a1.735,1.735,0,0,1,2.454,2.453l-4.736,4.737,4.736,4.737A1.731,1.731,0,0,1,308.551,87.832Z" transform="translate(-98.24 -44.02)" fill="#a5e5d9"/><path d="M329.043,87.832a1.736,1.736,0,0,1-2.454,0L321.853,83.1l-4.735,4.733a1.731,1.731,0,0,1-2.454,0,1.731,1.731,0,0,1,0-2.452l4.736-4.737-4.736-4.737a1.734,1.734,0,1,1,2.452-2.453l4.737,4.737,4.738-4.738a1.734,1.734,0,0,1,2.452,2.454l-4.736,4.737,4.736,4.737A1.731,1.731,0,0,1,329.043,87.832Z" transform="translate(-95.718 -44.02)" fill="#a5e5d9"/><path d="M349.537,87.83a1.731,1.731,0,0,1-2.454,0L342.346,83.1l-4.736,4.735a1.735,1.735,0,0,1-2.455-2.452l4.737-4.737-4.737-4.737a1.735,1.735,0,0,1,0-2.453h0a1.746,1.746,0,0,1,2.453,0l4.736,4.737,4.737-4.737a1.734,1.734,0,0,1,2.452,2.453L344.8,80.644l4.736,4.737A1.731,1.731,0,0,1,349.537,87.83Z" transform="translate(-93.196 -44.02)" fill="#a5e5d9"/><path d="M370.029,87.83a1.767,1.767,0,0,1-2.454,0L362.838,83.1,358.1,87.83a1.719,1.719,0,0,1-1.225.511h0a1.735,1.735,0,0,1-1.228-2.96l4.736-4.737-4.736-4.737a1.735,1.735,0,0,1,0-2.453h0a1.743,1.743,0,0,1,2.453,0l4.736,4.737,4.737-4.737a1.734,1.734,0,0,1,2.452,2.453l-4.736,4.737,4.736,4.737A1.731,1.731,0,0,1,370.029,87.83Z" transform="translate(-90.674 -44.02)" fill="#a5e5d9"/><path d="M390.521,87.83a1.767,1.767,0,0,1-2.454,0L383.33,83.1l-4.735,4.733a1.734,1.734,0,1,1-2.454-2.449l4.734-4.737-4.732-4.735a1.73,1.73,0,0,1,0-2.455,1.736,1.736,0,0,1,2.453,0l4.736,4.737,4.737-4.737a1.734,1.734,0,0,1,2.452,2.453l-4.736,4.737,4.736,4.737A1.731,1.731,0,0,1,390.521,87.83Z" transform="translate(-88.151 -44.02)" fill="#a5e5d9"/><path d="M288.566,86.6a1.71,1.71,0,0,1-.508,1.225,1.772,1.772,0,0,1-2.454,0L280.869,83.1l-4.735,4.733a1.731,1.731,0,0,1-2.454,0,1.731,1.731,0,0,1,0-2.452l4.736-4.737-4.736-4.737a1.734,1.734,0,1,1,2.452-2.453l4.737,4.737,4.736-4.737a1.736,1.736,0,0,1,2.451,0,1.731,1.731,0,0,1,0,2.454l-4.735,4.737,4.733,4.734A1.716,1.716,0,0,1,288.566,86.6Z" transform="translate(-100.762 -44.02)" fill="#a5e5d9"/><path d="M648.132,315.264h0a13.124,13.124,0,0,1,13.086-13.086h32.406a13.087,13.087,0,0,1,0,26.173H661.218A13.126,13.126,0,0,1,648.132,315.264Z" transform="translate(-54.613 -15.807)" fill="#a5e5d9"/><path d="M258.679,115.71H233.156a10.279,10.279,0,0,1-7.8-3.6,5.408,5.408,0,0,0-4.077-1.964H209.993a10.337,10.337,0,0,1-10.308-10.306h0a10.338,10.338,0,0,1,10.308-10.308h25.522a10.277,10.277,0,0,1,7.8,3.6,5.415,5.415,0,0,0,4.078,1.963h10.966a10.524,10.524,0,0,1,10.578,9.281A10.334,10.334,0,0,1,258.679,115.71Z" transform="translate(-109.806 -41.978)" fill="#a5e5d9"/><path d="M644.49,78.19a14.68,14.68,0,0,0-10.372-25.05H540.764a14.68,14.68,0,0,0,0,29.359h93.355a14.58,14.58,0,0,0,10.37-4.309Zm-1.7-10.372a8.708,8.708,0,0,1-8.675,8.675H540.764a8.674,8.674,0,0,1,0-17.348h93.355a8.708,8.708,0,0,1,8.675,8.674Z" transform="translate(-69.634 -46.458)" fill="#a5e5d9"/></g><rect width="730" height="12.354" rx="4.867" transform="translate(100 424.33)" fill="#e6e6e6"/><g transform="translate(190.082 120.982)"><g transform="translate(251.232 27.698)"><path d="M419.7,155.6a5.839,5.839,0,1,0,5.839,5.839A5.839,5.839,0,0,0,419.7,155.6Z" transform="translate(-402.686 -135.337)" fill="#45b757"/><path d="M410.528,153.6a1.391,1.391,0,1,0,1.966,1.966,10.652,10.652,0,0,1,15.047,0,1.39,1.39,0,1,0,1.965-1.966A13.435,13.435,0,0,0,410.528,153.6Z" transform="translate(-403.146 -136.066)" fill="#45b757"/><path d="M420.445,143.464a18.811,18.811,0,0,0-13.39,5.546,1.39,1.39,0,0,0,1.966,1.965,16.157,16.157,0,0,1,22.848,0,1.39,1.39,0,0,0,1.965-1.965A18.809,18.809,0,0,0,420.445,143.464Z" transform="translate(-403.573 -136.831)" fill="#45b757"/><path d="M437.246,144.377a23.285,23.285,0,0,0-32.929,0,1.39,1.39,0,1,0,1.965,1.967,20.5,20.5,0,0,1,29,0,1.391,1.391,0,0,0,1.966-1.967Z" transform="translate(-403.91 -137.558)" fill="#45b757"/></g><g transform="translate(0 167.96)"><path d="M188.764,262.448A8.554,8.554,0,0,0,180.21,271V389.282a8.554,8.554,0,0,0,8.554,8.556H221.43V262.448Z" transform="translate(-180.21 -262.448)" fill="#666"/><path d="M258.844,389.282V271a8.554,8.554,0,0,0-8.554-8.554H216.913V397.837H250.29A8.554,8.554,0,0,0,258.844,389.282Z" transform="translate(-175.693 -262.448)" fill="gray"/><rect width="69.294" height="113.002" transform="translate(6.929 8.528)" fill="#fff"/><path d="M219,267.132a1.6,1.6,0,1,1-1.6-1.6A1.6,1.6,0,0,1,219,267.132Z" transform="translate(-175.829 -262.068)" fill="#fff" fill-rule="evenodd"/><circle cx="4.797" cy="4.797" r="4.797" transform="translate(36.778 123.663)" fill="#fff"/><rect width="12.793" height="2.132" rx="0.655" transform="translate(43.841 3.998)" fill="#fff"/></g><g transform="translate(442.828 96.795)"><g transform="translate(63.88)"><path d="M656.032,211.4l-8.508,2.658-10.474-9.182,8.116,9.9-9.1,2.9-4.682-18.59Z" transform="translate(-631.388 -199.082)" fill="#d4145a" fill-rule="evenodd"/><path d="M644.242,214.35v5.118l-3-4.229Z" transform="translate(-630.175 -197.203)" fill="#d4145a" fill-rule="evenodd"/></g><g transform="translate(0 25.257)"><path d="M651.377,229.7l-1.281-1.922-1.141.754,1.287,1.931Z" transform="translate(-565.346 -220.808)" fill="#999" fill-rule="evenodd"/><path d="M648.194,227.372l1.146-.746-1.252-1.94-1.153.736Z" transform="translate(-565.595 -221.188)" fill="#999" fill-rule="evenodd"/><path d="M646.141,221.571l-1.167.713,1.225,1.975,1.158-.727Z" transform="translate(-565.836 -221.571)" fill="#999" fill-rule="evenodd"/><path d="M657.772,238.74l-1.367-1.861-1.106.805,1.374,1.871Z" transform="translate(-564.566 -219.687)" fill="#999" fill-rule="evenodd"/><path d="M654.486,236.56l1.112-.8-1.339-1.881-1.118.788Z" transform="translate(-564.831 -220.056)" fill="#999" fill-rule="evenodd"/><path d="M652.166,230.86l-1.13.771,1.315,1.912,1.123-.78Z" transform="translate(-565.09 -220.428)" fill="#999" fill-rule="evenodd"/><path d="M663.153,245.653l-1.059.866,1.481,1.791,1.048-.879Z" transform="translate(-563.729 -218.607)" fill="#999" fill-rule="evenodd"/><path d="M662.286,244.583l-1.434-1.808-1.077.844,1.443,1.82Z" transform="translate(-564.015 -218.962)" fill="#999" fill-rule="evenodd"/><path d="M660.014,241.7l-1.4-1.835-1.092.824,1.409,1.846Z" transform="translate(-564.292 -219.32)" fill="#999" fill-rule="evenodd"/><path d="M672.072,255.592l-1.614-1.644-.986.948,1.633,1.663Z" transform="translate(-562.821 -217.586)" fill="#999" fill-rule="evenodd"/><path d="M669.512,252.953l-1.561-1.7-1.015.917,1.576,1.713Z" transform="translate(-563.133 -217.918)" fill="#999" fill-rule="evenodd"/><path d="M665.53,248.5l-1.039.89,1.525,1.757,1.026-.9Z" transform="translate(-563.434 -218.257)" fill="#999" fill-rule="evenodd"/><path d="M677.727,262.479q.921.724,1.877,1.411l.8-1.111c-.622-.444-1.232-.905-1.834-1.378Z" transform="translate(-561.805 -216.669)" fill="#999" fill-rule="evenodd"/><path d="M674.9,260.083c.122.107.248.21.372.317-.267.393-.536.785-.8,1.179l1.136.76c.235-.349.474-.7.71-1.046.12.1.238.208.36.309l.873-1.055q-.884-.733-1.749-1.493Z" transform="translate(-562.206 -216.958)" fill="#999" fill-rule="evenodd"/><path d="M674.744,258.149c-.562-.522-1.126-1.042-1.673-1.579l-.95.985c.556.544,1.128,1.071,1.7,1.6Z" transform="translate(-562.495 -217.264)" fill="#999" fill-rule="evenodd"/><path d="M687.954,266.878l-.444,1.294c.376.137.757.261,1.148.362s.773.226,1.173.3l.294-1.336c-.371-.065-.73-.179-1.093-.277S688.308,267.007,687.954,266.878Z" transform="translate(-560.601 -215.995)" fill="#999" fill-rule="evenodd"/><path d="M684.019,266.639c.694.378,1.42.705,2.146,1.029l.54-1.258c-.692-.308-1.385-.618-2.052-.983Z" transform="translate(-561.031 -216.174)" fill="#999" fill-rule="evenodd"/><path d="M680.786,264.706c.659.428,1.315.861,2,1.253l.694-1.178c-.66-.377-1.3-.8-1.937-1.214Z" transform="translate(-561.429 -216.403)" fill="#999" fill-rule="evenodd"/><path d="M698.223,266.353l.721,1.162a13.921,13.921,0,0,0,1.967-1.472l-.9-1.027A12.554,12.554,0,0,1,698.223,266.353Z" transform="translate(-559.283 -216.224)" fill="#999" fill-rule="evenodd"/><path d="M694.954,267.6l.284,1.339a12.454,12.454,0,0,0,2.365-.749l-.539-1.258A11.027,11.027,0,0,1,694.954,267.6Z" transform="translate(-559.685 -215.988)" fill="#999" fill-rule="evenodd"/><path d="M691.443,267.69l-.143,1.361a15.184,15.184,0,0,0,2.456.056l-.084-1.366A13.7,13.7,0,0,1,691.443,267.69Z" transform="translate(-560.135 -215.895)" fill="#999" fill-rule="evenodd"/><path d="M705.364,258.291l1.158.729c.423-.665.818-1.345,1.206-2.031l-1.2-.664C706.156,256.989,705.774,257.648,705.364,258.291Z" transform="translate(-558.404 -217.294)" fill="#999" fill-rule="evenodd"/><path d="M703.28,261.281l1.088.828c.483-.619.93-1.266,1.386-1.9l-1.128-.775C704.183,260.05,703.75,260.679,703.28,261.281Z" transform="translate(-558.66 -216.912)" fill="#999" fill-rule="evenodd"/><path d="M700.96,264.08l1.015.918c.527-.6,1.04-1.177,1.532-1.791l-1.059-.866C701.972,262.935,701.462,263.513,700.96,264.08Z" transform="translate(-558.946 -216.554)" fill="#999" fill-rule="evenodd"/><path d="M709.51,248.278l1.347.243a20.2,20.2,0,0,0,.3-2.392l-1.366-.091A18.682,18.682,0,0,1,709.51,248.278Z" transform="translate(-557.893 -218.56)" fill="#999" fill-rule="evenodd"/><path d="M708.574,251.769l1.29.45q.4-1.122.7-2.281l-1.323-.344Q708.955,250.7,708.574,251.769Z" transform="translate(-558.009 -218.122)" fill="#999" fill-rule="evenodd"/><path d="M707.163,255.1l1.226.605c.353-.706.675-1.429.983-2.157l-1.263-.523C707.812,253.724,707.5,254.419,707.163,255.1Z" transform="translate(-558.182 -217.7)" fill="#999" fill-rule="evenodd"/><path d="M707.955,237.431a7.87,7.87,0,0,0-2.365-1.076l-.355,1.321a6.5,6.5,0,0,1,1.947.885Z" transform="translate(-558.42 -219.752)" fill="#999" fill-rule="evenodd"/><path d="M710.452,240.758a9.122,9.122,0,0,0-1.317-2.21l-1.044.885a7.8,7.8,0,0,1,1.1,1.855Z" transform="translate(-558.068 -219.482)" fill="#999" fill-rule="evenodd"/><path d="M709.814,244.7l1.367-.061a13.361,13.361,0,0,0-.313-2.445l-1.335.3A11.977,11.977,0,0,1,709.814,244.7Z" transform="translate(-557.891 -219.033)" fill="#999" fill-rule="evenodd"/><path d="M697.209,239.455l-.656-1.2c-.7.385-1.381.786-2.041,1.223l.743,1.148C695.889,240.2,696.546,239.821,697.209,239.455Z" transform="translate(-559.739 -219.518)" fill="#999" fill-rule="evenodd"/><path d="M700.508,238.019l-.414-1.3a21.444,21.444,0,0,0-2.252.876l.565,1.245A20.268,20.268,0,0,1,700.508,238.019Z" transform="translate(-559.33 -219.707)" fill="#999" fill-rule="evenodd"/><path d="M703.961,237.478,704,236.11a11.5,11.5,0,0,0-2.487.208l.25,1.344A10.159,10.159,0,0,1,703.961,237.478Z" transform="translate(-558.878 -219.783)" fill="#999" fill-rule="evenodd"/><path d="M687.6,245.172c-.564.541-1.095,1.111-1.644,1.666l.988.945c.54-.544,1.064-1.105,1.615-1.635Z" transform="translate(-560.792 -218.667)" fill="#999" fill-rule="evenodd"/><path d="M688.615,244.2l.933,1c.562-.52,1.124-1.038,1.708-1.531l-.893-1.037C689.765,243.138,689.19,243.666,688.615,244.2Z" transform="translate(-560.465 -218.979)" fill="#999" fill-rule="evenodd"/><path d="M691.439,241.732l.856,1.067c.591-.485,1.205-.937,1.819-1.389l-.8-1.11C692.68,240.766,692.045,241.233,691.439,241.732Z" transform="translate(-560.117 -219.266)" fill="#999" fill-rule="evenodd"/><path d="M681.263,254.417l-1.079-.84q-.721.915-1.414,1.85l1.094.822Q680.548,255.321,681.263,254.417Z" transform="translate(-561.677 -217.632)" fill="#999" fill-rule="evenodd"/><path d="M681.05,252.481l1.066.858c.487-.593.959-1.2,1.461-1.781l-1.048-.878C682.02,251.268,681.543,251.882,681.05,252.481Z" transform="translate(-561.396 -217.989)" fill="#999" fill-rule="evenodd"/><path d="M685.991,248.8l-1.01-.923-1.555,1.742,1.032.9Z" transform="translate(-561.104 -218.333)" fill="#999" fill-rule="evenodd"/><path d="M672.438,264.622l1.154.735,1.253-1.937-1.144-.749Z" transform="translate(-562.456 -216.513)" fill="#999" fill-rule="evenodd"/><path d="M677.923,256.566l-1.359,1.889,1.117.789,1.346-1.872Z" transform="translate(-561.948 -217.264)" fill="#999" fill-rule="evenodd"/><path d="M665.934,273.453l1.043.885,1.45-1.819-1.066-.857Z" transform="translate(-563.257 -215.406)" fill="#999" fill-rule="evenodd"/><path d="M668.213,270.6l1.084.834c.476-.612.991-1.2,1.408-1.85l-1.106-.805C669.188,269.421,668.68,269.995,668.213,270.6Z" transform="translate(-562.976 -215.761)" fill="#999" fill-rule="evenodd"/><path d="M670.356,267.658l1.122.783,1.315-1.918-1.141-.755Z" transform="translate(-562.712 -216.132)" fill="#999" fill-rule="evenodd"/><path d="M658.216,281.207l.888,1.04c.6-.5,1.144-1.048,1.718-1.57l-.92-1.012C659.339,280.177,658.8,280.718,658.216,281.207Z" transform="translate(-564.206 -214.421)" fill="#999" fill-rule="evenodd"/><path d="M660.9,278.738l.945.989c.557-.539,1.161-1.032,1.68-1.611l-.975-.96C662.042,277.725,661.448,278.208,660.9,278.738Z" transform="translate(-563.876 -214.73)" fill="#999" fill-rule="evenodd"/><path d="M663.46,276.163l1,.938,1.58-1.708-1.022-.909Z" transform="translate(-563.561 -215.059)" fill="#999" fill-rule="evenodd"/><path d="M649.3,287.513l.7,1.177c.664-.4,1.362-.748,2-1.193l-.733-1.155C650.635,286.781,649.95,287.12,649.3,287.513Z" transform="translate(-565.304 -213.599)" fill="#999" fill-rule="evenodd"/><path d="M652.379,285.575l.764,1.135,1.925-1.311-.8-1.109Z" transform="translate(-564.925 -213.852)" fill="#999" fill-rule="evenodd"/><path d="M655.343,283.486l.828,1.089,1.821-1.452-.862-1.062Z" transform="translate(-564.56 -214.126)" fill="#999" fill-rule="evenodd"/><path d="M639.434,292.217l.482,1.28,2.161-.866-.522-1.264Z" transform="translate(-566.518 -212.981)" fill="#999" fill-rule="evenodd"/><path d="M642.819,290.87l.554,1.251,2.1-1.015-.594-1.232Z" transform="translate(-566.102 -213.165)" fill="#999" fill-rule="evenodd"/><path d="M646.092,289.294l.626,1.216a22.887,22.887,0,0,0,2.045-1.111L648.1,288.2A22.448,22.448,0,0,1,646.092,289.294Z" transform="translate(-565.699 -213.37)" fill="#999" fill-rule="evenodd"/><path d="M628.9,295.163l.268,1.341c.758-.158,1.527-.271,2.279-.467l-.307-1.334C630.4,294.9,629.642,295.007,628.9,295.163Z" transform="translate(-567.815 -212.57)" fill="#999" fill-rule="evenodd"/><path d="M632.456,294.364l.338,1.326,2.255-.579-.377-1.315Z" transform="translate(-567.377 -212.682)" fill="#999" fill-rule="evenodd"/><path d="M635.956,293.389l.409,1.305,2.214-.72-.449-1.292Z" transform="translate(-566.946 -212.819)" fill="#999" fill-rule="evenodd"/><path d="M618.009,296.5l.073,1.366c.775-.019,1.545-.116,2.318-.171l-.107-1.363C619.532,296.387,618.773,296.482,618.009,296.5Z" transform="translate(-569.155 -212.37)" fill="#999" fill-rule="evenodd"/><path d="M621.656,296.228l.135,1.361c.775-.047,1.541-.164,2.31-.268l-.172-1.358C623.173,296.066,622.419,296.182,621.656,296.228Z" transform="translate(-568.706 -212.415)" fill="#999" fill-rule="evenodd"/><path d="M625.271,295.787l.2,1.353c.769-.1,1.539-.2,2.3-.367l-.237-1.348C626.785,295.587,626.028,295.688,625.271,295.787Z" transform="translate(-568.261 -212.482)" fill="#999" fill-rule="evenodd"/><path d="M606.93,297.736l2.321.123.068-1.366-2.291-.121Z" transform="translate(-570.519 -212.365)" fill="#999" fill-rule="evenodd"/><path d="M610.636,297.93l2.324.025.012-1.368-2.293-.025Z" transform="translate(-570.063 -212.342)" fill="#999" fill-rule="evenodd"/><path d="M614.325,296.61l.013,1.368,2.324-.072-.046-1.367Z" transform="translate(-569.609 -212.344)" fill="#999" fill-rule="evenodd"/><path d="M595.881,296.324c.762.144,1.527.254,2.291.383l.219-1.35c-.755-.128-1.513-.237-2.265-.378Z" transform="translate(-571.879 -212.537)" fill="#999" fill-rule="evenodd"/><path d="M599.541,296.93l2.3.3.171-1.357-2.277-.293Z" transform="translate(-571.428 -212.463)" fill="#999" fill-rule="evenodd"/><path d="M603.209,297.4l2.314.213.121-1.363-2.285-.21Z" transform="translate(-570.977 -212.406)" fill="#999" fill-rule="evenodd"/><path d="M585.04,293.78l2.236.626.353-1.321-2.212-.619Z" transform="translate(-573.213 -212.846)" fill="#999" fill-rule="evenodd"/><path d="M588.621,294.742c.751.19,1.5.386,2.256.548l.31-1.332c-.749-.159-1.489-.355-2.232-.542Z" transform="translate(-572.772 -212.729)" fill="#999" fill-rule="evenodd"/><path d="M592.219,295.59c.754.179,1.515.317,2.275.466l.265-1.342c-.751-.147-1.5-.284-2.25-.462Z" transform="translate(-572.329 -212.626)" fill="#999" fill-rule="evenodd"/><path d="M574.509,290.133c.716.3,1.438.587,2.16.868l.493-1.276c-.711-.276-1.42-.558-2.12-.852Z" transform="translate(-574.509 -213.288)" fill="#999" fill-rule="evenodd"/><path d="M577.97,291.486l2.191.775.442-1.295-2.163-.765Z" transform="translate(-574.083 -213.125)" fill="#999" fill-rule="evenodd"/><path d="M581.468,292.689c.732.249,1.477.465,2.216.693l.4-1.308c-.731-.226-1.467-.439-2.191-.686Z" transform="translate(-573.652 -212.979)" fill="#999" fill-rule="evenodd"/></g></g><path d="M611.472,291.263a72.032,72.032,0,0,0-31.067-23.275.031.031,0,0,1-.018-.021,57.2,57.2,0,0,0-79.5-39.547.029.029,0,0,1-.035-.009,83.338,83.338,0,0,0-147.112,35.016.031.031,0,0,1-.027.024,71.457,71.457,0,0,0-65.52,70.523c-.328,39.576,32.492,71.96,72.069,71.96H554.023c39.375,0,71.886-31.581,72.1-70.956A70.692,70.692,0,0,0,611.472,291.263Z" transform="translate(-166.92 -102.585)" fill="#00a0df"/><path d="M640.657,252.116H638.9a8.519,8.519,0,0,0-.6-1.443l1.245-1.244a1.436,1.436,0,0,0,0-2.031l-1.563-1.563a1.436,1.436,0,0,0-2.031,0L634.7,247.08a8.5,8.5,0,0,0-1.443-.6v-1.759a1.436,1.436,0,0,0-1.435-1.436h-2.21a1.437,1.437,0,0,0-1.437,1.436v1.759a8.537,8.537,0,0,0-1.443.6l-1.244-1.246a1.436,1.436,0,0,0-2.031,0L621.9,247.4a1.436,1.436,0,0,0,0,2.031l1.245,1.244a8.544,8.544,0,0,0-.6,1.443h-1.759a1.437,1.437,0,0,0-1.436,1.435v2.211a1.436,1.436,0,0,0,1.436,1.435h1.759a8.507,8.507,0,0,0,.6,1.443l-1.245,1.245a1.436,1.436,0,0,0,0,2.031l1.563,1.562a1.434,1.434,0,0,0,2.031,0l1.244-1.244a8.532,8.532,0,0,0,1.443.6v1.76a1.436,1.436,0,0,0,1.437,1.435h2.21a1.435,1.435,0,0,0,1.435-1.435v-1.76a8.5,8.5,0,0,0,1.443-.6l1.245,1.244a1.434,1.434,0,0,0,2.031,0l1.563-1.562a1.436,1.436,0,0,0,0-2.031l-1.245-1.245a8.482,8.482,0,0,0,.6-1.443h1.76a1.435,1.435,0,0,0,1.435-1.435v-2.211A1.436,1.436,0,0,0,640.657,252.116Zm-9.936,8.282a5.741,5.741,0,1,1,5.74-5.74A5.741,5.741,0,0,1,630.721,260.4Z" transform="translate(-126.162 -96.847)" fill="#00ae42"/><g transform="translate(26.366 119.029)"><path d="M223.5,226.547h4.957a12.924,12.924,0,0,1,1.13,4.807H223.9A33.349,33.349,0,0,0,223.5,226.547Zm-2.168-6.8a13.03,13.03,0,0,1,6.644,5.837H223.34A20.169,20.169,0,0,0,221.333,219.748Zm-4.153,5.837v-6.7a13.32,13.32,0,0,1,2.964.471,19.531,19.531,0,0,1,2.238,6.234Zm-6.307,11.535a33.2,33.2,0,0,1-.4-4.807h5.752v4.807Zm-.01-10.573h5.358v4.807h-5.756A33.308,33.308,0,0,1,210.862,226.547Zm2.406-7.217a12.86,12.86,0,0,1,2.953-.447v6.7h-5.2A19.468,19.468,0,0,1,213.268,219.33Zm-7.984,6.254a13.038,13.038,0,0,1,6.8-5.876,20.2,20.2,0,0,0-2.028,5.876Zm4.219,5.769h-5.81a12.885,12.885,0,0,1,1.11-4.807h5.1A33.191,33.191,0,0,0,209.5,231.354Zm.411,5.766h-5.075a12.853,12.853,0,0,1-1.152-4.807h5.82A32.432,32.432,0,0,0,209.914,237.12Zm.153.959a19.737,19.737,0,0,0,2.048,5.889,12.979,12.979,0,0,1-6.815-5.889Zm6.153,0v6.7a12.749,12.749,0,0,1-2.919-.438,18.985,18.985,0,0,1-2.259-6.267Zm6.141,0a19.286,19.286,0,0,1-2.245,6.243,13.117,13.117,0,0,1-2.937.445v-6.688Zm-5.182-5.766h5.752a33.082,33.082,0,0,1-.4,4.807H217.18Zm5.756-.959H217.18v-4.807h5.358A33,33,0,0,1,222.935,231.354Zm.959.959h5.683a12.952,12.952,0,0,1-1.149,4.807H223.49A33.242,33.242,0,0,0,223.895,232.313Zm4.072,5.766a12.924,12.924,0,0,1-6.661,5.849,19.589,19.589,0,0,0,2.027-5.849Z" transform="translate(-203.687 -218.88)" fill="#40683c" fill-rule="evenodd"/></g><g transform="translate(19.755 23.141)"><path d="M225.71,141.667a6.223,6.223,0,0,0-2.682-2.009h0a4.937,4.937,0,0,0-6.863-3.414h0a7.194,7.194,0,0,0-12.7,3.023h0a6.161,6.161,0,0,0,.565,12.3H220.75a6.2,6.2,0,0,0,6.224-6.125A6.1,6.1,0,0,0,225.71,141.667Zm-13.322,7.553a5.172,5.172,0,1,1,5.172-5.172A5.172,5.172,0,0,1,212.388,149.22Z" transform="translate(-197.8 -133.5)" fill="#4197cb"/><path d="M213.614,142.353h-.636a.179.179,0,0,1-.18-.18v-1.943a.18.18,0,0,0-.18-.18h-3.066a.18.18,0,0,0-.18.18v1.943a.18.18,0,0,1-.18.18h-.637a.18.18,0,0,0-.156.27L210.93,147a.179.179,0,0,0,.311,0l2.529-4.378A.18.18,0,0,0,213.614,142.353Z" transform="translate(-196.498 -132.694)" fill="#4197cb"/></g><g transform="translate(368.889 86.901)"><path d="M513.225,190.273a4.551,4.551,0,0,0-4.552,4.552V402.381a4.552,4.552,0,0,0,4.552,4.552h52.909V190.273Z" transform="translate(-508.673 -190.273)" fill="#f5b335"/><path d="M617.3,402.381V194.825a4.551,4.551,0,0,0-4.552-4.552h-52.91v216.66h52.91A4.552,4.552,0,0,0,617.3,402.381Z" transform="translate(-502.376 -190.273)" fill="#f4c55c"/><circle cx="3.14" cy="3.14" r="3.14" transform="translate(11.618 94.827)" fill="#f32735"/><circle cx="3.14" cy="3.14" r="3.14" transform="translate(54.949 94.827)" fill="#f32735"/><circle cx="3.14" cy="3.14" r="3.14" transform="translate(98.281 94.827)" fill="#f32735"/><path d="M609.846,209.285H520.29a2.95,2.95,0,0,0-2.95,2.95v8.543a2.95,2.95,0,0,0,2.95,2.95h89.555a2.95,2.95,0,0,0,2.95-2.95v-8.543A2.95,2.95,0,0,0,609.846,209.285Zm-84.97,12.559h-1.885V211.168h1.885Zm65.94-4.4a1.256,1.256,0,1,1,1.256-1.256A1.256,1.256,0,0,1,590.816,217.449Zm6.908,0a1.256,1.256,0,1,1,1.256-1.256A1.256,1.256,0,0,1,597.724,217.449Zm7.536,0a1.256,1.256,0,1,1,1.256-1.256A1.257,1.257,0,0,1,605.26,217.449Z" transform="translate(-507.606 -187.933)" fill="#fff"/><path d="M609.846,231.652H520.29a2.95,2.95,0,0,0-2.95,2.95v8.543a2.95,2.95,0,0,0,2.95,2.95h89.555a2.95,2.95,0,0,0,2.95-2.95V234.6A2.95,2.95,0,0,0,609.846,231.652Zm-84.97,12.559h-1.885V233.535h1.885Zm65.94-4.4a1.256,1.256,0,1,1,1.256-1.256A1.256,1.256,0,0,1,590.816,239.816Zm6.908,0a1.256,1.256,0,1,1,1.256-1.256A1.256,1.256,0,0,1,597.724,239.816Zm7.536,0a1.256,1.256,0,1,1,1.256-1.256A1.257,1.257,0,0,1,605.26,239.816Z" transform="translate(-507.606 -185.18)" fill="#fff"/><path d="M609.846,253.46H520.29a2.95,2.95,0,0,0-2.95,2.95v8.543a2.95,2.95,0,0,0,2.95,2.95h89.555a2.95,2.95,0,0,0,2.95-2.95V256.41A2.95,2.95,0,0,0,609.846,253.46Zm-84.97,12.559h-1.885V255.343h1.885Zm65.94-4.4a1.256,1.256,0,1,1,1.256-1.256A1.256,1.256,0,0,1,590.816,261.624Zm6.908,0a1.256,1.256,0,1,1,1.256-1.256A1.256,1.256,0,0,1,597.724,261.624Zm7.536,0a1.256,1.256,0,1,1,1.256-1.256A1.257,1.257,0,0,1,605.26,261.624Z" transform="translate(-507.606 -182.496)" fill="#fff"/></g><g transform="translate(399.571 41.672)"><path d="M557.693,158.07l-1.593,1a9.747,9.747,0,1,1-8.479-4.947c.224,0,.445.008.665.024l-1.187,2.8,8.23-3.473L547.1,150l.958,2.255c-.145-.006-.29-.009-.436-.009a11.642,11.642,0,1,0,10.072,5.824Z" transform="translate(-535.992 -150)" fill="#ed1c24"/><path d="M544.793,158.6v4.832l4.969,4.968.908-.908-4.592-4.592v-4.3Z" transform="translate(-534.909 -148.942)" fill="#ed1c24"/></g><g transform="translate(163.733 48.182)"><path d="M348.953,182.03l14.905-14.309,10.433,9.3v-17.94a3.279,3.279,0,0,0-3.279-3.279H329.279A3.279,3.279,0,0,0,326,159.076v22.393c5.975-2.725,15.8-7.191,15.8-7.191Z" transform="translate(-326 -155.797)" fill="#fff"/><path d="M374.292,186.844V175.71l-10.433-9.3-14.905,14.309-7.154-7.751s-9.825,4.466-15.8,7.191v6.681a2.524,2.524,0,0,0,2.525,2.524h43.243A2.524,2.524,0,0,0,374.292,186.844Z" transform="translate(-326 -154.49)" fill="#009ade"/><path d="M335.813,167.737a2.385,2.385,0,1,1-2.384-2.385A2.385,2.385,0,0,1,335.813,167.737Z" transform="translate(-325.379 -154.621)" fill="#009ade"/></g><path d="M458.769,166.027v24.93a10.747,10.747,0,0,0-4.186,1.668c-2.921,1.874-4.574,4.509-3.693,5.884s3.967.969,6.888-.905c2.354-1.511,3.884-3.514,3.927-4.955h.021V175.186l13.311-4.267v15.848a10.761,10.761,0,0,0-4.186,1.667c-2.921,1.876-4.574,4.51-3.693,5.885s3.967.969,6.888-.905c2.354-1.511,3.884-3.514,3.927-4.955H478V159.865Z" transform="translate(-146.925 -107.114)" fill="#f45197"/><g transform="translate(283.341 213.503)"><path d="M482.486,303l-48.625,35.223,48.625,30.718,48.625-30.718Z" transform="translate(-432.332 -303)" fill="#c1272d"/><g transform="translate(20.137 10.462)"><rect width="60.524" height="66.648" fill="#fff"/><g transform="translate(3.963 5.044)"><rect width="52.598" height="2.161" transform="translate(0 7.205)" fill="#2e3192"/><rect width="52.598" height="2.161" transform="translate(0 14.41)" fill="#2e3192"/><rect width="52.598" height="2.162" transform="translate(0 21.616)" fill="#2e3192"/><rect width="52.598" height="2.162" transform="translate(0 28.821)" fill="#2e3192"/><rect width="52.598" height="2.162" transform="translate(0 36.026)" fill="#2e3192"/><rect width="52.598" height="2.162" transform="translate(0 43.231)" fill="#2e3192"/><rect width="52.598" height="2.162" fill="#2e3192"/><rect width="52.598" height="2.162" transform="translate(0 50.436)" fill="#2e3192"/></g></g><path d="M528.522,389.1H436.786a4.285,4.285,0,0,1-4.286-4.286V337.757a4.285,4.285,0,0,1,6.559-3.633l41.321,25.858a4.286,4.286,0,0,0,4.547,0l41.321-25.858a4.285,4.285,0,0,1,6.559,3.633v47.054A4.285,4.285,0,0,1,528.522,389.1Z" transform="translate(-432.5 -299.251)" fill="#ed1c24"/></g><g transform="translate(66.211 62.562)"><path d="M288.967,175.562V171.34a2.739,2.739,0,0,0-2.739-2.739H241.9a2.739,2.739,0,0,0-2.739,2.739v4.222h4.794V196.9h-4.794v4.222a2.739,2.739,0,0,0,2.739,2.738h44.323a2.739,2.739,0,0,0,2.739-2.738V196.9h-4.794V175.562Zm-16.146-5.337h4.021v4.022H272.82Zm7.33,5.337V196.9H247.981V175.562Zm-14.507-5.337h4.021v4.022h-4.021Zm-7.176,0h4.021v4.022h-4.021Zm-7.176,0h4.021v4.022h-4.021Zm-7.176,0h4.022v4.022h-4.022Zm4.022,32.171h-4.022v-4.022h4.022Zm7.175,0h-4.021v-4.022h4.021Zm7.176,0h-4.021v-4.022h4.021Zm7.176,0h-4.021v-4.022h4.021Zm7.176,0H272.82v-4.022h4.021Zm7.176,0H280v-4.022h4.021Zm0-28.149H280v-4.022h4.021Z" transform="translate(-239.165 -168.601)" fill="#ff5100"/><path d="M258.912,193.083l9.719-5.612a2.163,2.163,0,0,0,0-3.747l-9.719-5.612a2.164,2.164,0,0,0-3.246,1.873v11.223A2.164,2.164,0,0,0,258.912,193.083Z" transform="translate(-237.134 -167.466)" fill="#ff5100"/></g><g transform="translate(132.924 157.72)"><g transform="translate(97.903)"><path d="M385.741,377.594h26.7L408.56,365.2H385.741Z" transform="translate(-385.741 -239.562)" fill="#36434c"/><path d="M425.456,376.236H385.741v7.6h39.715a3.8,3.8,0,0,0,0-7.6Z" transform="translate(-385.741 -238.204)" fill="#36434c"/><path d="M475.924,253.331H385.741V378.97h90.183a7.093,7.093,0,0,0,7.092-7.092V260.423A7.092,7.092,0,0,0,475.924,253.331Z" transform="translate(-385.741 -253.331)" fill="#36434c"/></g><path d="M388.736,365.2H365.289l-3.88,12.393h27.327Z" transform="translate(-290.833 -239.562)" fill="#323e48"/><path d="M363.252,376.236H350.235a3.8,3.8,0,1,0,0,7.6h40.343v-7.6Z" transform="translate(-292.675 -238.204)" fill="#323e48"/><path d="M305.659,253.331a7.092,7.092,0,0,0-7.092,7.092V371.877a7.093,7.093,0,0,0,7.092,7.092H396.47V253.331Z" transform="translate(-298.567 -253.331)" fill="#323e48"/><rect width="176.395" height="107.683" transform="translate(9.392 8.204)" fill="#fff"/><g transform="translate(16.522 14.168)"><rect width="162.085" height="75.906" transform="translate(0 19.405)" fill="#fff"/><rect width="162.085" height="16.551" transform="translate(0.049)" fill="#a5e5d9"/><path d="M325.138,291.7a5.422,5.422,0,1,1-5.422-5.422A5.422,5.422,0,0,1,325.138,291.7Z" transform="translate(-313.153 -263.444)" fill="#a5e5d9"/><path d="M454.215,273.909a5.422,5.422,0,1,1-5.422-5.422A5.422,5.422,0,0,1,454.215,273.909Z" transform="translate(-297.267 -265.633)" fill="#fff"/><rect width="53.648" height="5.137" transform="translate(13.697 25.682)" fill="#cee5eb"/><path d="M325.138,304.908a5.422,5.422,0,1,1-5.422-5.422A5.421,5.421,0,0,1,325.138,304.908Z" transform="translate(-313.153 -261.818)" fill="#a5e5d9"/><rect width="53.648" height="5.137" transform="translate(13.697 40.521)" fill="#cee5eb"/><circle cx="5.422" cy="5.422" r="5.422" transform="translate(1.141 52.506)" fill="#a5e5d9"/><rect width="53.648" height="5.137" transform="translate(13.697 55.36)" fill="#cee5eb"/><rect width="136.973" height="1.141" transform="translate(13.697 67.345)" fill="#cee5eb"/><rect width="136.973" height="1.141" transform="translate(13.697 71.34)" fill="#cee5eb"/><rect width="136.973" height="1.141" transform="translate(13.697 75.335)" fill="#cee5eb"/><rect width="136.973" height="1.141" transform="translate(13.697 85.608)" fill="#cee5eb"/><rect width="67.916" height="2.283" transform="translate(94.169 43.375)" fill="#cee5eb"/><rect width="17.692" height="17.692" transform="translate(141.539 22.829)" fill="#cee5eb"/></g></g><path d="M395.586,331.416a40.505,40.505,0,0,0-17.469-13.087.019.019,0,0,1-.01-.012A32.163,32.163,0,0,0,333.4,296.079a.018.018,0,0,1-.02-.006,46.781,46.781,0,0,0-36.793-17.852,46.877,46.877,0,0,0-45.928,37.542.018.018,0,0,1-.015.014A40.181,40.181,0,0,0,213.8,355.431c-.184,22.255,18.27,40.464,40.525,40.464H363.282c22.14,0,40.422-17.758,40.542-39.9A39.748,39.748,0,0,0,395.586,331.416Z" transform="translate(-176.076 -92.547)" fill="#6bc4e8"/><path d="M305.915,148.05a9.374,9.374,0,0,0-4.046-3.032l0,0a7.452,7.452,0,0,0-10.358-5.152h0a10.856,10.856,0,0,0-19.164,4.562l0,0a9.3,9.3,0,0,0,.852,18.562h25.242a9.359,9.359,0,0,0,9.393-9.244A9.2,9.2,0,0,0,305.915,148.05Z" transform="translate(-169.922 -110.085)" fill="#6bc4e8"/><path d="M694.98,321.489A42.388,42.388,0,0,0,676.7,307.8a.017.017,0,0,1-.01-.011,33.648,33.648,0,0,0-46.77-23.266.018.018,0,0,1-.021-.006,49.026,49.026,0,0,0-86.543,20.6.02.02,0,0,1-.016.013A42.037,42.037,0,0,0,504.8,346.614c-.193,23.284,19.115,42.334,42.4,42.334H661.183c23.163,0,42.289-18.579,42.415-41.742A41.581,41.581,0,0,0,694.98,321.489Z" transform="translate(-140.261 -94.071)" fill="#00b2e3"/><path d="M525.5,127.671a11.239,11.239,0,0,0-4.853-3.635l0,0a8.932,8.932,0,0,0-12.418-6.177l-.006,0A13,13,0,0,0,498,112.895a13.021,13.021,0,0,0-12.757,10.428l0,0a11.146,11.146,0,0,0,1.023,22.255h30.265A11.221,11.221,0,0,0,527.785,134.5,11.038,11.038,0,0,0,525.5,127.671Z" transform="translate(-143.928 -112.895)" fill="#00b2e3"/><g transform="translate(392.809 239.444)"><path d="M551.481,373.336v-11.9a5.135,5.135,0,0,1,2.132-9.808v-2.146H533.745a3.774,3.774,0,0,0-3.774,3.774v30.23a3.774,3.774,0,0,0,3.774,3.774h19.868V375.467A2.132,2.132,0,0,1,551.481,373.336Z" transform="translate(-529.971 -323.221)" fill="#4d4d4d"/><path d="M574.663,383.488v-30.23a3.773,3.773,0,0,0-3.774-3.774H551.022v2.146a5.136,5.136,0,0,1,2.132,9.808v11.9a2.132,2.132,0,0,1-2.132,2.132v11.795h19.867A3.773,3.773,0,0,0,574.663,383.488Z" transform="translate(-527.38 -323.221)" fill="#333"/><path d="M534.34,344.833v3.048a2.157,2.157,0,0,0,2.156,2.156h1.635a2.156,2.156,0,0,0,2.156-2.156v-3.048a12.8,12.8,0,0,1,12.787-12.787V326.1A18.756,18.756,0,0,0,534.34,344.833Z" transform="translate(-529.433 -326.099)" fill="#4d4d4d"/><path d="M563.809,344.833v3.413a1.791,1.791,0,0,0,1.791,1.791h2.364a1.791,1.791,0,0,0,1.791-1.791v-3.413A18.755,18.755,0,0,0,551.022,326.1v5.947A12.8,12.8,0,0,1,563.809,344.833Z" transform="translate(-527.38 -326.099)" fill="#333"/><g transform="translate(8.802 54.282)"><path d="M559.412,374.432l.615,1.124,1.124.615-1.124.615-.615,1.124-.615-1.124-1.124-.615,1.124-.615Z" transform="translate(-535.363 -374.432)" fill="#ffc63e"/><path d="M556.1,374.432l.615,1.124,1.124.615-1.124.615-.615,1.124-.615-1.124-1.124-.615,1.124-.615Z" transform="translate(-535.771 -374.432)" fill="#ffc63e"/><path d="M552.79,374.432l.615,1.124,1.124.615-1.124.615-.615,1.124-.615-1.124-1.124-.615,1.124-.615Z" transform="translate(-536.178 -374.432)" fill="#ffc63e"/><path d="M549.479,374.432l.615,1.124,1.124.615-1.124.615-.615,1.124-.615-1.124-1.124-.615,1.124-.615Z" transform="translate(-536.586 -374.432)" fill="#ffc63e"/><path d="M546.168,374.432l.615,1.124,1.124.615-1.124.615-.615,1.124-.615-1.124-1.124-.615,1.124-.615Z" transform="translate(-536.993 -374.432)" fill="#ffc63e"/><path d="M542.857,374.432l.615,1.124,1.124.615-1.124.615-.615,1.124-.615-1.124-1.124-.615,1.124-.615Z" transform="translate(-537.401 -374.432)" fill="#ffc63e"/><path d="M539.546,374.432l.615,1.124,1.124.615-1.124.615-.615,1.124-.615-1.124-1.124-.615,1.124-.615Z" transform="translate(-537.808 -374.432)" fill="#ffc63e"/><path d="M562.723,374.432l.615,1.124,1.124.615-1.124.615-.615,1.124-.615-1.124-1.124-.615,1.124-.615Z" transform="translate(-534.956 -374.432)" fill="#ffc63e"/></g></g><g transform="translate(438.466 28.195)"><rect width="41.715" height="32.21" transform="translate(2.376 11.089)" fill="#fff"/><rect width="46.467" height="13.729" transform="translate(0 2.64)" fill="#45b757"/><g transform="translate(5.808)"><rect width="2.112" height="8.977" fill="#1a1a1a"/><rect width="2.112" height="8.977" transform="translate(32.738)" fill="#1a1a1a"/></g><g transform="translate(7.393 18.481)"><rect width="3.168" height="3.168" fill="#45b757"/><rect width="3.168" height="3.168" transform="translate(7.128)" fill="#45b757"/><rect width="3.168" height="3.168" transform="translate(14.257)" fill="#45b757"/><rect width="3.168" height="3.168" transform="translate(21.386)" fill="#45b757"/><rect width="3.168" height="3.168" transform="translate(28.514)" fill="#45b757"/><rect width="3.168" height="3.168" transform="translate(0 5.456)" fill="#45b757"/><rect width="3.168" height="3.168" transform="translate(7.128 5.456)" fill="#45b757"/><rect width="3.168" height="3.168" transform="translate(14.257 5.456)" fill="#45b757"/><rect width="3.168" height="3.168" transform="translate(21.386 5.456)" fill="#45b757"/><rect width="3.168" height="3.168" transform="translate(28.514 5.456)" fill="#45b757"/><rect width="3.168" height="3.168" transform="translate(0 10.913)" fill="#45b757"/><rect width="3.168" height="3.168" transform="translate(7.128 10.913)" fill="#45b757"/><rect width="3.168" height="3.168" transform="translate(14.257 10.913)" fill="#45b757"/><rect width="3.168" height="3.168" transform="translate(21.386 10.913)" fill="#45b757"/><rect width="3.168" height="3.168" transform="translate(28.514 10.913)" fill="#45b757"/><rect width="3.168" height="3.168" transform="translate(0 16.369)" fill="#45b757"/><rect width="3.168" height="3.168" transform="translate(7.128 16.369)" fill="#45b757"/><rect width="3.168" height="3.168" transform="translate(14.257 16.369)" fill="#45b757"/><rect width="3.168" height="3.168" transform="translate(21.386 16.369)" fill="#45b757"/><rect width="3.168" height="3.168" transform="translate(28.514 16.369)" fill="#45b757"/></g></g><g transform="translate(104.081 110.115)"><path d="M324.31,331.189c-30.99-6.887-44.764-29.268-44.764-29.268v-63.7s35.971-6.947,44.764-18.938c.019.025.042.047.061.072v-8.4c-.1,0-.193-.012-.292-.011a4,4,0,0,0-3.112,1.632l-2.028,2.766c-5,6.811-26.781,13.653-40.655,16.337l-2.16.418a4,4,0,0,0-3.238,3.924v66.654a3.994,3.994,0,0,0,.593,2.094l.4.642c.622,1.012,15.623,24.865,48.989,32.279l.578.129a3.983,3.983,0,0,0,.869.1c.02,0,.04,0,.061,0v-6.737Z" transform="translate(-272.885 -210.943)" fill="#47bd50"/><path d="M278.816,237.3v63.7s13.773,22.382,44.764,29.268l.061-.015V218.438c-.019-.025-.042-.047-.061-.072C314.787,230.357,278.816,237.3,278.816,237.3Z" transform="translate(-272.155 -210.029)" fill="#63ce5b"/><path d="M320.113,337.69c33.368-7.416,48.369-31.269,48.991-32.279l.4-.644a3.994,3.994,0,0,0,.593-2.095V236.031a4,4,0,0,0-3.217-3.921l-2.144-.427h0c-13.524-2.692-35.162-9.634-40.919-16.635l-2.178-2.649a4,4,0,0,0-2.907-1.447v8.4c9.938,11.946,44.7,18.867,44.7,18.867v63.7s-13.757,22.35-44.7,29.254v6.737a4,4,0,0,0,.809-.092Z" transform="translate(-267.243 -210.942)" fill="#71d660"/><path d="M363.431,301V237.3s-34.765-6.92-44.7-18.867V330.253C349.674,323.349,363.431,301,363.431,301Z" transform="translate(-267.243 -210.021)" fill="#9bef71"/><g transform="translate(35.105 50.196)"><path d="M317.933,285.054a4.59,4.59,0,0,1-3.252-1.347l-9.191-9.192a4.6,4.6,0,1,1,6.5-6.5l6.4,6.4,24.4-17.892a4.6,4.6,0,1,1,5.436,7.412l-27.577,20.223A4.58,4.58,0,0,1,317.933,285.054Z" transform="translate(-304.143 -255.638)" fill="#fff"/></g></g><g transform="translate(377.318 192.03)"><path d="M527.372,285.849h0a.453.453,0,0,0-.705.376v1.207a.456.456,0,0,0,.159.346h0a5.329,5.329,0,1,1-6.9,0h0a.456.456,0,0,0,.159-.346v-1.206a.454.454,0,0,0-.705-.377h0a7.2,7.2,0,1,0,7.987,0Z" transform="translate(-516.178 -283.648)" fill="#fff"/><rect width="2.495" height="7.824" transform="translate(5.953)" fill="#fff"/></g></g></g></svg>