<svg xmlns="http://www.w3.org/2000/svg" width="1920" height="101.536" viewBox="0 0 1920 101.536"><g transform="translate(0 -1.464)"><path d="M1920,62.881V103H0V50.235H.03c.121-.032.585-.134,1.4-.307.141-.024.282-.055.434-.086.01,0,.02-.008.03-.008.151-.032.3-.055.464-.087.262-.055.535-.11.837-.165l1.2-.236q.423-.083.908-.166c.151-.031.313-.062.474-.086,2.977-.551,7.073-1.251,12.228-2.007q1.03-.153,2.119-.307c.757-.11,1.524-.22,2.321-.322.635-.087,1.271-.174,1.937-.26s1.332-.173,2.018-.26c1.362-.181,2.774-.354,4.247-.527q1.091-.141,2.24-.26c.757-.094,1.534-.181,2.321-.267.767-.087,1.543-.166,2.34-.252q4.859-.531,10.322-1.007,1.362-.118,2.754-.236c.928-.079,1.867-.15,2.815-.229q7.627-.614,16.254-1.086c1.019-.055,2.058-.11,3.1-.157q7.188-.366,15-.59c1.917-.055,3.865-.1,5.832-.142,1.049-.024,2.109-.039,3.178-.063,1.019-.016,2.048-.031,3.087-.039.959-.008,1.917-.024,2.9-.032.888-.015,1.776-.015,2.684-.015,1.3-.008,2.613-.016,3.935-.016q2.618,0,5.3.016c1.311.015,2.623.023,3.955.039.787.016,1.574.023,2.361.031,1.351.016,2.7.048,4.076.071,2.633.055,5.307.118,8.021.205.746.016,1.5.039,2.26.071,2.048.055,4.116.133,6.215.22,1.059.047,2.129.094,3.2.134q4.282.189,8.707.433c1.17.063,2.341.126,3.521.2q1.983.118,3.965.244c1.332.087,2.664.173,4.006.268,2.805.181,5.63.393,8.495.614,1.251.094,2.5.2,3.763.307,1.383.11,2.775.228,4.167.354s2.795.244,4.208.377q4.221.39,8.535.827c1.14.11,2.28.236,3.431.354.585.063,1.18.126,1.775.2.908.094,1.826.2,2.755.3.524.055,1.059.118,1.594.173q3.9.437,7.89.928c.343.04.686.079,1.029.126q3.979.484,8,1.023c.363.04.716.087,1.079.142q5.978.8,12.1,1.692,6.114.909,12.36,1.9,5.918.945,11.935,2,1.21.2,2.422.425,3.631.625,7.294,1.314T275.2,57.4c.817.158,1.644.315,2.472.48s1.654.331,2.481.488q6.25,1.239,12.6,2.589c1.11.236,2.21.472,3.319.716q1.575.332,3.148.685,1.771.378,3.542.779c.746.165,1.483.338,2.229.5.152.031.293.071.444.1q1.287.284,2.573.59c.03,0,.071.016.111.016.817.189,1.635.386,2.462.574,2.744.63,5.5,1.283,8.283,1.96.283.071.575.142.868.212.757.181,1.523.37,2.3.559.848.205,1.7.417,2.563.63,1.413.346,2.835.708,4.268,1.07.4.094.8.205,1.2.3.142.039.283.071.424.11.333.087.676.173,1.019.26,1.393.362,2.785.716,4.2,1.086.152.039.3.071.464.118,124.846,31.155,250.024,24.34,329.548,14.063h.021a.241.241,0,0,0,.07-.008c.192-.008.716-.079,1.443-.189.141-.016.282-.039.434-.055q2.254-.3,4.449-.59c.071-.008.131-.024.2-.032,1.534-.267,3.067-.535,4.611-.81.151-.024.3-.048.434-.071.3-.055.555-.1.736-.126,1.937-.346,3.895-.693,5.852-1.039s3.945-.716,5.932-1.078q2.438-.449,4.924-.913c1.14-.212,2.29-.433,3.451-.645,1.634-.315,3.269-.622,4.923-.937q5.51-1.062,11.129-2.172,14.785-2.938,29.965-5.335,3.012-.485,6.023-.937a.04.04,0,0,1,.021-.007c58.8-8.917,120.93-12.182,180.457-12.175,2.16,0,4.309.008,6.458.016q8.309.036,16.536.15c1.261.015,2.532.031,3.8.055,1.755.023,3.511.055,5.256.094,2.038.04,4.056.079,6.084.126.081,0,.172,0,.252.008,2.1.039,4.208.094,6.3.15l.959.023q5.8.153,11.552.346,5.371.177,10.684.386,2.559.094,5.116.205,2.769.117,5.508.236c1.312.055,2.624.118,3.935.181,1.594.071,3.189.149,4.773.22q3.3.165,6.578.338c1.836.1,3.672.189,5.5.292,1.514.078,3.017.165,4.52.251,1.171.071,2.341.134,3.5.205l.818.047c1.13.071,2.25.134,3.37.205,2.532.149,5.054.315,7.567.472,1.836.118,3.662.236,5.488.362q4.965.33,9.837.685c3.441.251,6.841.5,10.221.763,1.089.087,2.179.173,3.269.252,10.856.858,21.349,1.763,31.418,2.7q3.027.284,5.993.567c.686.063,1.362.133,2.048.2l1.463.142c1.332.134,2.654.26,3.965.394q7.416.73,14.468,1.487c1.887.2,3.743.4,5.59.6,10.16,1.1,19.684,2.211,28.492,3.289,1.14.142,2.26.284,3.37.417s2.209.276,3.3.41q1.3.165,2.573.33c1.412.173,2.805.354,4.177.527,1.927.252,3.824.5,5.66.748q1.18.153,2.331.307c.08.008.161.024.242.031,1.321.174,2.623.355,3.894.52,1.907.26,3.764.511,5.56.763,1.583.221,3.117.433,4.6.646,3.6.5,6.932.983,9.968,1.44.939.133,1.847.267,2.735.4a1.63,1.63,0,0,1,.181.031c.515.071,1.029.15,1.524.229s.989.141,1.463.22.948.142,1.412.212.908.134,1.342.205c1.322.205,2.543.394,3.673.567.575.094,1.11.181,1.634.259s1.019.166,1.493.236c4.409.709,6.74,1.11,6.74,1.11S1420.78,117.9,1565.9,87.1a379.025,379.025,0,0,0,55.461-15.975c1.12-.425,2.229-.843,3.349-1.252.9-.33,1.786-.653,2.674-.976,1.009-.362,2.008-.716,3.007-1.07q7.521-2.645,15.033-4.95l.01-.008c.363-.1.706-.212,1.059-.314.606-.189,1.211-.37,1.816-.551,1.181-.362,2.371-.708,3.552-1.047.292-.086.585-.173.878-.252q1.074-.318,2.149-.614,1.285-.365,2.572-.708c.737-.2,1.473-.4,2.2-.6.343-.1.686-.189,1.029-.275,1.433-.386,2.855-.756,4.278-1.11.161-.047.323-.086.484-.118.757-.2,1.5-.386,2.26-.567,2.553-.637,5.1-1.235,7.658-1.817q1.271-.3,2.543-.567c1.634-.37,3.248-.716,4.873-1.055l.363-.07c.787-.166,1.584-.323,2.371-.488.847-.173,1.685-.339,2.532-.5q3.784-.732,7.557-1.409c.837-.149,1.665-.3,2.5-.44,1.675-.291,3.34-.567,5.005-.827q3.95-.636,7.869-1.188c1.09-.157,2.169-.307,3.259-.448,1.251-.174,2.5-.339,3.743-.488.676-.087,1.342-.173,2.008-.252q7.6-.933,15.043-1.59c.807-.071,1.615-.141,2.412-.2.817-.071,1.634-.142,2.451-.205,1.272-.1,2.533-.2,3.794-.283,1.1-.079,2.2-.15,3.289-.221.706-.047,1.4-.094,2.109-.133,1.876-.111,3.753-.213,5.609-.307.565-.024,1.13-.055,1.695-.079l.454-.024,2.926-.118c1.322-.047,2.634-.094,3.945-.133s2.623-.079,3.925-.1c1.019-.023,2.038-.047,3.057-.063l1.786-.023c.161-.008.323-.008.484-.008l2.422-.024c8.868-.063,17.484.1,25.808.449C1871.067,47.032,1920,62.881,1920,62.881Z" fill="#fff"/><path d="M665.714,85.286c-79.524,10.277-204.7,17.092-329.548-14.063-.161-.047-.312-.079-.464-.118-1.412-.37-2.8-.724-4.2-1.086-.343-.087-.686-.173-1.019-.26-.141-.039-.282-.071-.424-.11-.4-.094-.8-.205-1.2-.3-1.433-.362-2.855-.724-4.268-1.07-.858-.213-1.715-.425-2.563-.63-.777-.189-1.543-.378-2.3-.559-.293-.07-.585-.141-.868-.212-2.784-.677-5.539-1.33-8.283-1.96-.827-.188-1.645-.385-2.462-.574-.04,0-.081-.016-.111-.016q-1.285-.306-2.573-.59c-.151-.031-.292-.071-.444-.1-.746-.166-1.483-.339-2.229-.5q-1.771-.4-3.542-.779-1.573-.354-3.148-.685c-1.109-.244-2.209-.48-3.319-.716q-6.355-1.345-12.6-2.589c-.827-.157-1.654-.322-2.481-.488s-1.655-.322-2.472-.48q-3.708-.72-7.376-1.393t-7.294-1.314q-1.211-.223-2.422-.425-6.023-1.062-11.935-2-6.25-1-12.36-1.9t-12.1-1.692c-.363-.055-.716-.1-1.079-.142q-4.026-.543-8-1.023c-.343-.047-.686-.086-1.029-.126q-3.981-.495-7.89-.928c-.535-.055-1.07-.118-1.594-.173-.929-.1-1.847-.205-2.755-.3-.6-.071-1.19-.134-1.775-.2-1.151-.118-2.291-.244-3.431-.354q-4.312-.436-8.535-.827-2.119-.2-4.208-.377c-1.392-.126-2.784-.244-4.167-.354-1.261-.1-2.512-.213-3.763-.307-2.865-.221-5.69-.433-8.495-.614-1.342-.1-2.674-.181-4.006-.268s-2.643-.165-3.965-.244c-1.18-.07-2.351-.133-3.521-.2q-4.419-.249-8.707-.433c-1.069-.04-2.139-.087-3.2-.134-2.1-.087-4.167-.165-6.215-.22-.757-.032-1.514-.055-2.26-.071-2.714-.087-5.388-.15-8.021-.205-1.373-.023-2.725-.055-4.076-.071-.787-.008-1.574-.015-2.361-.031-1.332-.016-2.644-.024-3.955-.039q-2.679-.012-5.3-.016c-1.322,0-2.634.008-3.935.016-.908,0-1.8,0-2.684.015-.979.008-1.937.024-2.9.032-1.039.008-2.068.023-3.087.039-1.069.024-2.129.039-3.178.063-1.967.039-3.915.087-5.832.142q-7.809.224-15,.59c-1.04.047-2.079.1-3.1.157q-8.626.46-16.254,1.086c-.948.079-1.887.15-2.815.229s-1.846.157-2.754.236q-5.463.483-10.322,1.007c-.8.086-1.573.165-2.34.252-.787.086-1.564.173-2.321.267q-1.15.118-2.24.26c-1.473.173-2.885.346-4.247.527-.686.087-1.362.173-2.018.26s-1.3.173-1.937.26c-.8.1-1.564.212-2.321.322q-1.089.155-2.119.307c-5.155.756-9.251,1.456-12.228,2.007a4.677,4.677,0,0,0-.474.086q-.484.084-.908.166l-1.2.236c-.3.055-.575.11-.837.165-.162.032-.313.055-.464.087-.01,0-.02.008-.03.008-.152.031-.293.062-.434.086-.818.173-1.282.275-1.4.307H0V6.373S211-17,422.259,38.25c8.607,2.251,17.142,4.9,25.707,7.594C508.855,65.022,586,77.4,665.714,85.286Z" fill="#fff" opacity="0.2"/><path d="M744.29,71.286q-15.163,2.407-29.965,5.335-5.629,1.11-11.129,2.172c-1.654.315-3.289.622-4.923.937-1.161.212-2.311.433-3.451.645q-2.483.46-4.924.913-2.98.543-5.932,1.078c-1.957.346-3.915.693-5.852,1.039-.181.031-.434.071-.736.126-.132.023-.283.047-.434.071-2.291.37-6.7,1.054-9.262,1.432-.152.016-.293.039-.434.055-.727.11-1.251.181-1.443.189a.241.241,0,0,1-.07.008h-.021c-79.524,10.277-204.7,17.092-329.548-14.063-.161-.047-.312-.079-.464-.118-1.412-.37-2.8-.724-4.2-1.086-.343-.087-.686-.173-1.019-.26-.141-.039-.282-.071-.424-.11-.4-.094-.8-.205-1.2-.3-1.433-.362-2.855-.724-4.268-1.07-.858-.213-1.715-.425-2.563-.63-.777-.189-1.543-.378-2.3-.559-.293-.07-.585-.141-.868-.212-2.784-.677-5.539-1.33-8.283-1.96-.827-.188-1.645-.385-2.462-.574-.666-.15-1.332-.3-1.987-.456-.233-.048-.465-.1-.7-.15-.151-.031-.292-.071-.444-.1-.746-.166-1.483-.339-2.229-.5q-1.771-.4-3.542-.779-1.573-.354-3.148-.685c-1.109-.244-2.209-.48-3.319-.716,0,0,44.312-17.163,129.507-22.7C498.05,33.308,606.2,37.573,744.29,71.286Z" fill="#fff" opacity="0.2"/><path d="M1565.9,87.1c-145.115,30.8-325.916-3.888-325.916-3.888s-2.331-.4-6.74-1.11c-.474-.07-.968-.149-1.493-.236s-1.059-.165-1.634-.259c-1.13-.173-2.351-.362-3.673-.567-.434-.071-.888-.134-1.342-.205s-.928-.141-1.412-.212-.969-.15-1.463-.22-1.009-.158-1.524-.229a1.63,1.63,0,0,0-.181-.031c-.888-.134-1.8-.268-2.735-.4-3.036-.457-6.366-.937-9.968-1.44-1.483-.213-3.017-.425-4.6-.646-1.8-.252-3.653-.5-5.56-.763-1.271-.165-2.573-.346-3.894-.52-.081-.007-.162-.023-.242-.031q-1.15-.153-2.331-.307c-1.836-.252-3.733-.5-5.66-.748-1.372-.173-2.765-.354-4.177-.527q-1.272-.165-2.573-.33c-1.09-.134-2.179-.268-3.3-.41s-2.23-.283-3.37-.417c-8.808-1.078-18.332-2.187-28.492-3.289-1.847-.2-3.7-.4-5.59-.6q-7.052-.756-14.468-1.487c-1.311-.134-2.633-.26-3.965-.394l-1.463-.142c-.686-.063-1.362-.133-2.048-.2q-2.967-.284-5.993-.567c-10.069-.936-20.562-1.841-31.418-2.7-1.09-.079-2.18-.165-3.269-.252-3.38-.26-6.78-.512-10.221-.763q-4.872-.354-9.837-.685c-1.826-.126-3.652-.244-5.488-.362-2.513-.157-5.035-.323-7.567-.472-1.12-.071-2.24-.134-3.37-.205l-.818-.047c-1.16-.071-2.33-.134-3.5-.205-1.5-.086-3.006-.173-4.52-.251-1.826-.1-3.662-.2-5.5-.292q-3.285-.177-6.578-.338c-1.584-.071-3.179-.149-4.773-.22-1.311-.063-2.623-.126-3.935-.181q-2.739-.119-5.508-.236-2.558-.107-5.116-.205-5.312-.213-10.684-.386-5.751-.189-11.552-.346l-.959-.023c-2.088-.056-4.2-.111-6.3-.15-.08-.008-.171-.008-.252-.008-2.028-.047-4.046-.086-6.084-.126-1.745-.039-3.5-.071-5.256-.094-1.272-.024-2.543-.04-3.8-.055q-8.233-.118-16.536-.15c-2.149-.008-4.3-.016-6.458-.016,0,0,214.348-60.689,416.135-16.171,30.782,6.791,57.338,12.725,80.654,17.9C1490.911,73.938,1530.4,82.366,1565.9,87.1Z" fill="#fff" opacity="0.2"/><path d="M1801.2,44.1c-8.324-.347-16.94-.512-25.808-.449l-2.422.024c-.161,0-.323,0-.484.008l-1.786.023c-1.019.016-2.038.04-3.057.063-1.3.024-2.613.063-3.925.1s-2.623.086-3.945.133l-2.926.118-.454.024c-.565.024-1.13.055-1.695.079-1.856.094-3.733.2-5.609.307-.707.039-1.4.086-2.109.133-1.09.071-2.189.142-3.289.221-1.261.086-2.522.181-3.794.283-.817.063-1.634.134-2.451.205-.8.063-1.6.133-2.412.2q-7.446.661-15.043,1.59c-.666.079-1.332.165-2.008.252-1.241.149-2.492.314-3.743.488-1.09.141-2.169.291-3.259.448q-3.92.555-7.869,1.188c-1.665.26-3.33.536-5.005.827-.837.141-1.665.291-2.5.44q-3.768.674-7.557,1.409c-.847.165-1.685.331-2.532.5-.787.165-1.584.322-2.371.488l-.363.07c-1.625.339-3.239.685-4.873,1.055q-1.272.271-2.543.567c-2.553.582-5.1,1.18-7.658,1.817-.757.181-1.5.37-2.26.567-.161.032-.323.071-.484.118-1.423.354-2.845.724-4.278,1.11-.343.086-.686.173-1.029.275-.727.2-1.463.394-2.2.6q-1.285.342-2.572.708-1.076.3-2.149.614c-.293.079-.586.166-.878.252-1.181.339-2.371.685-3.552,1.047-.6.181-1.21.362-1.816.551-.353.1-.7.212-1.059.314l-.01.008q-7.506,2.3-15.033,4.95c-1,.354-2,.708-3.007,1.07-.888.323-1.776.646-2.674.976-1.12.409-2.229.827-3.349,1.252A379.025,379.025,0,0,1,1565.9,87.1c-145.115,30.8-325.916-3.888-325.916-3.888s-2.331-.4-6.74-1.11c-.474-.07-.968-.149-1.493-.236s-1.059-.165-1.634-.259c-1.13-.173-2.351-.362-3.673-.567-.434-.071-.888-.134-1.342-.205s-.928-.141-1.412-.212-.969-.15-1.463-.22-1.009-.158-1.524-.229a1.63,1.63,0,0,0-.181-.031c-.888-.134-1.8-.268-2.735-.4-3.036-.457-6.366-.937-9.968-1.44-1.483-.213-3.017-.425-4.6-.646-1.8-.252-3.653-.5-5.56-.763-1.271-.165-2.573-.346-3.894-.52-.081-.007-.162-.023-.242-.031q-1.15-.153-2.331-.307c-1.836-.252-3.733-.5-5.66-.748-1.372-.173-2.765-.354-4.177-.527q-1.272-.165-2.573-.33c-1.09-.134-2.179-.268-3.3-.41s-2.23-.283-3.37-.417c-8.808-1.078-18.332-2.187-28.492-3.289-1.847-.2-3.7-.4-5.59-.6q-7.052-.756-14.468-1.487c-1.311-.134-2.633-.26-3.965-.394l-1.463-.142s105.706-30.014,269.153-11.914c0,0,15.639,2.329,40.3,4.108,47.037,3.376,126.924,4.737,193.776-15.912,27.776-8.578,57.186-11.749,85.779-11.529C1740.955,32.7,1773.644,37.7,1801.2,44.1Z" fill="#fff" opacity="0.2"/><path d="M1920,16.322V62.881S1871.067,47.032,1801.2,44.1c-8.324-.347-16.94-.512-25.808-.449l-2.422.024c-.161,0-.323,0-.484.008l-1.786.023c-1.019.016-2.038.04-3.057.063-1.3.024-2.613.063-3.925.1s-2.623.086-3.945.133l-2.926.118-.454.024c-.565.024-1.13.055-1.695.079-1.856.094-3.733.2-5.609.307-.707.039-1.4.086-2.109.133-1.09.071-2.189.142-3.289.221-1.261.086-2.522.181-3.794.283-.817.063-1.634.134-2.451.205-.8.063-1.6.133-2.412.2q-7.446.661-15.043,1.59c-.666.079-1.342.157-2.008.252-1.241.149-2.492.314-3.743.488-1.09.141-2.169.291-3.259.448q-3.92.555-7.869,1.188c-1.665.26-3.33.536-5.005.827-.837.141-1.665.291-2.5.44q-3.768.662-7.557,1.409c-.847.165-1.685.331-2.532.5-.787.157-1.584.315-2.371.488l-.363.07c-1.625.339-3.239.685-4.873,1.055q-1.272.271-2.543.567-3.814.861-7.658,1.817c-.757.174-1.5.362-2.26.567-.161.032-.323.071-.484.118-1.423.354-2.845.724-4.278,1.11-.343.086-.686.173-1.029.275-.727.189-1.463.386-2.2.6q-1.285.342-2.572.708-1.076.3-2.149.614c-.293.079-.586.166-.878.252-1.181.339-2.371.685-3.552,1.047-.6.173-1.21.354-1.816.551-.353.094-.706.2-1.059.314C1645.954,62.511,1668,45,1707,28,1752.456,8.186,1826.785-12.543,1920,16.322Z" fill="#fff" opacity="0.2"/></g></svg>