<svg xmlns="http://www.w3.org/2000/svg" xmlns:xlink="http://www.w3.org/1999/xlink" width="537.213" height="524.801" viewBox="0 0 537.213 524.801"><defs><linearGradient id="a" x1="0.44" y1="-0.183" x2="0.538" y2="0.928" gradientUnits="objectBoundingBox"><stop offset="0" stop-color="#ff0075"/><stop offset="1" stop-color="#de0086"/></linearGradient><linearGradient id="b" x1="0.59" y1="1.011" x2="0.394" y2="-0.104" gradientUnits="objectBoundingBox"><stop offset="0" stop-color="#af2686"/><stop offset="1" stop-color="#d62686"/></linearGradient><linearGradient id="c" x1="0.728" y1="0.841" x2="0.197" y2="0.047" gradientUnits="objectBoundingBox"><stop offset="0" stop-color="#ef2686"/><stop offset="1" stop-color="#b82686"/></linearGradient><linearGradient id="d" x1="0.357" y1="-0.051" x2="0.502" y2="0.509" gradientUnits="objectBoundingBox"><stop offset="0" stop-color="#962686"/><stop offset="1" stop-color="#b82686"/></linearGradient><linearGradient id="e" x1="0.728" y1="0.841" x2="0.197" y2="0.047" xlink:href="#c"/><linearGradient id="f" x1="0.406" y1="-0.181" x2="0.559" y2="0.927" xlink:href="#a"/><linearGradient id="g" x1="0.64" y1="1.013" x2="0.334" y2="-0.107" xlink:href="#b"/><linearGradient id="k" x1="0.465" y1="-0.185" x2="0.522" y2="0.929" xlink:href="#a"/><linearGradient id="l" x1="0.551" y1="1.007" x2="0.439" y2="-0.099" xlink:href="#b"/><linearGradient id="p" x1="0.438" y1="-0.183" x2="0.539" y2="0.928" xlink:href="#a"/><linearGradient id="q" x1="0.592" y1="1.011" x2="0.391" y2="-0.104" xlink:href="#b"/><linearGradient id="u" x1="0.96" y1="0.194" x2="0.168" y2="0.713" xlink:href="#c"/><linearGradient id="v" x1="-4.059" y1="-1.324" x2="-5.015" y2="-0.698" xlink:href="#c"/></defs><g transform="translate(-440.254 -91.573)"><path d="M764.288,404.656,725.025,427.32,720.392,430l-.592.341-71.853,41.487L440.254,351.916l16.183-9.342L491.888,322.1l15.841-9.142c.008-.009.008,0,.008,0l4.868-2.818h.009l1.57-.907,4.858-2.809L556.6,284.747l191.51,110.567Z" transform="translate(0 32.976)" fill="#3e0db7" opacity="0.5"/><path d="M764.288,388.7l-39.263,22.664-4.632,2.677-.592.341-71.853,41.487L440.254,335.963l16.183-9.342,35.451-20.474L507.729,297c.008-.008.008,0,.008,0l4.868-2.817h.009l1.57-.907,4.858-2.81L556.6,268.794l191.51,110.567Z" transform="translate(0 30.253)" fill="#2c07a0"/><path d="M920.941,358.97l-5.766,3.324L856.5,396.175c-2.381,1.378-5.985,1.527-8.043.331L573.678,237.857l-6.351-3.664c-2.058-1.186-1.8-3.263.576-4.641l64.447-37.205c2.381-1.37,5.975-1.517,8.035-.331L921.517,354.329C923.585,355.515,923.324,357.592,920.941,358.97Z" transform="translate(21.455 17.009)" fill="#2c07a0"/><path d="M914.047,360.6l-58.672,33.881c-2.381,1.378-5.985,1.527-8.043.331L572.55,236.161l58.672-33.873c2.381-1.378,5.975-1.527,8.035-.339Z" transform="translate(22.584 18.705)" fill="#3e0db7"/><path d="M849.288,330.672,809.03,353.918a6.114,6.114,0,0,1-5.518.228L614.974,245.291l40.258-23.241a6.121,6.121,0,0,1,5.512-.234Z" transform="translate(29.826 22.14)" fill="#5c2ece"/><g transform="translate(653.539 136.708)"><path d="M655.116,165.1v111.8l-32.677-18.864V146.24Z" transform="translate(-622.439 -127.376)" fill="url(#a)"/><path d="M683.029,146.24v111.8l-32.677,18.864V165.1Z" transform="translate(-617.674 -127.376)" fill="url(#b)"/><path d="M687.793,148.991l-32.677,18.864-32.677-18.864,32.677-18.864Z" transform="translate(-622.439 -130.127)" fill="url(#c)"/><path d="M671.4,147.786l-4.248,2.456-14.119,8.148-14.119-8.148-4.248-2.456,18.367-10.6Z" transform="translate(-620.352 -128.922)" fill="url(#d)"/><path d="M666.529,149.526l-14.119,8.148-14.119-8.148,14.119-8.152Z" transform="translate(-619.733 -128.207)" fill="url(#e)"/></g><g transform="translate(702.555 91.573)"><path d="M696.985,126.55V311.14l-32.677-18.864V107.686Z" transform="translate(-664.307 -88.822)" fill="url(#f)"/><path d="M724.9,107.686v184.59L692.22,311.14V126.55Z" transform="translate(-659.543 -88.822)" fill="url(#g)"/><path d="M729.662,110.437,696.985,129.3l-32.677-18.864,32.677-18.864Z" transform="translate(-664.307 -91.573)" fill="url(#c)"/><path d="M713.265,109.232l-4.248,2.456L694.9,119.836l-14.119-8.148-4.248-2.456,18.367-10.6Z" transform="translate(-662.221 -90.369)" fill="url(#d)"/><path d="M708.4,110.973l-14.119,8.148-14.119-8.148,14.119-8.152Z" transform="translate(-661.601 -89.653)" fill="url(#e)"/></g><g transform="translate(751.571 248.509)"><path d="M738.853,260.6v56.731L706.176,298.47V241.739Z" transform="translate(-706.176 -222.875)" fill="url(#k)"/><path d="M766.766,241.739V298.47l-32.677,18.864V260.6Z" transform="translate(-701.411 -222.875)" fill="url(#l)"/><path d="M771.531,244.49l-32.677,18.864L706.176,244.49l32.677-18.864Z" transform="translate(-706.176 -225.626)" fill="url(#c)"/><path d="M755.133,243.285l-4.248,2.456-14.119,8.147-14.119-8.147-4.248-2.456,18.367-10.6Z" transform="translate(-704.089 -224.421)" fill="url(#d)"/><path d="M750.266,245.025l-14.119,8.147-14.119-8.147,14.119-8.152Z" transform="translate(-703.47 -223.706)" fill="url(#e)"/></g><g transform="translate(802.615 220.905)"><path d="M782.455,237.024V352.763L749.777,333.9V218.16Z" transform="translate(-749.777 -199.296)" fill="url(#p)"/><path d="M810.367,218.16V333.9L777.69,352.763V237.024Z" transform="translate(-745.012 -199.296)" fill="url(#q)"/><path d="M815.132,220.91l-32.677,18.864L749.777,220.91l32.677-18.864Z" transform="translate(-749.777 -202.046)" fill="url(#c)"/><path d="M798.735,219.706l-4.248,2.456-14.119,8.148-14.119-8.148L762,219.706l18.367-10.6Z" transform="translate(-747.69 -200.842)" fill="url(#d)"/><path d="M793.867,221.446l-14.119,8.148-14.119-8.148,14.119-8.152Z" transform="translate(-747.071 -200.126)" fill="url(#e)"/></g><g transform="translate(440.254 280.361)"><path d="M719.8,392.986l-4.868,2.809-66.985,38.67L456.437,323.9l-16.183-9.343,46.766-27,4.868-2.81a208.272,208.272,0,0,1,20.717,6.717h.009a119.625,119.625,0,0,1,12.308,5.556,57.04,57.04,0,0,1,12.893,8.907c3.935,3.786,6.473,7.964,7.014,12.57,1.387,11.725,5.644,20.526,12.946,26.623a35.231,35.231,0,0,0,5.068,3.533,42.736,42.736,0,0,0,4.946,2.426,50.919,50.919,0,0,0,7.179,2.338c11.594,2.887,26.624,2.852,45.64-.088,18.014-2.783,35.234-2.634,46.766.114a32.76,32.76,0,0,1,9.429,3.594,10.59,10.59,0,0,1,4.013,3.969q1.976,3.756-.942,8.75c-2.338,3.969-2.669,7.694-1.064,10.939,1.178,2.407,3.429,4.553,6.708,6.359a39.83,39.83,0,0,0,9.212,3.471A96.479,96.479,0,0,0,719.8,392.986Z" transform="translate(-440.254 -247.385)" fill="#682def"/><path d="M756.759,372.744l-16.182,9.342-18.214,10.52-4.868,2.808-5.225,3.019c-1.213.018-2.416.026-3.6.008-.41,0-.811-.008-1.221-.018l-1.168-.026c-.872-.018-1.744-.053-2.6-.105-.506-.026-1.012-.052-1.509-.087-.672-.035-1.335-.088-2-.149-.637-.053-1.256-.114-1.875-.174-.855-.087-1.7-.183-2.53-.3-.323-.035-.645-.078-.96-.131-.663-.087-1.317-.192-1.962-.3-1.091-.184-2.155-.384-3.184-.611-.419-.087-.837-.183-1.247-.279s-.811-.192-1.213-.3c-.358-.087-.707-.183-1.056-.279a43.847,43.847,0,0,1-5.05-1.719c-.375-.149-.733-.306-1.082-.471-.331-.141-.654-.3-.96-.454-.366-.174-.715-.357-1.064-.549a22.584,22.584,0,0,1-2.268-1.422,12,12,0,0,1-.986-.75c-.131-.1-.262-.218-.384-.322a13.138,13.138,0,0,1-1.309-1.291q-.183-.2-.34-.392c-.131-.157-.253-.315-.366-.472-.1-.122-.184-.243-.262-.366a.08.08,0,0,1-.034-.043,9.934,9.934,0,0,1-.524-.855c-.087-.149-.165-.3-.235-.445a6.138,6.138,0,0,1-.306-.68c-.061-.141-.112-.288-.165-.428s-.1-.287-.131-.427c-.053-.157-.1-.322-.139-.479-.061-.262-.114-.533-.149-.8a3.488,3.488,0,0,1-.052-.437c-.017-.13-.027-.261-.035-.4a12.958,12.958,0,0,1,2.041-7.284c.288-.5.541-.986.76-1.458a11.384,11.384,0,0,0,.541-1.4,7.407,7.407,0,0,0,.3-1.248.737.737,0,0,0,.035-.192,6.945,6.945,0,0,0,.088-1.639,6.269,6.269,0,0,0-.288-1.614,4.113,4.113,0,0,0-.149-.427,2.141,2.141,0,0,0-.165-.384,3.12,3.12,0,0,0-.184-.384,4.2,4.2,0,0,0-.3-.514l-.027-.053c-.078-.122-.157-.235-.253-.358a9.311,9.311,0,0,0-1.352-1.5c-.1-.1-.208-.184-.314-.27a5.253,5.253,0,0,0-.436-.349,14.327,14.327,0,0,0-1.336-.925,20.951,20.951,0,0,0-2.477-1.3c-.174-.088-.357-.166-.549-.245-.174-.069-.349-.149-.523-.218-.218-.088-.445-.174-.68-.262-.376-.148-.768-.288-1.17-.418a.811.811,0,0,0-.1-.035c-.384-.131-.776-.253-1.178-.376h-.018c-.383-.122-.784-.235-1.186-.339-.114-.035-.218-.061-.323-.088-.384-.1-.767-.2-1.168-.3a.172.172,0,0,1-.061-.018c-1.344-.314-2.757-.6-4.24-.846-.339-.061-.68-.114-1.029-.165-2.556-.393-5.3-.681-8.2-.864-.6-.043-1.2-.078-1.823-.114a160.177,160.177,0,0,0-31.474,1.875,158.351,158.351,0,0,1-30.417,2.138l-1.221-.053c-.419-.026-.838-.053-1.248-.088-.331-.016-.663-.043-.994-.069-.427-.027-.846-.061-1.266-.105s-.837-.078-1.247-.13-.821-.088-1.23-.139-.8-.1-1.2-.158c-.331-.043-.654-.1-.986-.148-.105-.018-.21-.035-.314-.044-.349-.061-.69-.112-1.03-.174-.549-.1-1.09-.191-1.623-.3-.375-.078-.741-.157-1.107-.235-.594-.131-1.178-.262-1.754-.41-.637-.157-1.264-.331-1.884-.507s-1.23-.357-1.823-.557c-.523-.166-1.03-.341-1.536-.533-.655-.227-1.3-.48-1.936-.741a42.736,42.736,0,0,1-4.946-2.426c-.4-.235-.794-.471-1.186-.715-.489-.306-.978-.628-1.448-.959-.366-.253-.715-.507-1.064-.768-.07-.053-.149-.105-.219-.166-.392-.306-.776-.61-1.151-.925-.131-.1-.27-.218-.4-.339-.183-.149-.366-.314-.541-.48a4.913,4.913,0,0,1-.392-.357c-.218-.2-.427-.4-.637-.611a30.772,30.772,0,0,1-2.12-2.285c-.192-.227-.384-.454-.567-.69a31.222,31.222,0,0,1-1.98-2.783c-.2-.306-.393-.61-.576-.925-.174-.3-.349-.6-.523-.907-.331-.592-.646-1.2-.952-1.823-.226-.462-.445-.942-.653-1.422-.078-.191-.166-.383-.245-.584-.192-.436-.366-.88-.533-1.335-.183-.471-.349-.959-.506-1.448-.087-.218-.157-.435-.226-.663-.14-.427-.27-.864-.384-1.3-.088-.288-.166-.576-.245-.864q-.156-.562-.288-1.151c-.061-.237-.122-.472-.174-.715-.1-.472-.21-.952-.3-1.431-.027-.131-.053-.27-.078-.4-.113-.6-.219-1.2-.315-1.823-.016-.131-.043-.262-.051-.393-.105-.619-.184-1.256-.262-1.893a13.9,13.9,0,0,0-.253-1.491c-.035-.2-.087-.4-.139-.594-.078-.322-.174-.645-.27-.959-.07-.21-.139-.419-.218-.629-.114-.3-.227-.61-.358-.915-.069-.166-.149-.331-.227-.5a14.843,14.843,0,0,0-.706-1.387c-.1-.174-.2-.357-.314-.532a18.3,18.3,0,0,0-1.021-1.552c-.139-.2-.288-.4-.445-.6-.331-.445-.69-.872-1.056-1.3q-.523-.615-1.1-1.2c-.3-.306-.592-.611-.907-.907-.243-.227-.488-.462-.741-.7-.192-.166-.384-.341-.584-.515-.262-.226-.523-.453-.794-.68-.2-.165-.41-.331-.619-.5-.227-.192-.454-.366-.69-.549-.811-.629-1.666-1.239-2.556-1.85-.218-.147-.437-.3-.654-.435q-2-1.322-4.205-2.565c-.365-.21-.732-.41-1.108-.611-.314-.174-.628-.339-.942-.506-.479-.253-.959-.506-1.439-.741-.437-.227-.872-.445-1.317-.654a2.69,2.69,0,0,0-.314-.157c-.4-.2-.811-.392-1.222-.576-1.247-.594-2.512-1.16-3.812-1.709-.558-.245-1.125-.48-1.692-.715-.829-.331-1.667-.672-2.512-1h-.009c-1.474-.576-2.965-1.125-4.474-1.666-.462-.166-.925-.332-1.4-.489q-.878-.313-1.754-.6c-.742-.253-1.483-.5-2.234-.733-.531-.174-1.064-.349-1.6-.514-.733-.237-1.458-.454-2.181-.672-.611-.192-1.221-.366-1.823-.55-.882-.261-1.763-.514-2.635-.759s-1.753-.5-2.625-.733l1.875-1.082L491.1,286.3l57.966-33.472Z" transform="translate(-432.725 -252.833)" fill="#813afe"/><path d="M687.858,389.048c.571-2.076-.524-4.281-3.307-5.887a17.454,17.454,0,0,0-9.238-1.976q-.841-2.98,1.371-6.776c3.3-5.621,2.55-9.96.256-13.209,3.23-2.64,2.792-6.325-1.325-8.7-4.241-2.449-10.889-2.645-15.483-.592-13.544-3.458-33.009-3.793-53.587-.617-16.014,2.474-28.557,2.72-38.047.725.74-2.149-.337-4.472-3.235-6.145-3.45-1.993-8.495-2.5-12.729-1.511-5.781-5.269-9.222-12.941-10.439-23.207-.615-5.2-3.43-10.183-8.327-14.883,3.434-2.649,3.06-6.429-1.136-8.852-3.667-2.118-9.132-2.55-13.513-1.3-8.449-4.47-19.147-8.574-31.99-12.239-.059-.018-.122-.037-.185-.052l-6.742,3.893c11.595,3.162,23.469,7.219,33.037,12.278-1.377,2.364-.435,5.084,2.841,6.977a17.771,17.771,0,0,0,10.029,1.922c3.932,3.784,6.481,7.967,7.027,12.577,1.392,11.722,5.656,20.517,12.95,26.616-1.7,2.443-.82,5.349,2.626,7.338,3.969,2.291,10.045,2.611,14.573.96,11.594,2.886,26.619,2.849,45.629-.083,18.018-2.785,35.248-2.631,46.779.118-.418,2,.7,4.093,3.369,5.635a17.777,17.777,0,0,0,10.065,1.92c1.312,2.5,1,5.425-.946,8.749-2.331,3.973-2.655,7.689-1.057,10.938-3.724,2.655-3.429,6.572.875,9.057,4.11,2.373,10.48,2.629,15.051.774a96.375,96.375,0,0,0,25.06,2.464l10.095-5.829C706.726,391.227,695.825,390.853,687.858,389.048Z" transform="translate(-433.434 -247.543)" fill="#2c07a0"/><g transform="translate(51.634 33.472)"><path d="M722.363,387.725l-10.093,5.828c-14.219.253-26.685-1.762-34.283-5.932-7.712-4.231-9.709-10.381-5.644-17.3,3.1-5.287,2.059-9.561-3.071-12.719-9.6-5.914-32.2-7.415-56.2-3.708-23.212,3.586-40.484,2.853-52.819-2.25a42.736,42.736,0,0,1-4.946-2.426c-.672-.384-1.317-.784-1.946-1.2-9.22-6.106-14.489-15.641-16.068-28.953a18.048,18.048,0,0,0-3.236-8.174c-8.043-11.688-29.31-20.019-49.7-25.576l6.742-3.89a1.08,1.08,0,0,1,.184.053c25.847,7.371,43.014,16.53,50.621,26.868a21.866,21.866,0,0,1,4.353,10.406c1.1,9.273,4,16.426,8.819,21.608a29.042,29.042,0,0,0,10.381,7.075c10,4.143,24.791,4.614,45.248,1.456,27.53-4.248,53.072-2.216,65.1,5.173,5.217,3.218,10.32,8.932,5.034,17.943-2.949,5.042-1.823,9.037,3.314,11.872C691.544,387.935,706.4,389.261,722.363,387.725Z" transform="translate(-484.359 -281.424)" fill="url(#u)"/></g><path d="M532.116,302.909c4.57-2.639,4.547-6.931-.051-9.586s-12.033-2.669-16.6-.03-4.547,6.931.052,9.586S527.546,305.548,532.116,302.909Z" transform="translate(-427.998 -246.262)" fill="#ffc517"/><path d="M654.249,349.96c4.57-2.639,4.547-6.931-.051-9.586s-12.033-2.668-16.6-.029-4.547,6.929.053,9.586S649.679,352.6,654.249,349.96Z" transform="translate(-407.149 -238.231)" fill="#ffc517"/><path d="M661.883,376.152c4.57-2.639,4.547-6.931-.053-9.586s-12.031-2.668-16.6-.029-4.547,6.929.052,9.585S657.313,378.791,661.883,376.152Z" transform="translate(-405.846 -233.759)" fill="#ffc517"/><path d="M559.989,344.3c4.57-2.639,4.547-6.931-.052-9.586s-12.032-2.669-16.6-.03-4.547,6.931.053,9.586S555.419,346.936,559.989,344.3Z" transform="translate(-423.24 -239.197)" fill="#ffc517"/></g><g transform="translate(709.25 425.288)"><path d="M937.4,463.741c0,2.066-1.359,4.131-4.087,5.707L776.484,560c-5.484,3.166-14.394,3.151-19.915-.036l-82.388-47.567c-2.771-1.6-4.154-3.694-4.154-5.781s1.36-4.14,4.1-5.714l2.92-1.687,153.911-88.861c5.477-3.157,14.394-3.143,19.908.037L930.4,456.3l2.854,1.65C936.021,459.55,937.4,461.646,937.4,463.741Z" transform="translate(-670.027 -371.274)" fill="#3e0db7" opacity="0.5"/><g transform="translate(10.279)"><path d="M936.745,448.117c0,1.994-1.311,3.986-3.942,5.506l-151.3,87.351c-5.29,3.054-13.886,3.04-19.212-.035l-79.479-45.887c-2.674-1.542-4.007-3.564-4.007-5.577s1.311-3.993,3.95-5.513l2.817-1.627L834.053,396.61c5.283-3.046,13.886-3.032,19.205.036l76.727,44.3,2.753,1.591C935.413,444.075,936.745,446.1,936.745,448.117Z" transform="translate(-678.807 -373.605)" fill="#c5cfea"/><path d="M936.745,435.889c0,2-1.311,3.993-3.942,5.513l-2.818,1.627L781.506,528.753c-5.29,3.054-13.886,3.039-19.212-.036l-76.72-44.295-2.759-1.592c-2.674-1.541-4.007-3.562-4.007-5.577,0-2,1.311-3.993,3.95-5.513l151.3-87.351c5.283-3.054,13.886-3.032,19.205.036l79.48,45.887C935.413,431.852,936.745,433.874,936.745,435.889Z" transform="translate(-678.807 -375.692)" fill="#939fe2"/><path d="M921.808,444.947l-72.355,41.776-44.3,25.572-9.242,5.336-98.747-57.016,125.89-72.685Z" transform="translate(-675.673 -374.698)" fill="#f3f6ff"/><path d="M851.326,434.252l-52.706,30.43-59.78-34.288,52.706-30.43Z" transform="translate(-668.559 -372.644)" fill="#a8b9e2"/><path d="M835.782,473.5l-44.3,25.572L777.251,491l44.3-25.577Z" transform="translate(-662.002 -361.471)" fill="#849dce"/><g transform="translate(35.978)"><path d="M836.173,440.117l-32.548,18.792-94.086-54.321,23.39-13.5c11.266,3.072,23.118,8.008,23.981,15.291.764,6.441,3.441,10.932,8.163,13.659a19.014,19.014,0,0,0,2.237,1.1c5.588,2.311,13.413,2.643,23.927,1.021,10.872-1.68,21.111-1,25.459,1.676,2.324,1.432,2.792,3.369,1.39,5.763-1.839,3.134-.935,5.92,2.559,7.836C824.084,439.321,829.732,440.23,836.173,440.117Z" transform="translate(-709.539 -374.16)" fill="#813afe"/><path d="M852.917,430.949l-20.155,11.636c-6.441.114-12.089-.8-15.528-2.688-3.495-1.915-4.4-4.7-2.559-7.836,1.4-2.394.934-4.332-1.39-5.763-4.348-2.675-14.587-3.356-25.459-1.676-10.514,1.623-18.339,1.29-23.927-1.021a19.01,19.01,0,0,1-2.237-1.1c-4.723-2.727-7.4-7.217-8.163-13.659-.863-7.283-12.715-12.219-23.981-15.291l29.313-16.924Z" transform="translate(-706.128 -376.628)" fill="#933afe"/><path d="M821.7,438.334c.26-.941-.236-1.94-1.5-2.668a7.919,7.919,0,0,0-4.185-.894,3.935,3.935,0,0,1,.622-3.07c1.493-2.546,1.154-4.512.116-5.985,1.463-1.2,1.264-2.865-.6-3.942a8.421,8.421,0,0,0-7.014-.268c-6.136-1.566-14.953-1.719-24.276-.28-7.254,1.122-12.936,1.233-17.235.329.336-.974-.152-2.026-1.466-2.784a8.389,8.389,0,0,0-5.766-.685c-2.619-2.387-4.178-5.862-4.729-10.513a11.321,11.321,0,0,0-3.773-6.742c1.556-1.2,1.386-2.913-.514-4.01a8.436,8.436,0,0,0-6.122-.59,75.919,75.919,0,0,0-14.491-5.544l-.084-.023-3.054,1.764A75.652,75.652,0,0,1,742.6,397.99c-.624,1.071-.2,2.3,1.287,3.161a8.058,8.058,0,0,0,4.544.872,9.585,9.585,0,0,1,3.183,5.7c.631,5.31,2.563,9.294,5.866,12.057-.768,1.106-.371,2.423,1.19,3.324a8.45,8.45,0,0,0,6.6.436c5.252,1.308,12.059,1.29,20.671-.039,8.162-1.261,15.967-1.191,21.191.054a2.466,2.466,0,0,0,1.527,2.553,8.058,8.058,0,0,0,4.559.87,3.943,3.943,0,0,1-.428,3.963,5.05,5.05,0,0,0-.479,4.954c-1.687,1.2-1.554,2.978.4,4.1a8.442,8.442,0,0,0,6.818.351,43.729,43.729,0,0,0,11.352,1.116l4.574-2.641A45.9,45.9,0,0,1,821.7,438.334Z" transform="translate(-706.45 -374.232)" fill="#2c07a0"/><g transform="translate(23.39 15.161)"><path d="M837.335,437.734l-4.573,2.64c-6.441.114-12.089-.8-15.528-2.688-3.495-1.915-4.4-4.7-2.559-7.836,1.4-2.394.934-4.332-1.39-5.763-4.348-2.675-14.587-3.356-25.459-1.676-10.514,1.623-18.339,1.29-23.927-1.021a19.01,19.01,0,0,1-2.237-1.1c-4.723-2.727-7.4-7.217-8.163-13.659-.863-7.283-12.715-12.219-23.981-15.291l3.054-1.763c.029.006.057.015.084.022,15.506,4.426,24.117,10.265,24.9,16.887.788,6.65,3.634,10.9,8.7,12.995,4.529,1.874,11.232,2.09,20.5.658,12.472-1.925,24.044-1,29.492,2.346,2.361,1.455,4.675,4.045,2.281,8.127-1.337,2.284-.825,4.1,1.5,5.377C823.373,437.829,830.1,438.428,837.335,437.734Z" transform="translate(-729.518 -389.578)" fill="url(#v)"/></g><ellipse cx="3.07" cy="5.318" rx="3.07" ry="5.318" transform="translate(38.057 26.524) rotate(-89.69)" fill="#ffc517"/><path d="M806.479,420.626c2.07-1.2,2.059-3.14-.025-4.342a8.309,8.309,0,0,0-7.521-.014c-2.07,1.2-2.059,3.14.023,4.342A8.312,8.312,0,0,0,806.479,420.626Z" transform="translate(-694.542 -370.013)" fill="#ffc517"/><path d="M809.936,432.491c2.071-1.2,2.06-3.14-.023-4.342a8.309,8.309,0,0,0-7.521-.014c-2.07,1.2-2.059,3.14.023,4.342A8.309,8.309,0,0,0,809.936,432.491Z" transform="translate(-693.952 -367.988)" fill="#ffc517"/><path d="M763.778,418.061c2.071-1.2,2.06-3.14-.023-4.343a8.313,8.313,0,0,0-7.521-.013c-2.071,1.2-2.06,3.139.023,4.342A8.313,8.313,0,0,0,763.778,418.061Z" transform="translate(-701.832 -370.451)" fill="#ffc517"/></g><g transform="translate(109.961 95.949)"><path d="M830.446,517.483l-57.712-33.32,44.3-25.577,57.712,33.32Z" transform="translate(-772.734 -458.586)" fill="#a8b9e2"/><g transform="translate(13.448 17.953)"><path d="M792.175,485.836l-7.954-4.592,12.684-7.323,7.954,4.592Z" transform="translate(-784.221 -473.921)" fill="#fff"/><path d="M802.288,492.109l-7.954-4.592,17.855-10.309,7.954,4.592Z" transform="translate(-782.495 -473.359)" fill="#fff"/><path d="M812.4,498.58l-7.954-4.592,25.367-14.646,7.954,4.592Z" transform="translate(-780.769 -472.995)" fill="#fff"/><path d="M822.512,504.743l-7.954-4.592,29.227-16.874,7.954,4.592Z" transform="translate(-779.043 -472.324)" fill="#fff"/></g></g><path d="M685.574,470.548l-2.817,1.627c-2.639,1.52-3.95,3.512-3.95,5.513v-14.31c0,2.015,1.333,4.037,4.007,5.577Z" transform="translate(-678.807 -361.819)" fill="#c5cfea"/><path d="M900.12,428.047v14.315c0-2.021-1.332-4.042-4.006-5.584l-2.753-1.591,2.818-1.627C898.808,432.04,900.12,430.047,900.12,428.047Z" transform="translate(-642.182 -367.85)" fill="#c5cfea"/></g></g><path d="M456.436,319.551l-16.182,9.343V310.208Z" transform="translate(0 37.322)" fill="#2c07a0"/><path d="M719.4,355.259v18.685L703.217,364.6Z" transform="translate(44.889 45.013)" fill="#2c07a0"/><g transform="translate(535.172 282.465)"><path d="M522.2,305.237a.871.871,0,0,1-.872-.872V255.5a.872.872,0,0,1,1.744,0v48.863A.872.872,0,0,1,522.2,305.237Z" transform="translate(-521.332 -254.63)" fill="#ff2e17"/></g><g transform="translate(567.804 330.046)"><path d="M550.077,345.88a.872.872,0,0,1-.872-.872V296.145a.872.872,0,1,1,1.744,0v48.863A.871.871,0,0,1,550.077,345.88Z" transform="translate(-549.205 -295.273)" fill="#ff2e17"/></g><g transform="translate(678.154 336.675)"><path d="M644.337,351.543a.872.872,0,0,1-.872-.872V301.808a.872.872,0,1,1,1.744,0v48.863A.871.871,0,0,1,644.337,351.543Z" transform="translate(-643.465 -300.936)" fill="#ff2e17"/></g><g transform="translate(687.302 368.638)"><path d="M652.151,378.846a.873.873,0,0,1-.872-.873V329.11a.872.872,0,0,1,1.744,0v48.863A.872.872,0,0,1,652.151,378.846Z" transform="translate(-651.279 -328.238)" fill="#ff2e17"/></g><g transform="translate(524.305 276.559)"><path d="M532.116,261.171c4.57-2.639,4.547-6.931-.051-9.586s-12.033-2.669-16.6-.03-4.547,6.931.052,9.586S527.546,263.81,532.116,261.171Z" transform="translate(-512.049 -249.585)" fill="#ff7017"/><path d="M654.249,308.222c4.57-2.639,4.547-6.931-.051-9.586s-12.033-2.668-16.6-.029-4.547,6.929.053,9.585S649.679,310.861,654.249,308.222Z" transform="translate(-491.2 -241.553)" fill="#ff7017"/><path d="M661.883,334.414c4.57-2.639,4.547-6.931-.053-9.586s-12.031-2.668-16.6-.029-4.547,6.929.052,9.585S657.313,337.053,661.883,334.414Z" transform="translate(-489.897 -237.082)" fill="#ff7017"/><path d="M559.989,302.559c4.57-2.639,4.547-6.931-.052-9.586s-12.032-2.669-16.6-.03-4.547,6.931.053,9.586S555.419,305.2,559.989,302.559Z" transform="translate(-507.291 -242.52)" fill="#ff7017"/></g><g transform="translate(521.789 270.38)"><path d="M514.71,256.367h-2.388v-9.8H509.9V244.88l4.81-.426Z" transform="translate(-509.9 -244.282)" fill="#f3f6ff"/><path d="M525.639,251.753a5.251,5.251,0,0,1-1.084,3.588,4.155,4.155,0,0,1-5.886,0,5.24,5.24,0,0,1-1.088-3.588v-2.626a5.269,5.269,0,0,1,1.084-3.588,4.128,4.128,0,0,1,5.883,0,5.252,5.252,0,0,1,1.091,3.588Zm-2.38-2.874a3.918,3.918,0,0,0-.426-2.072,1.475,1.475,0,0,0-2.454,0,3.964,3.964,0,0,0-.418,2.076v3.1a3.98,3.98,0,0,0,.421,2.092,1.381,1.381,0,0,0,1.24.654,1.354,1.354,0,0,0,1.219-.654,4.006,4.006,0,0,0,.418-2.092Z" transform="translate(-508.589 -244.307)" fill="#f3f6ff"/><path d="M525.792,246.77a2.423,2.423,0,0,1,.684-1.758,2.943,2.943,0,0,1,3.817,0,2.426,2.426,0,0,1,.679,1.763v.63a2.4,2.4,0,0,1-.679,1.751,2.531,2.531,0,0,1-1.9.7,2.573,2.573,0,0,1-1.915-.7,2.392,2.392,0,0,1-.687-1.751Zm1.587.63a1.227,1.227,0,0,0,.262.8.912.912,0,0,0,.753.323.882.882,0,0,0,.732-.323,1.238,1.238,0,0,0,.258-.8v-.63a1.258,1.258,0,0,0-.261-.805.893.893,0,0,0-.745-.331.883.883,0,0,0-.741.331,1.269,1.269,0,0,0-.258.805Zm1.407,8.1-1.161-.613,5.817-9.311,1.161.613Zm2.7-2.029a2.41,2.41,0,0,1,.687-1.751,2.947,2.947,0,0,1,3.818,0,2.409,2.409,0,0,1,.682,1.755v.63a2.411,2.411,0,0,1-.679,1.758,2.527,2.527,0,0,1-1.9.7,2.578,2.578,0,0,1-1.919-.7,2.393,2.393,0,0,1-.692-1.755Zm1.588.63a1.184,1.184,0,0,0,.282.8.926.926,0,0,0,.741.331.888.888,0,0,0,.761-.307,1.345,1.345,0,0,0,.229-.822v-.63a1.25,1.25,0,0,0-.262-.8,1.01,1.01,0,0,0-1.494,0,1.267,1.267,0,0,0-.258.8Z" transform="translate(-507.187 -244.307)" fill="#f3f6ff"/></g><g transform="translate(554.001 317.961)"><path d="M537.629,291.733l.687-6.636h6.644v1.914h-4.689l-.328,2.75a2.863,2.863,0,0,1,.795-.406,3.742,3.742,0,0,1,3.694.872,4.307,4.307,0,0,1,.945,2.962,4.085,4.085,0,0,1-1.035,2.855,3.827,3.827,0,0,1-2.983,1.137,4.479,4.479,0,0,1-2.813-.9,2.846,2.846,0,0,1-1.13-2.471l.016-.041,2.3-.114a1.667,1.667,0,0,0,.45,1.239,1.6,1.6,0,0,0,1.178.446,1.378,1.378,0,0,0,1.232-.592,2.732,2.732,0,0,0,.4-1.548,2.872,2.872,0,0,0-.425-1.65,1.429,1.429,0,0,0-1.26-.62,1.832,1.832,0,0,0-1.051.254,1.369,1.369,0,0,0-.52.687Z" transform="translate(-537.415 -284.925)" fill="#f3f6ff"/><path d="M553.582,292.4a5.254,5.254,0,0,1-1.084,3.587,4.152,4.152,0,0,1-5.886,0,5.236,5.236,0,0,1-1.089-3.587V289.77a5.27,5.27,0,0,1,1.084-3.588,4.128,4.128,0,0,1,5.883,0,5.247,5.247,0,0,1,1.092,3.588Zm-2.381-2.874a3.916,3.916,0,0,0-.425-2.072,1.477,1.477,0,0,0-2.455,0,3.972,3.972,0,0,0-.418,2.077v3.1a3.966,3.966,0,0,0,.423,2.092,1.38,1.38,0,0,0,1.239.654,1.36,1.36,0,0,0,1.22-.654,4.02,4.02,0,0,0,.417-2.092Z" transform="translate(-536.031 -284.95)" fill="#f3f6ff"/><path d="M553.735,287.413a2.426,2.426,0,0,1,.682-1.76,2.945,2.945,0,0,1,3.817,0,2.426,2.426,0,0,1,.679,1.763v.63a2.4,2.4,0,0,1-.679,1.75,2.527,2.527,0,0,1-1.9.7,2.569,2.569,0,0,1-1.915-.7,2.388,2.388,0,0,1-.686-1.75Zm1.586.63a1.227,1.227,0,0,0,.262.8.911.911,0,0,0,.753.322.88.88,0,0,0,.732-.322,1.237,1.237,0,0,0,.258-.8v-.63a1.255,1.255,0,0,0-.261-.805.889.889,0,0,0-.745-.331.88.88,0,0,0-.741.331,1.274,1.274,0,0,0-.258.805Zm1.407,8.1-1.161-.612,5.817-9.312,1.161.615Zm2.7-2.028a2.4,2.4,0,0,1,.687-1.751,2.947,2.947,0,0,1,3.817,0,2.414,2.414,0,0,1,.682,1.756v.63a2.413,2.413,0,0,1-.679,1.758,2.529,2.529,0,0,1-1.9.7,2.578,2.578,0,0,1-1.919-.7,2.4,2.4,0,0,1-.691-1.755Zm1.586.63a1.189,1.189,0,0,0,.283.8.922.922,0,0,0,.74.331.891.891,0,0,0,.761-.307,1.347,1.347,0,0,0,.229-.822v-.63a1.248,1.248,0,0,0-.262-.8,1.007,1.007,0,0,0-1.494,0,1.265,1.265,0,0,0-.258.8Z" transform="translate(-534.629 -284.95)" fill="#f3f6ff"/></g><g transform="translate(662.735 326.336)"><path d="M635.08,292.1a5.716,5.716,0,0,1,1.24.126,6.507,6.507,0,0,1,1.14.372l-.425,1.751a8.968,8.968,0,0,0-.961-.282,4.561,4.561,0,0,0-.978-.094,2.133,2.133,0,0,0-1.747.814,3.3,3.3,0,0,0-.61,2.254l.025.041a2.8,2.8,0,0,1,1.014-.654,3.82,3.82,0,0,1,1.384-.238,3.02,3.02,0,0,1,2.5,1.134,4.489,4.489,0,0,1,.9,2.892,4.13,4.13,0,0,1-1.117,2.97,3.821,3.821,0,0,1-2.892,1.17,4,4,0,0,1-3.077-1.281,5.018,5.018,0,0,1-1.186-3.546v-2.324a5.1,5.1,0,0,1,1.35-3.723A4.6,4.6,0,0,1,635.08,292.1Zm-.548,5.9a2.718,2.718,0,0,0-1.13.212,1.7,1.7,0,0,0-.719.581v.793a3.877,3.877,0,0,0,.51,2.172,1.572,1.572,0,0,0,1.363.76,1.36,1.36,0,0,0,1.182-.673,2.889,2.889,0,0,0,.445-1.63,2.643,2.643,0,0,0-.45-1.6A1.419,1.419,0,0,0,634.532,298Z" transform="translate(-630.294 -292.104)" fill="#f3f6ff"/><path d="M646.536,299.55a5.257,5.257,0,0,1-1.083,3.588,4.156,4.156,0,0,1-5.887,0,5.239,5.239,0,0,1-1.088-3.588v-2.627a5.274,5.274,0,0,1,1.083-3.587,4.128,4.128,0,0,1,5.883,0,5.245,5.245,0,0,1,1.092,3.587Zm-2.38-2.874a3.915,3.915,0,0,0-.426-2.072,1.475,1.475,0,0,0-2.455,0,3.985,3.985,0,0,0-.417,2.077v3.1a3.968,3.968,0,0,0,.423,2.093,1.377,1.377,0,0,0,1.239.654,1.357,1.357,0,0,0,1.22-.654,4.022,4.022,0,0,0,.417-2.093Z" transform="translate(-628.897 -292.104)" fill="#f3f6ff"/><path d="M646.689,294.567a2.422,2.422,0,0,1,.684-1.76,2.945,2.945,0,0,1,3.817,0,2.431,2.431,0,0,1,.679,1.763v.63a2.409,2.409,0,0,1-.679,1.751,2.536,2.536,0,0,1-1.9.694,2.574,2.574,0,0,1-1.914-.694,2.392,2.392,0,0,1-.687-1.751Zm1.587.63a1.22,1.22,0,0,0,.262.8.91.91,0,0,0,.752.323.884.884,0,0,0,.733-.323,1.236,1.236,0,0,0,.258-.8v-.63a1.27,1.27,0,0,0-.261-.807.9.9,0,0,0-.745-.331.886.886,0,0,0-.741.331,1.274,1.274,0,0,0-.258.807Zm1.407,8.1-1.162-.613,5.818-9.311,1.16.613Zm2.7-2.03a2.407,2.407,0,0,1,.686-1.75,2.947,2.947,0,0,1,3.817,0,2.414,2.414,0,0,1,.684,1.755v.631a2.413,2.413,0,0,1-.679,1.758,2.528,2.528,0,0,1-1.9.7,2.575,2.575,0,0,1-1.918-.7,2.394,2.394,0,0,1-.691-1.755Zm1.586.631a1.184,1.184,0,0,0,.282.8.924.924,0,0,0,.74.331.885.885,0,0,0,.761-.307,1.337,1.337,0,0,0,.231-.822v-.631a1.249,1.249,0,0,0-.262-.8,1.008,1.008,0,0,0-1.494,0,1.266,1.266,0,0,0-.258.8Z" transform="translate(-627.495 -292.104)" fill="#f3f6ff"/></g><g transform="translate(674.382 358.83)"><path d="M640.456,326.643l.688-6.636h6.643v1.914H643.1l-.328,2.749a2.886,2.886,0,0,1,.794-.4,3.726,3.726,0,0,1,3.694.871,4.306,4.306,0,0,1,.946,2.962,4.078,4.078,0,0,1-1.036,2.855,3.828,3.828,0,0,1-2.982,1.137,4.474,4.474,0,0,1-2.814-.9,2.838,2.838,0,0,1-1.129-2.47l.015-.041,2.3-.115a1.664,1.664,0,0,0,.451,1.24,1.6,1.6,0,0,0,1.178.445,1.378,1.378,0,0,0,1.232-.591,2.729,2.729,0,0,0,.4-1.548,2.863,2.863,0,0,0-.426-1.649,1.429,1.429,0,0,0-1.26-.62,1.828,1.828,0,0,0-1.051.254,1.383,1.383,0,0,0-.52.686Z" transform="translate(-640.243 -319.835)" fill="#f3f6ff"/><path d="M656.409,327.306a5.257,5.257,0,0,1-1.083,3.588,4.156,4.156,0,0,1-5.887,0,5.239,5.239,0,0,1-1.089-3.588v-2.627a5.275,5.275,0,0,1,1.084-3.587,4.128,4.128,0,0,1,5.883,0,5.246,5.246,0,0,1,1.092,3.587Zm-2.38-2.874a3.914,3.914,0,0,0-.426-2.072,1.477,1.477,0,0,0-2.455,0,3.985,3.985,0,0,0-.417,2.077v3.1a3.981,3.981,0,0,0,.422,2.093,1.379,1.379,0,0,0,1.239.653,1.355,1.355,0,0,0,1.22-.653,4.009,4.009,0,0,0,.418-2.093Z" transform="translate(-638.859 -319.86)" fill="#f3f6ff"/><path d="M656.562,322.323a2.422,2.422,0,0,1,.684-1.76,2.947,2.947,0,0,1,3.817,0,2.435,2.435,0,0,1,.679,1.764v.63a2.4,2.4,0,0,1-.679,1.75,2.532,2.532,0,0,1-1.9.7,2.57,2.57,0,0,1-1.914-.7,2.387,2.387,0,0,1-.687-1.75Zm1.588.63a1.22,1.22,0,0,0,.262.8.91.91,0,0,0,.752.323.881.881,0,0,0,.732-.323,1.237,1.237,0,0,0,.259-.8v-.63a1.27,1.27,0,0,0-.261-.807.9.9,0,0,0-.745-.331.884.884,0,0,0-.741.331,1.274,1.274,0,0,0-.258.807Zm1.407,8.1-1.162-.613,5.818-9.312,1.16.613Zm2.7-2.029a2.408,2.408,0,0,1,.686-1.751,2.945,2.945,0,0,1,3.817,0,2.407,2.407,0,0,1,.684,1.755v.63a2.413,2.413,0,0,1-.679,1.758,2.532,2.532,0,0,1-1.9.7,2.575,2.575,0,0,1-1.918-.7,2.394,2.394,0,0,1-.691-1.755Zm1.585.63a1.185,1.185,0,0,0,.283.8.927.927,0,0,0,.74.331.885.885,0,0,0,.761-.307,1.338,1.338,0,0,0,.231-.822v-.63a1.25,1.25,0,0,0-.262-.8,1.007,1.007,0,0,0-1.494,0,1.268,1.268,0,0,0-.259.8Z" transform="translate(-637.457 -319.86)" fill="#f3f6ff"/></g></g></svg>