<svg xmlns="http://www.w3.org/2000/svg" xmlns:xlink="http://www.w3.org/1999/xlink" width="782.5" height="592.477" viewBox="0 0 782.5 592.477">
  <defs>
    <linearGradient id="linear-gradient" x1="0.208" y1="0.245" x2="0.208" y2="-1.632" gradientUnits="objectBoundingBox">
      <stop offset="0" stop-color="#85d0ee"/>
      <stop offset="0.19" stop-color="#9bd8f1"/>
      <stop offset="0.532" stop-color="#bde5f5"/>
      <stop offset="0.814" stop-color="#d2eef8"/>
      <stop offset="1" stop-color="#daf1fa"/>
    </linearGradient>
    <linearGradient id="linear-gradient-2" x1="12.09" y1="6.685" x2="12.09" y2="6.285" gradientUnits="objectBoundingBox">
      <stop offset="0" stop-color="#f0ad84"/>
      <stop offset="0.463" stop-color="#f6bd9c"/>
      <stop offset="1" stop-color="#fed0b8"/>
    </linearGradient>
    <linearGradient id="linear-gradient-3" x1="19.467" y1="3.041" x2="18.571" y2="3.041" xlink:href="#linear-gradient-2"/>
    <linearGradient id="linear-gradient-4" x1="24.164" y1="1.862" x2="22.96" y2="1.862" xlink:href="#linear-gradient-2"/>
    <linearGradient id="linear-gradient-5" x1="34.416" y1="0.47" x2="34.416" y2="0.938" gradientUnits="objectBoundingBox">
      <stop offset="0" stop-color="#fdaf90"/>
      <stop offset="1" stop-color="#fed0b8"/>
    </linearGradient>
    <linearGradient id="linear-gradient-6" x1="74.246" y1="0.44" x2="73.518" y2="0.569" gradientUnits="objectBoundingBox">
      <stop offset="0" stop-color="#b7c3cc"/>
      <stop offset="1" stop-color="#d3dde6"/>
    </linearGradient>
  </defs>
  <g id="Group_2918" data-name="Group 2918" transform="translate(-127.761 -93.132)">
    <path id="Path_3575" data-name="Path 3575" d="M909.375,151.535s-8.653-1.25,5.092-2.467l14.094-1.249s-2.657-4.23,1.886-8.813c5.2-3.759,7.734,2.153,10.57-4.855,2.358-5.826,8.851-22.376,25.592-23.238,17.238-.887,25.943,8.468,25.943,8.468s-2.167-5.089-5.144-6.824a36.189,36.189,0,0,0,11.56-7.872c5.458-5.574,16.276-13.985,34.3-10.889,18.563,3.189,39.212,23.981,36.916,44.565,0,0,2.517-.374,2.542-7.821,0,0,10.082,2.716,10.1,12.544s-18.386,9.409-21.536,9.574Z" transform="translate(-177.214 0)" fill="#fff" opacity="0.2"/>
    <path id="Path_3576" data-name="Path 3576" d="M894.334,119.026H878.909c-.441-6.686-5.819-12.159-13.727-12.159a17.05,17.05,0,0,0-14.136,7.653C848,106.4,843.287,99.428,833.978,99.428c-9.467,0-17.356,6.952-17.573,15.1a16.04,16.04,0,0,0-8.482-1.764c-7.154.369-9.929,7.441-10.937,9.932-1.212,3-2.295.468-4.518,2.075a3.049,3.049,0,0,0-.805,3.767l-6.023.533c-5.874.52-2.176,1.054-2.176,1.054l15.235.042s28.7.3,42.485.409a7,7,0,0,0,3.869,1.337h34.8a9.58,9.58,0,0,0,7.048-4.04,6.039,6.039,0,0,0,.723-1.4h3.49a6.6,6.6,0,0,0,5.409-3.565C897.519,120.813,896.554,119.026,894.334,119.026Z" transform="translate(-164.548 -1.98)" fill="#fff" opacity="0.2"/>
    <path id="Path_3598" data-name="Path 3598" d="M857.4,868.495s6.6.244,18.667.413c2.341-1.4,31.843-4.555,34.2-5.922L779.954,864.4s-533.684,2-548.387,2.343c-14.777.349-103.1.037-103.8,9.635s52.464,17.554,52.464,17.554a6.268,6.268,0,0,1,1.577-3.6c3.124-3.553,8.475-2.439,10.448,2.066,7.784,17.774,92.259,33.288,170.013,35.092,84.229,1.954,135.611-6.905,161.641-12.674,25.789-5.716,54.817-8.377,54.817-8.377a77.069,77.069,0,0,1-23.569-6.361s40.063,8.622,120.94,6.732c78.544-1.836,134.456-8.134,145.974-13.967,13.852-7.015,11.286-8.975,35.965-12.956C879.7,875.138,857.4,868.495,857.4,868.495Z" transform="translate(0 -242.156)" opacity="0.24" fill="url(#linear-gradient)"/>
    <g id="Group_2880" data-name="Group 2880" transform="translate(384.012 170.331)">
      <path id="Path_3600" data-name="Path 3600" d="M909.827,251.24h-310.8c-35.916,0-65.031,30.379-65.031,67.852V620.464c0,37.474,29.115,67.852,65.031,67.852h310.8c35.916,0,65.031-30.379,65.031-67.852V319.092C974.858,281.619,945.743,251.24,909.827,251.24Z" transform="translate(-523.375 -220.064)" fill="#52517b"/>
      <path id="Path_3601" data-name="Path 3601" d="M894.83,238.359H583.06c-36.027,0-65.234,30.474-65.234,68.065V608.74c0,37.592,29.206,68.065,65.234,68.065H894.83c36.027,0,65.234-30.474,65.234-68.065V306.424C960.064,268.833,930.858,238.359,894.83,238.359Z" transform="translate(-517.826 -216.012)" fill="#81c0f8"/>
      <g id="Group_2879" data-name="Group 2879" transform="translate(5.378)">
        <path id="Path_3602" data-name="Path 3602" d="M957.13,312.341c0-36.646-28.472-66.354-63.594-66.354H589.606c-35.122,0-63.594,29.707-63.594,66.354v50.268H957.13Z" transform="translate(-526.012 -218.411)" fill="#0e54fb"/>
        <path id="Path_3603" data-name="Path 3603" d="M589.606,726.925h303.93c35.122,0,63.594-29.707,63.594-66.354V416.126H526.012V660.571C526.012,697.218,554.484,726.925,589.606,726.925Z" transform="translate(-526.012 -271.928)" fill="#f2f2f2"/>
        <g id="Group_2878" data-name="Group 2878" transform="translate(72.199)">
          <g id="Group_2876" data-name="Group 2876" transform="translate(237.228)">
            <path id="Path_3674" data-name="Path 3674" d="M19.612-.163c10.831-.09,19.539,8.282,19.449,18.7S30.118,37.472,19.287,37.562-.252,29.279-.163,18.862,8.78-.073,19.612-.163Z" transform="translate(0.604 100.035) rotate(-78.28)" fill="#2e3192"/>
            <path id="Path_3675" data-name="Path 3675" d="M17.657-.266c9.752-.147,17.538,7.884,17.391,17.937S26.877,35.992,17.126,36.139-.412,28.255-.266,18.2,7.905-.119,17.657-.266Z" transform="translate(0 71.479) rotate(-22.119)" fill="#1b1464"/>
            <path id="Path_3604" data-name="Path 3604" d="M1024.38,299.593h0c-7.874,0-14.258-6.661-14.258-14.876V220.633c0-8.216,6.383-14.876,14.258-14.876h0c7.875,0,14.258,6.661,14.258,14.876v64.084C1038.637,292.933,1032.254,299.593,1024.38,299.593Z" transform="translate(-1001.515 -205.757)" fill="#ccc"/>
            <path id="Path_3605" data-name="Path 3605" d="M1010.122,283.978v17.983c0,8.216,6.383,14.876,14.258,14.876s14.258-6.661,14.258-14.876V260.578C1030.5,270.178,1021.023,279.861,1010.122,283.978Z" transform="translate(-1001.515 -223.001)" fill="#b3b3b3"/>
          </g>
          <g id="Group_2877" data-name="Group 2877">
            <path id="Path_3676" data-name="Path 3676" d="M19.237-.409A18.28,18.28,0,0,1,38.065,18.42,20.253,20.253,0,0,1,18.42,38.065,18.28,18.28,0,0,1-.409,19.237,20.253,20.253,0,0,1,19.237-.409Z" transform="translate(0 84.79) rotate(-45)" fill="#2e3192"/>
            <path id="Path_3677" data-name="Path 3677" d="M17.93-.381A17.037,17.037,0,0,1,35.478,17.168a18.877,18.877,0,0,1-18.31,18.31A17.037,17.037,0,0,1-.381,17.93,18.877,18.877,0,0,1,17.93-.381Z" transform="translate(1.81 81.548) rotate(-45)" fill="#1b1464"/>
            <path id="Path_3606" data-name="Path 3606" d="M669,299.593h0c-7.874,0-14.258-6.661-14.258-14.876V220.633c0-8.216,6.383-14.876,14.258-14.876h0c7.874,0,14.258,6.661,14.258,14.876v64.084C683.257,292.933,676.874,299.593,669,299.593Z" transform="translate(-642.372 -205.757)" fill="#ccc"/>
            <path id="Path_3607" data-name="Path 3607" d="M654.742,283.978v17.983c0,8.216,6.383,14.876,14.258,14.876s14.258-6.661,14.258-14.876V260.578C675.118,270.178,665.643,279.861,654.742,283.978Z" transform="translate(-642.372 -223.001)" fill="#b3b3b3"/>
          </g>
        </g>
      </g>
    </g>
    <ellipse id="Ellipse_48" data-name="Ellipse 48" cx="39.01" cy="4.524" rx="39.01" ry="4.524" transform="translate(800.497 637.844)" fill="#d1e7f4"/>
    <ellipse id="Ellipse_49" data-name="Ellipse 49" cx="41.849" cy="4.853" rx="41.849" ry="4.853" transform="translate(782.484 637.796)" fill="#d1e7f4"/>
    <g id="Group_2889" data-name="Group 2889" transform="translate(827.213 516.885)">
      <g id="Group_2888" data-name="Group 2888">
        <g id="Group_2881" data-name="Group 2881" transform="translate(24.062 46.267)">
          <path id="Path_3608" data-name="Path 3608" d="M1229.28,841.217c-.553-12.932.176-27.9,1.481-42.6a59.554,59.554,0,0,0,29.171-19.781,96.778,96.778,0,0,1,3.624,20,70.028,70.028,0,0,1-.66,15.425C1256.021,827.648,1234.078,838.883,1229.28,841.217Z" transform="translate(-1229.093 -778.839)" fill="#60c0fd"/>
        </g>
        <g id="Group_2882" data-name="Group 2882" transform="translate(25.841 0.805)">
          <path id="Path_3609" data-name="Path 3609" d="M1231.8,776.529c2.548-27.971,7.115-54.679,8.8-64.013,3.311,4.233,5.405,10.072,7.743,14.73,2.7,5.376,5.258,10.822,7.519,16.375,1.72,4.225,3.267,8.52,4.57,12.872C1250.064,770.461,1235.16,775.532,1231.8,776.529Z" transform="translate(-1231.8 -712.516)" fill="#60c0fd"/>
        </g>
        <g id="Group_2883" data-name="Group 2883" transform="translate(0.371 25.666)">
          <path id="Path_3610" data-name="Path 3610" d="M1219.064,770.248c-1.811,15.181-3.308,31.887-3.6,47.171-3.618-3.161-18.871-17.13-22.438-30.795a92.463,92.463,0,0,1,12.516-37.839c4.134,10.572,13.359,21.392,13.455,21.5Z" transform="translate(-1193.031 -748.785)" fill="#60c0fd"/>
        </g>
        <g id="Group_2884" data-name="Group 2884" transform="translate(13.736 0.428)">
          <path id="Path_3611" data-name="Path 3611" d="M1213.374,735.789q1.561-2.552,3.273-5.008c4.4-6.294,9.746-14.026,16.376-18.816-1.269,7.028-4.289,24.545-6.786,45.09C1223.833,754.091,1216.567,744.7,1213.374,735.789Z" transform="translate(-1213.374 -711.965)" fill="#60c0fd"/>
        </g>
        <g id="Group_2885" data-name="Group 2885" transform="translate(0 66.939)">
          <path id="Path_3612" data-name="Path 3612" d="M1215.145,837.857l.107-.1c-.154,11.064.35,21.32,1.856,29.644-1.82-.745-3.749-2.5-6.317-5.391-13.813-15.573-19.207-34.37-18.209-53.014C1198.177,823.7,1214.963,837.706,1215.145,837.857Z" transform="translate(-1192.466 -808.997)" fill="#60c0fd"/>
        </g>
        <g id="Group_2886" data-name="Group 2886" transform="translate(24.308 85.224)">
          <path id="Path_3613" data-name="Path 3613" d="M1262.378,835.674a64.574,64.574,0,0,1-7.7,19.9,56.679,56.679,0,0,1-13.725,15.726c-4.425,3.453-7.121,5.209-9.76,4.868a118.415,118.415,0,0,1-1.73-15.805C1232.734,858.831,1253.479,848.72,1262.378,835.674Z" transform="translate(-1229.467 -835.674)" fill="#60c0fd"/>
        </g>
        <g id="Group_2887" data-name="Group 2887" transform="translate(0.116)">
          <path id="Path_3614" data-name="Path 3614" d="M1215.313,807.04l-.107.1c-.182-.151-16.968-14.157-22.563-28.86q.093-1.718.255-3.433c3.567,13.664,18.82,27.633,22.438,30.795.287-15.284,1.784-31.989,3.6-47.171l-.062.041c-.1-.112-9.321-10.932-13.455-21.5q.419-.71.849-1.414c3.193,8.913,10.458,18.3,12.863,21.266,2.5-20.546,5.518-38.062,6.786-45.09.2-.143.391-.291.59-.428q.339.392.661.805c-1.681,9.334-6.248,36.042-8.8,64.013,3.359-1,18.264-6.068,28.628-20.036q.222.741.433,1.484a59.554,59.554,0,0,1-29.171,19.781c-1.305,14.692-2.035,29.665-1.481,42.6,4.8-2.335,26.741-13.569,33.617-26.955-.183,1.183-.4,2.361-.647,3.535-8.9,13.046-29.644,23.157-32.911,24.692a118.416,118.416,0,0,0,1.73,15.805,5.5,5.5,0,0,1-1.4-.378C1215.663,828.361,1215.158,818.1,1215.313,807.04Z" transform="translate(-1192.642 -711.341)" fill="#d1e7f4"/>
        </g>
      </g>
    </g>
    <g id="Group_2898" data-name="Group 2898" transform="translate(801.799 507.968)">
      <g id="Group_2897" data-name="Group 2897">
        <g id="Group_2890" data-name="Group 2890" transform="translate(22.444 48.894)">
          <path id="Path_3615" data-name="Path 3615" d="M1188.682,836.918a428.3,428.3,0,0,1-.274-45.486,52.479,52.479,0,0,0,25.377-21.769,121.889,121.889,0,0,1,4,21.256,88.924,88.924,0,0,1-.011,16.474C1212.117,821.832,1192.892,834.318,1188.682,836.918Z" transform="translate(-1187.944 -769.663)" fill="#ff7faf"/>
        </g>
        <g id="Group_2891" data-name="Group 2891" transform="translate(22.961 0.845)">
          <path id="Path_3616" data-name="Path 3616" d="M1188.731,768.068c1.231-29.9,4.316-58.506,5.47-68.5,3.125,4.442,5.219,10.625,7.488,15.542,2.618,5.674,5.114,11.428,7.347,17.3,1.7,4.469,3.246,9.016,4.576,13.631A51.658,51.658,0,0,1,1188.731,768.068Z" transform="translate(-1188.731 -699.564)" fill="#ff7faf"/>
        </g>
        <g id="Group_2892" data-name="Group 2892" transform="translate(0.105 27.866)">
          <path id="Path_3617" data-name="Path 3617" d="M1176.636,761.58c-1.051,16.24-1.765,34.1-1.447,50.414-3.358-3.291-17.541-17.851-21.249-32.35a111.39,111.39,0,0,1,9.785-40.659c4.1,11.186,12.766,22.523,12.856,22.641Z" transform="translate(-1153.94 -738.985)" fill="#ff7faf"/>
        </g>
        <g id="Group_2893" data-name="Group 2893" transform="translate(10.597 0.47)">
          <path id="Path_3618" data-name="Path 3618" d="M1169.911,724.885q1.3-2.759,2.743-5.418c3.7-6.815,8.2-15.188,13.957-20.45-.872,7.528-2.917,26.288-4.383,48.267C1179.964,744.176,1173.1,734.323,1169.911,724.885Z" transform="translate(-1169.911 -699.017)" fill="#ff7faf"/>
        </g>
        <g id="Group_2894" data-name="Group 2894" transform="translate(0 72.195)">
          <path id="Path_3619" data-name="Path 3619" d="M1175.074,833.939l.093-.108c.278,11.809,1.115,22.742,2.776,31.59-1.657-.754-3.451-2.579-5.859-5.61-12.954-16.3-18.491-36.239-18.3-56.155C1159.348,819.217,1174.906,833.782,1175.074,833.939Z" transform="translate(-1153.781 -803.656)" fill="#ff7faf"/>
        </g>
        <g id="Group_2895" data-name="Group 2895" transform="translate(23.282 90.41)">
          <path id="Path_3620" data-name="Path 3620" d="M1217.763,830.231a76.69,76.69,0,0,1-6.144,21.413,57.888,57.888,0,0,1-11.7,17.091c-3.833,3.785-6.181,5.72-8.557,5.417a150.353,150.353,0,0,1-2.143-16.826C1192.089,855.613,1210.285,844.354,1217.763,830.231Z" transform="translate(-1189.221 -830.231)" fill="#ff7faf"/>
        </g>
        <g id="Group_2896" data-name="Group 2896" transform="translate(0.005)">
          <path id="Path_3621" data-name="Path 3621" d="M1175.169,800.7l-.093.108c-.168-.156-15.726-14.721-21.288-30.283q.018-1.835.1-3.67c3.708,14.5,17.891,29.059,21.249,32.35-.317-16.315.4-34.174,1.447-50.414l-.055.046c-.091-.118-8.758-11.455-12.856-22.64q.348-.768.707-1.529c3.194,9.438,10.053,19.291,12.317,22.4,1.465-21.98,3.511-40.739,4.382-48.267.171-.156.339-.319.512-.47q.318.41.623.845c-1.154,10-4.239,38.6-5.47,68.5a51.658,51.658,0,0,0,24.882-22.028q.226.785.443,1.574A52.478,52.478,0,0,1,1176.691,769a428.3,428.3,0,0,0,.274,45.486c4.21-2.6,23.435-15.086,29.09-29.525-.12,1.267-.271,2.529-.447,3.786-7.479,14.123-25.675,25.382-28.542,27.094a150.35,150.35,0,0,0,2.143,16.826,4.41,4.41,0,0,1-1.264-.372C1176.284,823.443,1175.447,812.51,1175.169,800.7Z" transform="translate(-1153.788 -698.332)" fill="#a7c4e4"/>
        </g>
      </g>
    </g>
    <g id="Group_2901" data-name="Group 2901" transform="translate(776.149 557.094)">
      <g id="Group_2900" data-name="Group 2900">
        <path id="Path_3622" data-name="Path 3622" d="M1138.792,777.428a44.166,44.166,0,0,1,6.044-7.107l.112,18.21A86.056,86.056,0,0,1,1138.792,777.428Z" transform="translate(-1122.988 -770.102)" fill="#006837"/>
        <path id="Path_3623" data-name="Path 3623" d="M1149.172,802.806c3.251-3.61,6.447-10.552,8.41-15.313,1.217,4,.716,8.406-1.38,14.482-4.183,12.124,2.94,9.7,4.333,8.515s4.825-7.772,8.85-4.922a4.065,4.065,0,0,1,.575.5c-3.413,12.07-17.467,30.8-20.554,34.816Z" transform="translate(-1126.549 -775.503)" fill="#006837"/>
        <path id="Path_3624" data-name="Path 3624" d="M1138.217,831.065c-1.917-1.093-11-7.115-19.748-26.936,3.848-2.5,7.326,3.728,8.717,4.845,1.422,1.143,8.607,3.367,4.11-8.635-3.056-8.158-3.088-13.337.113-18.689a85.073,85.073,0,0,0,6.575,11.637Z" transform="translate(-1116.016 -773.666)" fill="#006837"/>
        <path id="Path_3625" data-name="Path 3625" d="M1149.078,796.4l-.16-26.016c4.206,3.964,6.93,7.262,8.261,10.8C1155.33,785.722,1152.218,792.636,1149.078,796.4Z" transform="translate(-1126.462 -770.123)" fill="#006837"/>
        <path id="Path_3626" data-name="Path 3626" d="M1170.566,815.454c2.672,3.9,1.163,13.6-3.638,25.691a95.169,95.169,0,0,1-5.113,10.637c-1.841,3.358-3.8,6.617-5.824,9.805-1.511,2.378-3.049,4.741-4.657,7.02a2.177,2.177,0,0,1-1.678.729l-.115-18.569C1151.455,848.318,1166.72,828.531,1170.566,815.454Z" transform="translate(-1126.675 -784.299)" fill="#006837"/>
        <path id="Path_3627" data-name="Path 3627" d="M1116.668,815.022c9.252,20.954,18.938,26.659,20.273,27.365l.165,26.716c-.018-.007-.037-.013-.055-.021a2.205,2.205,0,0,1-.85-.894c-.5-.822-1.065-1.568-1.615-2.345q-1.361-1.919-2.685-3.877c-2.129-3.147-4.19-6.367-6.138-9.689a96.617,96.617,0,0,1-5.487-10.618q-.034-.078-.068-.156C1114.655,828.515,1113.057,818.252,1116.668,815.022Z" transform="translate(-1114.735 -784.163)" fill="#006837"/>
        <g id="Group_2899" data-name="Group 2899" transform="translate(1.933)">
          <path id="Path_3628" data-name="Path 3628" d="M1117.678,800.861c.085-.076.17-.153.261-.221s.173-.12.258-.176c8.746,19.821,17.832,25.844,19.748,26.936l-.233-37.778a85.063,85.063,0,0,1-6.575-11.637q.2-.328.411-.659a86.058,86.058,0,0,0,6.156,11.1l-.112-18.21c.057-.056.109-.11.166-.166.081-.073.132-.069.217,0l.225.213.16,26.016c3.14-3.767,6.252-10.682,8.1-15.211.115.3.222.611.316.92-1.963,4.761-5.16,11.7-8.41,15.313l.235,38.082c3.086-4.019,17.14-22.746,20.554-34.816a4.616,4.616,0,0,1,.478.587c-3.845,13.077-19.111,32.864-21.026,35.313l.115,18.569a1.646,1.646,0,0,1-.609-.1l-.165-26.716C1136.616,827.52,1126.93,821.815,1117.678,800.861Z" transform="translate(-1117.678 -770.001)" fill="#fff"/>
        </g>
      </g>
    </g>
    <g id="Group_2902" data-name="Group 2902" transform="translate(403.428 329.993)" opacity="0.5">
      <rect id="Rectangle_856" data-name="Rectangle 856" width="53.121" height="55.426" transform="translate(0 182.904)" fill="#d9bbea"/>
      <rect id="Rectangle_857" data-name="Rectangle 857" width="53.12" height="55.426" transform="translate(58.433 182.904)" fill="#92cdfa"/>
      <rect id="Rectangle_858" data-name="Rectangle 858" width="53.121" height="55.426" transform="translate(116.865 182.904)" fill="#92cdfa"/>
      <rect id="Rectangle_859" data-name="Rectangle 859" width="53.121" height="55.426" transform="translate(175.298 182.904)" fill="#92cdfa"/>
      <rect id="Rectangle_860" data-name="Rectangle 860" width="53.121" height="55.426" transform="translate(0 121.936)" fill="#d9bbea"/>
      <rect id="Rectangle_861" data-name="Rectangle 861" width="53.12" height="55.426" transform="translate(58.433 121.936)" fill="#92cdfa"/>
      <rect id="Rectangle_862" data-name="Rectangle 862" width="53.121" height="55.426" transform="translate(116.865 121.936)" fill="#92cdfa"/>
      <rect id="Rectangle_863" data-name="Rectangle 863" width="53.121" height="55.426" transform="translate(175.298 121.936)" fill="#92cdfa"/>
      <rect id="Rectangle_864" data-name="Rectangle 864" width="53.121" height="55.426" transform="translate(233.73 121.936)" fill="#92cdfa"/>
      <rect id="Rectangle_865" data-name="Rectangle 865" width="53.12" height="55.426" transform="translate(292.163 121.936)" fill="#92cdfa"/>
      <rect id="Rectangle_866" data-name="Rectangle 866" width="53.121" height="55.426" transform="translate(350.595 121.936)" fill="#ed7651"/>
      <rect id="Rectangle_867" data-name="Rectangle 867" width="53.121" height="55.426" transform="translate(0 60.968)" fill="#d9bbea"/>
      <rect id="Rectangle_868" data-name="Rectangle 868" width="53.12" height="55.426" transform="translate(58.433 60.968)" fill="#92cdfa"/>
      <rect id="Rectangle_869" data-name="Rectangle 869" width="53.121" height="55.426" transform="translate(116.865 60.968)" fill="#92cdfa"/>
      <rect id="Rectangle_870" data-name="Rectangle 870" width="53.121" height="55.426" transform="translate(175.298 60.968)" fill="#92cdfa"/>
      <rect id="Rectangle_871" data-name="Rectangle 871" width="53.121" height="55.426" transform="translate(233.73 60.968)" fill="#92cdfa"/>
      <rect id="Rectangle_872" data-name="Rectangle 872" width="53.12" height="55.426" transform="translate(292.163 60.968)" fill="#92cdfa"/>
      <rect id="Rectangle_873" data-name="Rectangle 873" width="53.121" height="55.426" transform="translate(350.595 60.968)" fill="#ed7651"/>
      <rect id="Rectangle_874" data-name="Rectangle 874" width="53.121" height="55.426" transform="translate(116.865)" fill="#92cdfa"/>
      <rect id="Rectangle_875" data-name="Rectangle 875" width="53.121" height="55.426" transform="translate(175.298)" fill="#92cdfa"/>
      <rect id="Rectangle_876" data-name="Rectangle 876" width="53.121" height="55.426" transform="translate(233.73)" fill="#92cdfa"/>
      <rect id="Rectangle_877" data-name="Rectangle 877" width="53.12" height="55.426" transform="translate(292.163)" fill="#92cdfa"/>
      <rect id="Rectangle_878" data-name="Rectangle 878" width="53.121" height="55.426" transform="translate(350.595)" fill="#ed7651"/>
    </g>
    <g id="Group_2903" data-name="Group 2903" transform="translate(553.177 250.648)">
      <path id="Path_3629" data-name="Path 3629" d="M795.576,355.161a.739.739,0,0,1,.576.228.845.845,0,0,1,.208.589v1.346H775.328v-.817a1.3,1.3,0,0,1,.127-.541,1.448,1.448,0,0,1,.334-.469l11.127-11.753q1.382-1.465,2.557-2.836a22.249,22.249,0,0,0,2.038-2.764,13.336,13.336,0,0,0,1.349-2.86,9.94,9.94,0,0,0,.483-3.124,8.133,8.133,0,0,0-.6-3.257,6.226,6.226,0,0,0-3.892-3.593,8.628,8.628,0,0,0-2.718-.433,7.975,7.975,0,0,0-2.845.493,7.391,7.391,0,0,0-3.963,3.461,8.713,8.713,0,0,0-.91,2.656,1.22,1.22,0,0,1-.426.7,1.122,1.122,0,0,1-.725.12l-1.129-.193a12.421,12.421,0,0,1,1.152-3.893,9.573,9.573,0,0,1,2.165-2.884,9.028,9.028,0,0,1,3.041-1.79,11.582,11.582,0,0,1,7.29-.048,8.63,8.63,0,0,1,2.995,1.706,8.1,8.1,0,0,1,2.062,2.86,9.874,9.874,0,0,1,.76,4.026,10.917,10.917,0,0,1-.564,3.57,14.7,14.7,0,0,1-1.532,3.161,22.829,22.829,0,0,1-2.246,2.944q-1.277,1.43-2.684,2.92l-10.2,10.864a11.621,11.621,0,0,1,1.532-.289,13.378,13.378,0,0,1,1.6-.1Z" transform="translate(-775.328 -322.93)" fill="#fff"/>
      <path id="Path_3630" data-name="Path 3630" d="M837.888,340.308a28.729,28.729,0,0,1-.922,7.739,16.512,16.512,0,0,1-2.51,5.408,10.022,10.022,0,0,1-8.27,4.231,10.12,10.12,0,0,1-4.538-1.046,10.3,10.3,0,0,1-3.708-3.185,16.348,16.348,0,0,1-2.5-5.408,33.374,33.374,0,0,1,0-15.479,16.358,16.358,0,0,1,2.5-5.408,10.309,10.309,0,0,1,3.708-3.185,10.4,10.4,0,0,1,9.088,0,10.283,10.283,0,0,1,3.721,3.185,16.522,16.522,0,0,1,2.51,5.408A28.726,28.726,0,0,1,837.888,340.308Zm-2.3,0a28.506,28.506,0,0,0-.76-7.066,15.19,15.19,0,0,0-2.039-4.8,8.07,8.07,0,0,0-2.994-2.728,7.921,7.921,0,0,0-7.2,0,8.182,8.182,0,0,0-2.994,2.728,15,15,0,0,0-2.05,4.8,33.284,33.284,0,0,0,0,14.144,14.991,14.991,0,0,0,2.05,4.783,8.068,8.068,0,0,0,2.994,2.716,7.85,7.85,0,0,0,10.193-2.716,15.181,15.181,0,0,0,2.039-4.783A28.471,28.471,0,0,0,835.584,340.308Z" transform="translate(-788.776 -322.93)" fill="#fff"/>
      <path id="Path_3631" data-name="Path 3631" d="M878.066,355.656v1.779H861.249v-1.779h7.487V328.063q0-.816.069-1.73l-7.188,6.658a.715.715,0,0,1-.644.216.9.9,0,0,1-.507-.289l-.668-.961,9.422-8.677h1.728v32.376Z" transform="translate(-804.306 -323.04)" fill="#fff"/>
      <path id="Path_3632" data-name="Path 3632" d="M912.127,343.288q.691-1.033,1.29-1.935t1.083-1.766A9.089,9.089,0,0,1,911.251,342a9.894,9.894,0,0,1-4.078.853,9.762,9.762,0,0,1-3.7-.685,8.514,8.514,0,0,1-2.937-1.959,8.927,8.927,0,0,1-1.935-3.065,11.035,11.035,0,0,1-.691-4,10.331,10.331,0,0,1,.784-4.05,9.892,9.892,0,0,1,2.165-3.233,10.008,10.008,0,0,1,3.282-2.152,10.843,10.843,0,0,1,4.158-.781,10.054,10.054,0,0,1,3.974.769,8.975,8.975,0,0,1,3.109,2.175,10.012,10.012,0,0,1,2.027,3.365,12.49,12.49,0,0,1,.725,4.363,11.723,11.723,0,0,1-.265,2.523,13.3,13.3,0,0,1-.783,2.4,22.763,22.763,0,0,1-1.255,2.464q-.737,1.262-1.682,2.7l-8.546,13.075a1.229,1.229,0,0,1-1.129.553h-2Zm-4.354-2.211a8.42,8.42,0,0,0,3.5-.7,7.888,7.888,0,0,0,4.193-4.362,7.729,7.729,0,0,0,.552-2.849,9.6,9.6,0,0,0-.575-3.389,7.708,7.708,0,0,0-1.613-2.631,7.369,7.369,0,0,0-2.453-1.707,7.722,7.722,0,0,0-3.1-.613,8.84,8.84,0,0,0-3.318.6,7.5,7.5,0,0,0-2.568,1.683,7.656,7.656,0,0,0-1.671,2.584,8.843,8.843,0,0,0-.6,3.3,9.9,9.9,0,0,0,.541,3.377,7.1,7.1,0,0,0,1.543,2.547,6.642,6.642,0,0,0,2.419,1.6A8.576,8.576,0,0,0,907.772,341.077Z" transform="translate(-817.381 -322.93)" fill="#fff"/>
    </g>
    <g id="Group_2904" data-name="Group 2904" transform="translate(583.71 219.967)">
      <path id="Path_3633" data-name="Path 3633" d="M829.446,288.94a9.023,9.023,0,0,1-.331,2.542,5.361,5.361,0,0,1-.991,1.93,4.348,4.348,0,0,1-1.644,1.225,5.736,5.736,0,0,1-2.293.428,9.193,9.193,0,0,1-1.173-.075,10.073,10.073,0,0,1-1.207-.237q.034-.462.078-.924c.029-.308.056-.617.078-.925a.669.669,0,0,1,.193-.411.633.633,0,0,1,.459-.156,2.012,2.012,0,0,1,.493.081,3.494,3.494,0,0,0,1.888-.11,1.9,1.9,0,0,0,.815-.606,2.86,2.86,0,0,0,.492-1.08,6.728,6.728,0,0,0,.167-1.612V278.17h2.978Z" transform="translate(-821.805 -278.17)" fill="#fff"/>
      <path id="Path_3634" data-name="Path 3634" d="M850.985,294.879h-2.3a.954.954,0,0,1-.631-.2,1.253,1.253,0,0,1-.366-.5l-1.2-3.409h-6.634l-1.2,3.409a1.106,1.106,0,0,1-.344.486.934.934,0,0,1-.631.219h-2.326l6.3-16.709h3.034Zm-5.26-6.31-1.949-5.558c-.1-.247-.2-.539-.3-.878s-.206-.7-.31-1.1q-.144.59-.3,1.1c-.1.343-.2.642-.3.9l-1.938,5.535Z" transform="translate(-826.454 -278.17)" fill="#fff"/>
      <path id="Path_3635" data-name="Path 3635" d="M875.174,278.17v16.709h-1.529a1.308,1.308,0,0,1-.593-.121,1.412,1.412,0,0,1-.46-.411l-8.361-11.139c.045.509.066.978.066,1.41v10.261h-2.625V278.17h1.562a2.658,2.658,0,0,1,.327.017.772.772,0,0,1,.244.069.808.808,0,0,1,.2.15,2.542,2.542,0,0,1,.221.26l8.394,11.186c-.022-.269-.04-.535-.056-.8s-.021-.5-.021-.728V278.17Z" transform="translate(-835.482 -278.17)" fill="#fff"/>
    </g>
    <g id="Group_2917" data-name="Group 2917" transform="translate(206.49 239.057)">
      <g id="Group_2906" data-name="Group 2906" transform="translate(30.384 170.89)">
        <path id="Path_3636" data-name="Path 3636" d="M423.5,822.286l3.943,26.673,10.457,8.487,25.9,9.681,1,5.387h-50.3a61.357,61.357,0,0,1,2.858-23.12l-3.48-26.415Z" transform="translate(-335.026 -639.3)" fill="#2c2b57"/>
        <path id="Path_3637" data-name="Path 3637" d="M313.066,825.6l-.769,24.94-6,8.23-11.98,9.389-.461,5.224h32.42a52.068,52.068,0,0,0-3.2-22.42l.234-25.911Z" transform="translate(-293.853 -640.171)" fill="#2c2b57"/>
        <path id="Path_3638" data-name="Path 3638" d="M359.175,555.33l3.954,31.9-26.458,2.821-2.851-.123-26.247-4.293,1.539-30.3Z" transform="translate(-298.56 -555.33)" fill="#2c2b57"/>
        <g id="Group_2905" data-name="Group 2905" transform="translate(10.406)">
          <path id="Path_3639" data-name="Path 3639" d="M360.292,558.476l-.39-3.146H309.839l-.146,2.877C326.186,565.766,345.768,564.847,360.292,558.476Z" transform="translate(-309.693 -555.33)" fill="#ccc"/>
        </g>
        <path id="Path_3640" data-name="Path 3640" d="M307.219,599.538c-1.859,41.338.363,112.778,3.584,183.162l20,1.664c-1.447-62.272.461-123.563,2.663-180.533Z" transform="translate(-298.206 -569.235)" fill="#2c2b57"/>
        <path id="Path_3641" data-name="Path 3641" d="M351.866,604.685c11.153,54.936,24.823,112.474,41.234,179.849l19.751-2.484C399.3,714.723,387.5,656.3,378.324,601.864Z" transform="translate(-313.755 -569.967)" fill="#2c2b57"/>
      </g>
      <g id="Group_2907" data-name="Group 2907" transform="translate(0.226 76.336)" opacity="0.8">
        <path id="Path_3642" data-name="Path 3642" d="M278.882,417.386s-27.6,41.658-29.176,46.038c-3.006,8.346-1.525,12.9-.219,15.44,1.827,3.554,8.584,5,12.956,2.222,1.987-1.261,23.685-25.523,23.685-25.523Z" transform="translate(-247.947 -417.386)" fill="#0e54fb"/>
      </g>
      <g id="Group_2909" data-name="Group 2909" transform="translate(94.166 77.115)">
        <g id="Group_2908" data-name="Group 2908" transform="translate(68.671 3.843)">
          <path id="Path_3643" data-name="Path 3643" d="M510.508,427.157s2.919-2.27,4.262-2.291,5.364,1.168,6.5,1a29.312,29.312,0,0,0,5.5-1.639c1.481-.663,2.253,2.283-1.027,3.887s-3.6,1.4-3.888,1.889,1.345,4.186,2.3,5.574,6.2,4.843,6.763,5.109a40.886,40.886,0,0,0,4.516,1.15c1.881.193,2.86,0,4.395.908,2.072,1.231,1.8,3.631-.335,3.146s-4.6-.875-5.039-.96-4.127-.516-4.744-.72-6.142-2.522-6.74-2.908C522.585,441.054,510.508,427.157,510.508,427.157Z" transform="translate(-500.631 -424.13)" fill="url(#linear-gradient-2)"/>
          <path id="Path_3644" data-name="Path 3644" d="M529.479,447.157s6.865,1.412,7.479,1.433,5.465.069,5.815,0,4.558-2.113,5.545-2.555.019-2.8-1.965-2.592a19.451,19.451,0,0,0-4.679,1.749l-4.207,0-4.973-2.454Z" transform="translate(-507.139 -429.985)" fill="url(#linear-gradient-3)"/>
          <path id="Path_3645" data-name="Path 3645" d="M529.479,443.878s7.354-1.217,8.054-1.289,4.951-3.216,5.239-3.525a51.011,51.011,0,0,0,2.341-5.981c.164-.622-1.3-1.34-2.747-.019-.762.7-1.866,3.518-1.977,3.826l-3.753,2.146-4.493-.046Z" transform="translate(-507.139 -426.706)" fill="url(#linear-gradient-4)"/>
          <path id="Path_3646" data-name="Path 3646" d="M501.394,431.691s2.841-2.522,3.956-3.323,4.7-.407,6.888,1.572a36.976,36.976,0,0,1,4.548,5.509,19.845,19.845,0,0,0,2.679,1.923,27.015,27.015,0,0,0,4.316-1.68,38.756,38.756,0,0,1,1.184-4.626c.874-1.753,2.948-1.986,2.585.053s-.89,5.689-1.062,5.983a25.562,25.562,0,0,1-3.879,2.914c-1.725,1.1-3.72,2.763-4.8,2.5s-10.279-4.3-11.474-4.069-5.581,4.635-5.581,4.635-5.454-6.02-5.281-6.206S501.394,431.691,501.394,431.691Z" transform="translate(-495.473 -425.34)" fill="#fed0b8"/>
        </g>
        <path id="Path_3647" data-name="Path 3647" d="M396.9,418.523s36.441,33.366,38.381,37.584,1.991,11.006,1.391,12.448-3.452,4.887-5.775,5.007c-5.333.276-39.954-24-39.954-24Z" transform="translate(-390.942 -418.523)" fill="#0e54fb" opacity="0.8"/>
        <path id="Path_3648" data-name="Path 3648" d="M480.244,428.206l9.124,12.533s-27.205,26.882-31.822,30.872-6.487,4.86-9.43,5-6.51-2.424-6.861-4.685c-.386-2.481-.045-9,4.634-15.055S480.244,428.206,480.244,428.206Z" transform="translate(-408.162 -421.569)" fill="#0e54fb" opacity="0.8"/>
      </g>
      <g id="Group_2910" data-name="Group 2910" transform="translate(31.161 43.368)">
        <path id="Path_3649" data-name="Path 3649" d="M341.812,406.616,364,414.742c-4.681,26.253-8.132,56.01-8.6,94.287a134.911,134.911,0,0,1-50.693.575c.493-33.907-3.72-65.248-9.674-95.641l22.9-7.461Z" transform="translate(-295.036 -380.994)" fill="#0e54fb" opacity="0.8"/>
        <path id="Path_3650" data-name="Path 3650" d="M353.769,406.616a27.765,27.765,0,0,1-4.486,5.638,18.959,18.959,0,0,0-2.927-4.324l-4.922-.081a27.666,27.666,0,0,0-4.241,5.338,53.186,53.186,0,0,1-7.3-6.686Z" transform="translate(-306.994 -380.994)" fill="#ccc"/>
        <path id="Path_3651" data-name="Path 3651" d="M351.335,401.7l-7.218-.115L341.8,405.95l3.031,5.749,5.62-.115,3.471-6.037Z" transform="translate(-311.079 -379.446)" fill="#132a40"/>
        <path id="Path_3652" data-name="Path 3652" d="M335.763,369.289l14.988.69c-.062,7.768.107,15.059.606,21.674l-14.823-.862A84.343,84.343,0,0,0,335.763,369.289Z" transform="translate(-309.008 -369.289)" fill="url(#linear-gradient-5)"/>
        <path id="Path_3653" data-name="Path 3653" d="M353.769,403.345l-2.241-5.787c-4.875,1.912-11.828,1.609-18.992-1.457l-2.645,7.129,7.273,5.4,5.474-8.394,3.342.038,3.343,7.359Z" transform="translate(-306.994 -377.723)" fill="#3840ad"/>
        <path id="Path_3654" data-name="Path 3654" d="M349.935,416.175l3.912,86.582-7.163,6.439-6.392-6.439,4.022-86.467Z" transform="translate(-310.561 -384.037)" fill="#132a40"/>
      </g>
      <g id="Group_2912" data-name="Group 2912" transform="translate(48.733)">
        <path id="Path_3655" data-name="Path 3655" d="M357.306,337.322s1.176-12.648-.808-15.254-9.036-6.516-18.881-6.056-14.914,5.979-15.722,9.659,3.086,20.773,3.086,20.773C336.754,346.4,347.666,343.769,357.306,337.322Z" transform="translate(-321.784 -309.151)"/>
        <path id="Path_3656" data-name="Path 3656" d="M359.864,333.292s1.535,23.725.65,28.561-8.909,11.577-10.269,12.3a5,5,0,0,1-4.382-.052c-1.248-.62-11.409-7.46-12.5-11.965a106.953,106.953,0,0,1-1.678-13.2,31.766,31.766,0,0,0,.239-4.894s-2.206-5.649-.732-9.755c.635-1.768,13.467.186,16.384.277S359.864,333.292,359.864,333.292Z" transform="translate(-324.837 -314.598)" fill="#ffc2b0"/>
        <path id="Path_3657" data-name="Path 3657" d="M358.08,352.7c1.395-.116,6.144,9.163,5.972,10.431-.2,1.453-4.584,3.272-4.584,3.272s-2.469-.91-2.9-2.039S357.027,352.789,358.08,352.7Z" transform="translate(-333.679 -320.703)" fill="#fd9c8c"/>
        <path id="Path_3658" data-name="Path 3658" d="M341.021,356.027c.008,1.725.723,3.12,1.6,3.116s1.579-1.407,1.571-3.131-.723-3.121-1.6-3.117S341.013,354.3,341.021,356.027Z" transform="translate(-328.383 -320.764)"/>
        <path id="Path_3659" data-name="Path 3659" d="M365.077,355.092c.007,1.585.665,2.868,1.47,2.864s1.451-1.292,1.444-2.878-.665-2.868-1.47-2.864S365.07,353.507,365.077,355.092Z" transform="translate(-336.636 -320.551)"/>
        <path id="Path_3660" data-name="Path 3660" d="M364.6,345.7a6.424,6.424,0,0,1,2.094-.279,9.172,9.172,0,0,1,3.066.74s-1.87-2.455-3.657-2.446C365.133,343.723,364.6,345.7,364.6,345.7Z" transform="translate(-336.473 -317.878)"/>
        <path id="Path_3661" data-name="Path 3661" d="M328.723,356.871c-1.611-2-3.249-2.945-5.393-1.346s-1.857,5.329-.316,8.183,5.631,4.208,6.7,2.019Z" transform="translate(-321.786 -321.338)" fill="#fed0b8"/>
        <path id="Path_3662" data-name="Path 3662" d="M326.634,358.693c-1.506-1.663-3-1.333-3.563.145s.393,4.943,1.845,6.185,2.994,1.378,3.346-.21A7.824,7.824,0,0,0,326.634,358.693Z" transform="translate(-322.169 -322.238)" fill="#fd9c8c"/>
        <path id="Path_3663" data-name="Path 3663" d="M328.34,319.549s16.591,10,28.419,10,14.769-13.43,8.889-23.534c-1.475,7.846-6.525,4.484-17.546,2.338s-16.31.076-18.44,3.3C327.419,315.044,328.34,319.549,328.34,319.549Z" transform="translate(-323.969 -306.02)"/>
        <path id="Path_3664" data-name="Path 3664" d="M343.857,345.976s-.47-2.265-2.12-1.884c-2.649.611-4.418,4.351-4.418,4.351a20.651,20.651,0,0,1,4.078-2.178A4.62,4.62,0,0,1,343.857,345.976Z" transform="translate(-327.113 -317.982)"/>
        <g id="Group_2911" data-name="Group 2911" transform="translate(14.708 46.582)">
          <path id="Path_3665" data-name="Path 3665" d="M359.432,376.081a27.99,27.99,0,0,1-7.692,1.81,26.641,26.641,0,0,1-6.7-.33c.1.287.223.594.358.913,3.559-.208,8.219.488,10.14,3.326A26.158,26.158,0,0,0,359.432,376.081Z" transform="translate(-344.47 -374.639)" fill="#9e000f"/>
          <path id="Path_3666" data-name="Path 3666" d="M351.443,377.23a27.991,27.991,0,0,0,7.692-1.81c.452-.865.708-1.441.708-1.441a60.571,60.571,0,0,1-8.009,1.362,30.221,30.221,0,0,1-7.661-.363,15.993,15.993,0,0,0,.57,1.922A26.642,26.642,0,0,0,351.443,377.23Z" transform="translate(-344.173 -373.978)" fill="#f2f2f2"/>
          <path id="Path_3667" data-name="Path 3667" d="M345.585,379.556c1.025,2.414,3,5.486,6.385,5.43a5.765,5.765,0,0,0,3.755-2.1C353.8,380.044,349.144,379.348,345.585,379.556Z" transform="translate(-344.657 -375.722)" fill="#fd917f"/>
        </g>
      </g>
      <g id="Group_2916" data-name="Group 2916" transform="translate(0 114.315)">
        <path id="Path_3668" data-name="Path 3668" d="M312.729,501.183c3.26,1.418-.5,17.625-4.212,16.8-1.088-.243-3.26-4.371-1.993-9.569S311.01,500.436,312.729,501.183Z" transform="translate(-267.684 -481.686)" fill="url(#linear-gradient-6)"/>
        <g id="Group_2915" data-name="Group 2915" transform="translate(37.75)">
          <path id="Path_3669" data-name="Path 3669" d="M344.177,473.106l-26.811,33.186a.909.909,0,0,0,.047,1.189l25.5,26.729a.818.818,0,0,0,.96.173l38.151-18.9a.9.9,0,0,0,.254-1.4l-36.843-41.017A.821.821,0,0,0,344.177,473.106Z" transform="translate(-309.217 -472.794)" fill="#283c43"/>
          <g id="Group_2913" data-name="Group 2913" transform="translate(26.418)">
            <path id="Path_3670" data-name="Path 3670" d="M345.28,483.678l8.541-10.572a.821.821,0,0,1,1.261-.034l36.843,41.017a.9.9,0,0,1-.254,1.4l-27.178,13.462C364.818,514.028,357.235,492.068,345.28,483.678Z" transform="translate(-345.28 -472.794)" fill="#364950"/>
          </g>
          <g id="Group_2914" data-name="Group 2914" transform="translate(0 13.36)">
            <path id="Path_3671" data-name="Path 3671" d="M318.925,495.434c.7-.3,3.526-2.873,4.438-3.131s4.507,2.17,4.959,2.4a31.268,31.268,0,0,1,3.507,3.4c2.233,2.25-.736,4.737-3.132,3.083s-3.6-2.326-3.6-2.326l-.749-.234s-.84,1.043-.96,1.207,3.807,3.094,4.209,3.427,4.5,4.355,4.926,4.752,2.47,2.7,3.5,3.708c1.626,1.584-.276,4.143-2.575,2.7a22.269,22.269,0,0,1-3.807-2.989c-.255-.23-4.474-3.573-4.671-3.677s-3.032-1.33-3.032-1.33,3.034,3.125,3.27,3.313,4.1,3.61,4.471,3.882,1.621,1.33,3.635,3.076.325,4.693-3.482,1.67c0,0-.083.453-1.111.463a9.979,9.979,0,0,1-2.859-.854c-.394-.108-3.973-2.186-4.366-2.4s-3.8-2.119-4.17-2.184c-2.036-.042-3.835.005-5.481-1.624a15.409,15.409,0,0,1-1.695-2.681l-3.624-1.437c-3.095-4.3-.874-8.16,2.722-9.956l4.175,1.775s2-2.355,2.536-2.783A19.466,19.466,0,0,1,318.925,495.434Z" transform="translate(-305.066 -492.284)" fill="#fed0b8"/>
            <path id="Path_3672" data-name="Path 3672" d="M336.789,527s-4.344-3.261-4.946-3.707c-.145-.108-.478-.357-.905-.678-1.267-.949-3.626-2.716-3.9-2.881a2.332,2.332,0,0,0-1.1-.092.224.224,0,0,1-.244-.2.228.228,0,0,1,.2-.255,2.727,2.727,0,0,1,1.373.153c.266.162,2.087,1.523,3.93,2.9l.9.676c.6.446,4.949,3.709,4.949,3.709Z" transform="translate(-312.143 -500.737)" fill="#e69a73"/>
          </g>
        </g>
        <path id="Path_3673" data-name="Path 3673" d="M292.648,494.454c-4.891.851-7.11,9.781-4.212,16.8,0,0-32.667-8.523-36.138-9.994-4.348-1.843-5.163-8.363-4.484-12.049s2.581-7.513,4.212-8.363,7.879-1.843,10.733-.568S292.648,494.454,292.648,494.454Z" transform="translate(-247.602 -474.956)" fill="#0e54fb"/>
      </g>
    </g>
  </g>
</svg>
