<svg xmlns="http://www.w3.org/2000/svg" width="200" height="113" viewBox="0 0 200 113">
  <g id="Group_2580" data-name="Group 2580" transform="translate(-43.409 -95.102)" opacity="0.8">
    <g id="Group_1998" data-name="Group 1998" transform="translate(186.124 172.056)">
      <g id="Group_1976" data-name="Group 1976" transform="translate(0.642 0.642)">
        <g id="Group_1975" data-name="Group 1975">
          <path id="Path_2632" data-name="Path 2632" d="M302.914,248.834V236.241H279.755V215.857H267.161v32.977Z" transform="translate(-267.161 -215.857)" fill="#06df99"/>
        </g>
      </g>
      <g id="Group_1978" data-name="Group 1978">
        <g id="Group_1977" data-name="Group 1977">
          <path id="Path_2633" data-name="Path 2633" d="M303.2,249.118H266.161V214.857h13.877v20.384H303.2Zm-35.753-1.284h34.469V236.525H278.754V216.141h-11.31Z" transform="translate(-266.161 -214.857)" fill="#06df99"/>
        </g>
      </g>
      <g id="Group_1988" data-name="Group 1988" transform="translate(4.872 28.09)">
        <g id="Group_1979" data-name="Group 1979" transform="translate(27.364 2.176)">
          <rect id="Rectangle_721" data-name="Rectangle 721" width="1.284" height="3.352" fill="#06df99"/>
        </g>
        <g id="Group_1980" data-name="Group 1980" transform="translate(23.943)">
          <rect id="Rectangle_722" data-name="Rectangle 722" width="1.284" height="5.529" fill="#06df99"/>
        </g>
        <g id="Group_1981" data-name="Group 1981" transform="translate(20.523 2.176)">
          <rect id="Rectangle_723" data-name="Rectangle 723" width="1.284" height="3.352" fill="#06df99"/>
        </g>
        <g id="Group_1982" data-name="Group 1982" transform="translate(17.102)">
          <rect id="Rectangle_724" data-name="Rectangle 724" width="1.284" height="5.529" fill="#06df99"/>
        </g>
        <g id="Group_1983" data-name="Group 1983" transform="translate(13.682 2.176)">
          <rect id="Rectangle_725" data-name="Rectangle 725" width="1.284" height="3.352" fill="#06df99"/>
        </g>
        <g id="Group_1984" data-name="Group 1984" transform="translate(10.261)">
          <rect id="Rectangle_726" data-name="Rectangle 726" width="1.284" height="5.529" fill="#06df99"/>
        </g>
        <g id="Group_1985" data-name="Group 1985" transform="translate(6.841 2.176)">
          <rect id="Rectangle_727" data-name="Rectangle 727" width="1.284" height="3.352" fill="#06df99"/>
        </g>
        <g id="Group_1986" data-name="Group 1986" transform="translate(3.421)">
          <rect id="Rectangle_728" data-name="Rectangle 728" width="1.284" height="5.529" fill="#06df99"/>
        </g>
        <g id="Group_1987" data-name="Group 1987" transform="translate(0 2.176)">
          <rect id="Rectangle_729" data-name="Rectangle 729" width="1.284" height="3.352" fill="#06df99"/>
        </g>
      </g>
      <g id="Group_1997" data-name="Group 1997" transform="translate(0.642 3.004)">
        <g id="Group_1989" data-name="Group 1989" transform="translate(0 23.943)">
          <rect id="Rectangle_730" data-name="Rectangle 730" width="5.53" height="1.284" fill="#06df99"/>
        </g>
        <g id="Group_1990" data-name="Group 1990" transform="translate(0 20.523)">
          <rect id="Rectangle_731" data-name="Rectangle 731" width="3.353" height="1.284" fill="#06df99"/>
        </g>
        <g id="Group_1991" data-name="Group 1991" transform="translate(0 17.102)">
          <rect id="Rectangle_732" data-name="Rectangle 732" width="5.53" height="1.284" fill="#06df99"/>
        </g>
        <g id="Group_1992" data-name="Group 1992" transform="translate(0 13.682)">
          <rect id="Rectangle_733" data-name="Rectangle 733" width="3.353" height="1.284" fill="#06df99"/>
        </g>
        <g id="Group_1993" data-name="Group 1993" transform="translate(0 10.261)">
          <rect id="Rectangle_734" data-name="Rectangle 734" width="5.53" height="1.284" fill="#06df99"/>
        </g>
        <g id="Group_1994" data-name="Group 1994" transform="translate(0 6.841)">
          <rect id="Rectangle_735" data-name="Rectangle 735" width="3.353" height="1.284" fill="#06df99"/>
        </g>
        <g id="Group_1995" data-name="Group 1995" transform="translate(0 3.421)">
          <rect id="Rectangle_736" data-name="Rectangle 736" width="5.53" height="1.284" fill="#06df99"/>
        </g>
        <g id="Group_1996" data-name="Group 1996">
          <rect id="Rectangle_737" data-name="Rectangle 737" width="3.353" height="1.284" fill="#06df99"/>
        </g>
      </g>
    </g>
    <g id="Group_2033" data-name="Group 2033" transform="translate(166.038 130.732)">
      <g id="Group_2000" data-name="Group 2000" transform="translate(0.642 0.642)">
        <g id="Group_1999" data-name="Group 1999">
          <rect id="Rectangle_738" data-name="Rectangle 738" width="9.375" height="74.277" fill="#06df99"/>
        </g>
      </g>
      <g id="Group_2002" data-name="Group 2002">
        <g id="Group_2001" data-name="Group 2001">
          <path id="Path_2634" data-name="Path 2634" d="M244.741,226.037h-9.375a.642.642,0,0,1-.642-.642V151.118a.642.642,0,0,1,.642-.642h9.375a.642.642,0,0,1,.642.642v74.277A.642.642,0,0,1,244.741,226.037Zm-8.733-1.284H244.1V151.76h-8.091Z" transform="translate(-234.724 -150.476)" fill="#06df99"/>
        </g>
      </g>
      <g id="Group_2032" data-name="Group 2032" transform="translate(4.674 2.399)">
        <g id="Group_2003" data-name="Group 2003">
          <rect id="Rectangle_739" data-name="Rectangle 739" width="5.692" height="1.284" fill="#06df99"/>
        </g>
        <g id="Group_2004" data-name="Group 2004" transform="translate(2.44 2.729)">
          <rect id="Rectangle_740" data-name="Rectangle 740" width="3.252" height="1.284" fill="#06df99"/>
        </g>
        <g id="Group_2005" data-name="Group 2005" transform="translate(0 4.777)">
          <rect id="Rectangle_741" data-name="Rectangle 741" width="5.692" height="1.284" fill="#06df99"/>
        </g>
        <g id="Group_2006" data-name="Group 2006" transform="translate(2.44 7.507)">
          <rect id="Rectangle_742" data-name="Rectangle 742" width="3.252" height="1.284" fill="#06df99"/>
        </g>
        <g id="Group_2007" data-name="Group 2007" transform="translate(0 10.236)">
          <rect id="Rectangle_743" data-name="Rectangle 743" width="5.692" height="1.284" fill="#06df99"/>
        </g>
        <g id="Group_2008" data-name="Group 2008" transform="translate(2.44 12.284)">
          <rect id="Rectangle_744" data-name="Rectangle 744" width="3.252" height="1.284" fill="#06df99"/>
        </g>
        <g id="Group_2009" data-name="Group 2009" transform="translate(0 15.013)">
          <rect id="Rectangle_745" data-name="Rectangle 745" width="5.692" height="1.284" fill="#06df99"/>
        </g>
        <g id="Group_2010" data-name="Group 2010" transform="translate(2.44 17.743)">
          <rect id="Rectangle_746" data-name="Rectangle 746" width="3.252" height="1.284" fill="#06df99"/>
        </g>
        <g id="Group_2011" data-name="Group 2011" transform="translate(0 19.79)">
          <rect id="Rectangle_747" data-name="Rectangle 747" width="5.692" height="1.284" fill="#06df99"/>
        </g>
        <g id="Group_2012" data-name="Group 2012" transform="translate(2.44 22.52)">
          <rect id="Rectangle_748" data-name="Rectangle 748" width="3.252" height="1.284" fill="#06df99"/>
        </g>
        <g id="Group_2013" data-name="Group 2013" transform="translate(0 24.567)">
          <rect id="Rectangle_749" data-name="Rectangle 749" width="5.692" height="1.284" fill="#06df99"/>
        </g>
        <g id="Group_2014" data-name="Group 2014" transform="translate(2.44 27.297)">
          <rect id="Rectangle_750" data-name="Rectangle 750" width="3.252" height="1.284" fill="#06df99"/>
        </g>
        <g id="Group_2015" data-name="Group 2015" transform="translate(0 30.026)">
          <rect id="Rectangle_751" data-name="Rectangle 751" width="5.692" height="1.284" fill="#06df99"/>
        </g>
        <g id="Group_2016" data-name="Group 2016" transform="translate(2.44 32.074)">
          <rect id="Rectangle_752" data-name="Rectangle 752" width="3.252" height="1.284" fill="#06df99"/>
        </g>
        <g id="Group_2017" data-name="Group 2017" transform="translate(0 34.803)">
          <rect id="Rectangle_753" data-name="Rectangle 753" width="5.692" height="1.284" fill="#06df99"/>
        </g>
        <g id="Group_2018" data-name="Group 2018" transform="translate(2.44 37.533)">
          <rect id="Rectangle_754" data-name="Rectangle 754" width="3.252" height="1.284" fill="#06df99"/>
        </g>
        <g id="Group_2019" data-name="Group 2019" transform="translate(0 39.58)">
          <rect id="Rectangle_755" data-name="Rectangle 755" width="5.692" height="1.284" fill="#06df99"/>
        </g>
        <g id="Group_2020" data-name="Group 2020" transform="translate(2.44 42.31)">
          <rect id="Rectangle_756" data-name="Rectangle 756" width="3.252" height="1.284" fill="#06df99"/>
        </g>
        <g id="Group_2021" data-name="Group 2021" transform="translate(0 45.039)">
          <rect id="Rectangle_757" data-name="Rectangle 757" width="5.692" height="1.284" fill="#06df99"/>
        </g>
        <g id="Group_2022" data-name="Group 2022" transform="translate(2.44 47.087)">
          <rect id="Rectangle_758" data-name="Rectangle 758" width="3.252" height="1.284" fill="#06df99"/>
        </g>
        <g id="Group_2023" data-name="Group 2023" transform="translate(0 49.817)">
          <rect id="Rectangle_759" data-name="Rectangle 759" width="5.692" height="1.284" fill="#06df99"/>
        </g>
        <g id="Group_2024" data-name="Group 2024" transform="translate(2.44 51.864)">
          <rect id="Rectangle_760" data-name="Rectangle 760" width="3.252" height="1.284" fill="#06df99"/>
        </g>
        <g id="Group_2025" data-name="Group 2025" transform="translate(0 54.594)">
          <rect id="Rectangle_761" data-name="Rectangle 761" width="5.692" height="1.284" fill="#06df99"/>
        </g>
        <g id="Group_2026" data-name="Group 2026" transform="translate(2.44 57.323)">
          <rect id="Rectangle_762" data-name="Rectangle 762" width="3.252" height="1.284" fill="#06df99"/>
        </g>
        <g id="Group_2027" data-name="Group 2027" transform="translate(0 59.371)">
          <rect id="Rectangle_763" data-name="Rectangle 763" width="5.692" height="1.284" fill="#06df99"/>
        </g>
        <g id="Group_2028" data-name="Group 2028" transform="translate(2.44 62.1)">
          <rect id="Rectangle_764" data-name="Rectangle 764" width="3.252" height="1.284" fill="#06df99"/>
        </g>
        <g id="Group_2029" data-name="Group 2029" transform="translate(0 64.83)">
          <rect id="Rectangle_765" data-name="Rectangle 765" width="5.692" height="1.284" fill="#06df99"/>
        </g>
        <g id="Group_2030" data-name="Group 2030" transform="translate(2.44 66.877)">
          <rect id="Rectangle_766" data-name="Rectangle 766" width="3.252" height="1.284" fill="#06df99"/>
        </g>
        <g id="Group_2031" data-name="Group 2031" transform="translate(0 69.607)">
          <rect id="Rectangle_767" data-name="Rectangle 767" width="5.692" height="1.284" fill="#06df99"/>
        </g>
      </g>
    </g>
    <g id="Group_2038" data-name="Group 2038" transform="translate(43.409 205.535)">
      <g id="Group_2034" data-name="Group 2034" transform="translate(12.837)">
        <rect id="Rectangle_768" data-name="Rectangle 768" width="14.121" height="2.567" fill="#06df99"/>
      </g>
      <g id="Group_2035" data-name="Group 2035">
        <rect id="Rectangle_769" data-name="Rectangle 769" width="9.628" height="2.567" fill="#06df99"/>
      </g>
      <g id="Group_2036" data-name="Group 2036" transform="translate(190.372)">
        <rect id="Rectangle_770" data-name="Rectangle 770" width="9.628" height="2.567" fill="#06df99"/>
      </g>
      <g id="Group_2037" data-name="Group 2037" transform="translate(29.165)">
        <rect id="Rectangle_771" data-name="Rectangle 771" width="152.863" height="2.567" fill="#06df99"/>
      </g>
    </g>
    <g id="Group_2039" data-name="Group 2039" transform="translate(209.466 172.984)">
      <path id="Path_2635" data-name="Path 2635" d="M305.222,221.727a2.694,2.694,0,1,1,2.693-2.693A2.7,2.7,0,0,1,305.222,221.727Zm0-4.1a1.41,1.41,0,1,0,1.41,1.41A1.412,1.412,0,0,0,305.222,217.624Z" transform="translate(-302.528 -216.34)" fill="#06df99"/>
    </g>
    <g id="Group_2040" data-name="Group 2040" transform="translate(200.06 146.046)">
      <path id="Path_2636" data-name="Path 2636" d="M290.486,179.793a2.694,2.694,0,1,1,2.694-2.694A2.7,2.7,0,0,1,290.486,179.793Zm0-4.1a1.41,1.41,0,1,0,1.41,1.41A1.411,1.411,0,0,0,290.486,175.69Z" transform="translate(-287.793 -174.406)" fill="#06df99"/>
    </g>
    <g id="Group_2041" data-name="Group 2041" transform="translate(79.909 134.045)">
      <path id="Path_2637" data-name="Path 2637" d="M103.044,161.112a2.693,2.693,0,1,1,2.693-2.693A2.7,2.7,0,0,1,103.044,161.112Zm0-4.1a1.41,1.41,0,1,0,1.41,1.41A1.411,1.411,0,0,0,103.044,157.009Z" transform="translate(-100.351 -155.725)" fill="#06df99"/>
    </g>
    <g id="Group_2042" data-name="Group 2042" transform="translate(184.654 113.356)">
      <path id="Path_2638" data-name="Path 2638" d="M266.452,128.905a2.694,2.694,0,1,1,2.693-2.693A2.7,2.7,0,0,1,266.452,128.905Zm0-4.1a1.41,1.41,0,1,0,1.41,1.41A1.412,1.412,0,0,0,266.452,124.8Z" transform="translate(-263.759 -123.518)" fill="#06df99"/>
    </g>
    <g id="Group_2043" data-name="Group 2043" transform="translate(134.913 107.446)">
      <path id="Path_2639" data-name="Path 2639" d="M188.855,119.72a2.694,2.694,0,1,1,2.693-2.693A2.7,2.7,0,0,1,188.855,119.72Zm0-4.1a1.41,1.41,0,1,0,1.41,1.41A1.412,1.412,0,0,0,188.855,115.617Z" transform="translate(-186.161 -114.333)" fill="#06df99"/>
    </g>
    <g id="Group_2044" data-name="Group 2044" transform="translate(156.741 95.102)">
      <path id="Path_2640" data-name="Path 2640" d="M222.906,100.489A2.694,2.694,0,1,1,225.6,97.8,2.7,2.7,0,0,1,222.906,100.489Zm0-4.1a1.41,1.41,0,1,0,1.41,1.41A1.411,1.411,0,0,0,222.906,96.386Z" transform="translate(-220.213 -95.102)" fill="#06df99"/>
    </g>
    <g id="Group_2045" data-name="Group 2045" transform="translate(67.674 196.225)">
      <path id="Path_2641" data-name="Path 2641" d="M83.906,257.9a2.694,2.694,0,1,1,2.694-2.694A2.7,2.7,0,0,1,83.906,257.9Zm0-4.1a1.41,1.41,0,1,0,1.41,1.41A1.411,1.411,0,0,0,83.906,253.8Z" transform="translate(-81.213 -252.512)" fill="#06df99"/>
    </g>
    <g id="Group_2046" data-name="Group 2046" transform="translate(57.118 177.938)">
      <path id="Path_2642" data-name="Path 2642" d="M67.46,229.439a2.693,2.693,0,1,1,2.693-2.693A2.7,2.7,0,0,1,67.46,229.439Zm0-4.1a1.41,1.41,0,1,0,1.41,1.41A1.411,1.411,0,0,0,67.46,225.336Z" transform="translate(-64.767 -224.052)" fill="#06df99"/>
    </g>
    <g id="Group_2050" data-name="Group 2050" transform="translate(203.774 185.304)">
      <g id="Group_2047" data-name="Group 2047" transform="translate(16.368)">
        <path id="Path_2643" data-name="Path 2643" d="M320.443,236.807H319.8a.642.642,0,1,1,0-1.284h.642a.642.642,0,1,1,0,1.284Z" transform="translate(-319.159 -235.523)" fill="#06df99"/>
      </g>
      <g id="Group_2048" data-name="Group 2048" transform="translate(3.501)">
        <path id="Path_2644" data-name="Path 2644" d="M309.762,236.807h-1.429a.642.642,0,1,1,0-1.284h1.429a.642.642,0,1,1,0,1.284Zm-4.288,0h-1.43a.642.642,0,0,1,0-1.284h1.43a.642.642,0,0,1,0,1.284Zm-4.29,0h-1.429a.642.642,0,0,1,0-1.284h1.429a.642.642,0,1,1,0,1.284Z" transform="translate(-299.113 -235.523)" fill="#06df99"/>
      </g>
      <g id="Group_2049" data-name="Group 2049">
        <path id="Path_2645" data-name="Path 2645" d="M294.943,236.807H294.3a.642.642,0,1,1,0-1.284h.642a.642.642,0,1,1,0,1.284Z" transform="translate(-293.659 -235.523)" fill="#06df99"/>
      </g>
    </g>
    <g id="Group_2054" data-name="Group 2054" transform="translate(50.665 189.162)">
      <g id="Group_2051" data-name="Group 2051" transform="translate(16.368)">
        <path id="Path_2646" data-name="Path 2646" d="M81.5,242.791h-.642a.642.642,0,0,1,0-1.284H81.5a.642.642,0,0,1,0,1.284Z" transform="translate(-80.213 -241.507)" fill="#06df99"/>
      </g>
      <g id="Group_2052" data-name="Group 2052" transform="translate(3.501)">
        <path id="Path_2647" data-name="Path 2647" d="M70.817,242.791H69.388a.642.642,0,0,1,0-1.284h1.429a.642.642,0,0,1,0,1.284Zm-4.289,0H65.1a.642.642,0,0,1,0-1.284h1.429a.642.642,0,0,1,0,1.284Zm-4.289,0H60.81a.642.642,0,0,1,0-1.284h1.429a.642.642,0,0,1,0,1.284Z" transform="translate(-60.168 -241.507)" fill="#06df99"/>
      </g>
      <g id="Group_2053" data-name="Group 2053">
        <path id="Path_2648" data-name="Path 2648" d="M56,242.791h-.642a.642.642,0,0,1,0-1.284H56a.642.642,0,0,1,0,1.284Z" transform="translate(-54.713 -241.507)" fill="#06df99"/>
      </g>
    </g>
    <g id="Group_2058" data-name="Group 2058" transform="translate(181.036 126.737)">
      <g id="Group_2055" data-name="Group 2055" transform="translate(16.368 0)">
        <path id="Path_2649" data-name="Path 2649" d="M284.919,145.633h-.642a.642.642,0,1,1,0-1.284h.642a.642.642,0,1,1,0,1.284Z" transform="translate(-283.635 -144.349)" fill="#06df99"/>
      </g>
      <g id="Group_2056" data-name="Group 2056" transform="translate(3.501 0)">
        <path id="Path_2650" data-name="Path 2650" d="M274.239,145.633H272.81a.642.642,0,1,1,0-1.284h1.429a.642.642,0,1,1,0,1.284Zm-4.289,0h-1.429a.642.642,0,0,1,0-1.284h1.429a.642.642,0,1,1,0,1.284Zm-4.289,0h-1.429a.642.642,0,0,1,0-1.284h1.429a.642.642,0,1,1,0,1.284Z" transform="translate(-263.59 -144.349)" fill="#06df99"/>
      </g>
      <g id="Group_2057" data-name="Group 2057" transform="translate(0 0)">
        <path id="Path_2651" data-name="Path 2651" d="M259.419,145.633h-.642a.642.642,0,1,1,0-1.284h.642a.642.642,0,0,1,0,1.284Z" transform="translate(-258.135 -144.349)" fill="#06df99"/>
      </g>
    </g>
    <g id="Group_2062" data-name="Group 2062" transform="translate(68.145 148.097)">
      <g id="Group_2059" data-name="Group 2059" transform="translate(16.368)">
        <path id="Path_2652" data-name="Path 2652" d="M108.73,178.886h-.642a.642.642,0,1,1,0-1.284h.642a.642.642,0,1,1,0,1.284Z" transform="translate(-107.446 -177.602)" fill="#06df99"/>
      </g>
      <g id="Group_2060" data-name="Group 2060" transform="translate(3.501)">
        <path id="Path_2653" data-name="Path 2653" d="M98.05,178.886H96.621a.642.642,0,1,1,0-1.284H98.05a.642.642,0,1,1,0,1.284Zm-4.288,0h-1.43a.642.642,0,1,1,0-1.284h1.43a.642.642,0,1,1,0,1.284Zm-4.29,0H88.043a.642.642,0,1,1,0-1.284h1.429a.642.642,0,0,1,0,1.284Z" transform="translate(-87.401 -177.602)" fill="#06df99"/>
      </g>
      <g id="Group_2061" data-name="Group 2061">
        <path id="Path_2654" data-name="Path 2654" d="M83.23,178.886h-.642a.642.642,0,1,1,0-1.284h.642a.642.642,0,1,1,0,1.284Z" transform="translate(-81.946 -177.602)" fill="#06df99"/>
      </g>
    </g>
    <g id="Group_2066" data-name="Group 2066" transform="translate(146.477 107.242)">
      <g id="Group_2063" data-name="Group 2063" transform="translate(16.368)">
        <path id="Path_2655" data-name="Path 2655" d="M231,115.3h-.642a.642.642,0,1,1,0-1.284H231a.642.642,0,0,1,0,1.284Z" transform="translate(-229.716 -114.015)" fill="#06df99"/>
      </g>
      <g id="Group_2064" data-name="Group 2064" transform="translate(3.501)">
        <path id="Path_2656" data-name="Path 2656" d="M220.319,115.3H218.89a.642.642,0,0,1,0-1.284h1.429a.642.642,0,0,1,0,1.284Zm-4.289,0H214.6a.642.642,0,1,1,0-1.284h1.429a.642.642,0,0,1,0,1.284Zm-4.289,0h-1.429a.642.642,0,0,1,0-1.284h1.429a.642.642,0,1,1,0,1.284Z" transform="translate(-209.67 -114.015)" fill="#06df99"/>
      </g>
      <g id="Group_2065" data-name="Group 2065">
        <path id="Path_2657" data-name="Path 2657" d="M205.5,115.3h-.642a.642.642,0,1,1,0-1.284h.642a.642.642,0,1,1,0,1.284Z" transform="translate(-204.216 -114.015)" fill="#06df99"/>
      </g>
    </g>
    <g id="Group_2070" data-name="Group 2070" transform="translate(98.236 109.498)">
      <g id="Group_2067" data-name="Group 2067" transform="translate(16.368)">
        <path id="Path_2658" data-name="Path 2658" d="M155.735,118.814h-.642a.642.642,0,0,1,0-1.284h.642a.642.642,0,1,1,0,1.284Z" transform="translate(-154.451 -117.53)" fill="#06df99"/>
      </g>
      <g id="Group_2068" data-name="Group 2068" transform="translate(3.501)">
        <path id="Path_2659" data-name="Path 2659" d="M145.055,118.814h-1.429a.642.642,0,1,1,0-1.284h1.429a.642.642,0,0,1,0,1.284Zm-4.288,0h-1.43a.642.642,0,0,1,0-1.284h1.43a.642.642,0,0,1,0,1.284Zm-4.29,0h-1.429a.642.642,0,1,1,0-1.284h1.429a.642.642,0,1,1,0,1.284Z" transform="translate(-134.406 -117.53)" fill="#06df99"/>
      </g>
      <g id="Group_2069" data-name="Group 2069">
        <path id="Path_2660" data-name="Path 2660" d="M130.235,118.814h-.642a.642.642,0,1,1,0-1.284h.642a.642.642,0,1,1,0,1.284Z" transform="translate(-128.951 -117.53)" fill="#06df99"/>
      </g>
    </g>
    <g id="Group_2074" data-name="Group 2074" transform="translate(117.798 100.609)">
      <g id="Group_2071" data-name="Group 2071" transform="translate(16.368)">
        <path id="Path_2661" data-name="Path 2661" d="M186.255,104.966h-.642a.642.642,0,0,1,0-1.284h.642a.642.642,0,1,1,0,1.284Z" transform="translate(-184.971 -103.682)" fill="#06df99"/>
      </g>
      <g id="Group_2072" data-name="Group 2072" transform="translate(3.501)">
        <path id="Path_2662" data-name="Path 2662" d="M175.575,104.966h-1.429a.642.642,0,1,1,0-1.284h1.429a.642.642,0,1,1,0,1.284Zm-4.289,0h-1.429a.642.642,0,1,1,0-1.284h1.429a.642.642,0,0,1,0,1.284Zm-4.289,0h-1.429a.642.642,0,0,1,0-1.284H167a.642.642,0,0,1,0,1.284Z" transform="translate(-164.926 -103.682)" fill="#06df99"/>
      </g>
      <g id="Group_2073" data-name="Group 2073">
        <path id="Path_2663" data-name="Path 2663" d="M160.755,104.966h-.642a.642.642,0,0,1,0-1.284h.642a.642.642,0,0,1,0,1.284Z" transform="translate(-159.471 -103.682)" fill="#06df99"/>
      </g>
    </g>
    <g id="Group_2077" data-name="Group 2077" transform="translate(227.702 196.947)">
      <g id="Group_2075" data-name="Group 2075">
        <path id="Path_2664" data-name="Path 2664" d="M334.137,257.478a.64.64,0,0,1-.454-.188l-2.556-2.557a.642.642,0,1,1,.908-.908l2.556,2.557a.642.642,0,0,1-.454,1.1Z" transform="translate(-330.939 -253.637)" fill="#06df99"/>
      </g>
      <g id="Group_2076" data-name="Group 2076">
        <path id="Path_2665" data-name="Path 2665" d="M331.581,257.478a.642.642,0,0,1-.454-1.1l2.556-2.557a.642.642,0,0,1,.908.908l-2.556,2.557A.642.642,0,0,1,331.581,257.478Z" transform="translate(-330.939 -253.637)" fill="#06df99"/>
      </g>
    </g>
    <g id="Group_2080" data-name="Group 2080" transform="translate(54.326 196.999)">
      <g id="Group_2078" data-name="Group 2078">
        <path id="Path_2666" data-name="Path 2666" d="M63.616,257.557a.642.642,0,0,1-.454-.188l-2.556-2.557a.642.642,0,0,1,.908-.908l2.557,2.557a.642.642,0,0,1-.454,1.1Z" transform="translate(-60.418 -253.717)" fill="#06df99"/>
      </g>
      <g id="Group_2079" data-name="Group 2079">
        <path id="Path_2667" data-name="Path 2667" d="M61.06,257.557a.642.642,0,0,1-.454-1.1l2.556-2.557a.642.642,0,1,1,.908.908l-2.557,2.557A.64.64,0,0,1,61.06,257.557Z" transform="translate(-60.418 -253.717)" fill="#06df99"/>
      </g>
    </g>
    <g id="Group_2083" data-name="Group 2083" transform="translate(195.117 160.209)">
      <g id="Group_2081" data-name="Group 2081">
        <path id="Path_2668" data-name="Path 2668" d="M283.278,200.3a.64.64,0,0,1-.454-.188l-2.557-2.556a.642.642,0,1,1,.908-.908l2.557,2.557a.642.642,0,0,1-.454,1.1Z" transform="translate(-280.08 -196.456)" fill="#06df99"/>
      </g>
      <g id="Group_2082" data-name="Group 2082">
        <path id="Path_2669" data-name="Path 2669" d="M280.721,200.3a.642.642,0,0,1-.454-1.1l2.557-2.557a.642.642,0,1,1,.908.908l-2.557,2.556A.64.64,0,0,1,280.721,200.3Z" transform="translate(-280.08 -196.456)" fill="#06df99"/>
      </g>
    </g>
    <g id="Group_2086" data-name="Group 2086" transform="translate(196.393 133.881)">
      <g id="Group_2084" data-name="Group 2084">
        <path id="Path_2670" data-name="Path 2670" d="M285.269,159.31a.64.64,0,0,1-.454-.188l-2.557-2.557a.642.642,0,0,1,.908-.908l2.557,2.557a.642.642,0,0,1-.454,1.1Z" transform="translate(-282.071 -155.47)" fill="#06df99"/>
      </g>
      <g id="Group_2085" data-name="Group 2085">
        <path id="Path_2671" data-name="Path 2671" d="M282.712,159.31a.642.642,0,0,1-.454-1.1l2.557-2.557a.642.642,0,0,1,.908.908l-2.557,2.557A.64.64,0,0,1,282.712,159.31Z" transform="translate(-282.071 -155.47)" fill="#06df99"/>
      </g>
    </g>
    <g id="Group_2089" data-name="Group 2089" transform="translate(174.13 104.685)">
      <g id="Group_2087" data-name="Group 2087">
        <path id="Path_2672" data-name="Path 2672" d="M250.537,113.872a.642.642,0,0,1-.454-.188l-2.556-2.557a.642.642,0,0,1,.908-.908l2.556,2.557a.642.642,0,0,1-.454,1.1Z" transform="translate(-247.339 -110.032)" fill="#06df99"/>
      </g>
      <g id="Group_2088" data-name="Group 2088">
        <path id="Path_2673" data-name="Path 2673" d="M247.981,113.872a.642.642,0,0,1-.454-1.1l2.556-2.557a.642.642,0,0,1,.908.908l-2.556,2.557A.64.64,0,0,1,247.981,113.872Z" transform="translate(-247.339 -110.032)" fill="#06df99"/>
      </g>
    </g>
    <g id="Group_2092" data-name="Group 2092" transform="translate(89.984 143.904)">
      <g id="Group_2090" data-name="Group 2090" transform="translate(0 0)">
        <path id="Path_2674" data-name="Path 2674" d="M119.266,174.913a.64.64,0,0,1-.454-.188l-2.557-2.557a.642.642,0,1,1,.908-.908l2.556,2.557a.642.642,0,0,1-.454,1.1Z" transform="translate(-116.068 -171.073)" fill="#06df99"/>
      </g>
      <g id="Group_2091" data-name="Group 2091" transform="translate(0 0)">
        <path id="Path_2675" data-name="Path 2675" d="M116.709,174.913a.642.642,0,0,1-.454-1.1l2.557-2.557a.642.642,0,1,1,.908.908l-2.556,2.557A.643.643,0,0,1,116.709,174.913Z" transform="translate(-116.068 -171.073)" fill="#06df99"/>
      </g>
    </g>
    <g id="Group_2095" data-name="Group 2095" transform="translate(125.023 109.498)">
      <g id="Group_2093" data-name="Group 2093">
        <path id="Path_2676" data-name="Path 2676" d="M173.928,121.37a.64.64,0,0,1-.454-.188l-2.556-2.557a.642.642,0,0,1,.908-.908l2.556,2.557a.642.642,0,0,1-.454,1.1Z" transform="translate(-170.73 -117.53)" fill="#06df99"/>
      </g>
      <g id="Group_2094" data-name="Group 2094">
        <path id="Path_2677" data-name="Path 2677" d="M171.372,121.37a.642.642,0,0,1-.454-1.1l2.556-2.557a.642.642,0,1,1,.908.908l-2.556,2.557A.642.642,0,0,1,171.372,121.37Z" transform="translate(-170.73 -117.53)" fill="#06df99"/>
      </g>
    </g>
    <g id="Group_2098" data-name="Group 2098" transform="translate(88.713 116.183)">
      <g id="Group_2096" data-name="Group 2096">
        <path id="Path_2678" data-name="Path 2678" d="M117.283,131.76a.64.64,0,0,1-.454-.188l-2.556-2.556a.642.642,0,1,1,.908-.908l2.557,2.556a.642.642,0,0,1-.454,1.1Z" transform="translate(-114.085 -127.92)" fill="#06df99"/>
      </g>
      <g id="Group_2097" data-name="Group 2097">
        <path id="Path_2679" data-name="Path 2679" d="M114.727,131.76a.642.642,0,0,1-.454-1.1l2.556-2.556a.642.642,0,1,1,.908.908l-2.557,2.556A.637.637,0,0,1,114.727,131.76Z" transform="translate(-114.085 -127.92)" fill="#06df99"/>
      </g>
    </g>
    <g id="Group_2137" data-name="Group 2137" transform="translate(69.287 152.292)">
      <g id="Group_2115" data-name="Group 2115">
        <g id="Group_2099" data-name="Group 2099" transform="translate(0.642 0.642)">
          <path id="Path_2680" data-name="Path 2680" d="M102.659,185.065h-.281c-9.765.1-17.653,8.4-17.653,18.643a18.384,18.384,0,0,0,2.518,9.52c4.158,6.895,6.484,16.307,6.484,16.307h17.582s2.326-9.412,6.484-16.307a18.39,18.39,0,0,0,2.518-9.52C120.311,193.467,112.424,185.163,102.659,185.065Z" transform="translate(-84.725 -185.065)" fill="#06df99"/>
        </g>
        <g id="Group_2100" data-name="Group 2100">
          <path id="Path_2681" data-name="Path 2681" d="M110.951,229.819H92.866l-.121-.488c-.023-.093-2.352-9.4-6.411-16.129a19.043,19.043,0,0,1-2.61-9.852c0-10.533,8.2-19.184,18.288-19.285h.288c10.091.1,18.295,8.752,18.295,19.285a19.043,19.043,0,0,1-2.61,9.852c-4.059,6.729-6.388,16.036-6.412,16.129l-.121.488Zm-17.085-1.284h16.587c.54-2.04,2.763-9.912,6.432-16a17.761,17.761,0,0,0,2.426-9.189c0-9.833-7.634-17.907-17.017-18h-.275c-9.377.094-17.011,8.168-17.011,18a17.755,17.755,0,0,0,2.426,9.189C91.1,218.623,93.327,226.494,93.867,228.535Z" transform="translate(-83.725 -184.065)" fill="#06df99"/>
        </g>
        <g id="Group_2104" data-name="Group 2104" transform="translate(9.171 43.775)">
          <g id="Group_2103" data-name="Group 2103">
            <g id="Group_2102" data-name="Group 2102">
              <g id="Group_2101" data-name="Group 2101">
                <path id="Path_2682" data-name="Path 2682" d="M98.014,252.265V258.6l1.954,3.4h14.553l1.954-3.4v-6.339Z" transform="translate(-98.014 -252.265)" fill="#06df99"/>
              </g>
            </g>
          </g>
        </g>
        <g id="Group_2108" data-name="Group 2108" transform="translate(8.53 43.134)">
          <g id="Group_2107" data-name="Group 2107">
            <g id="Group_2106" data-name="Group 2106">
              <g id="Group_2105" data-name="Group 2105">
                <path id="Path_2683" data-name="Path 2683" d="M114.535,262.291h-15.3l-2.225-3.874v-7.152h19.745v7.152Zm-14.553-1.284h13.809l1.684-2.933v-5.526H98.3v5.526Z" transform="translate(-97.014 -251.265)" fill="#06df99"/>
              </g>
            </g>
          </g>
        </g>
        <g id="Group_2109" data-name="Group 2109" transform="translate(8.005 45.186)">
          <rect id="Rectangle_772" data-name="Rectangle 772" width="20.794" height="1.284" fill="#06df99"/>
        </g>
        <g id="Group_2110" data-name="Group 2110" transform="translate(8.005 47.451)">
          <rect id="Rectangle_773" data-name="Rectangle 773" width="20.794" height="1.284" fill="#06df99"/>
        </g>
        <g id="Group_2111" data-name="Group 2111" transform="translate(8.005 49.717)">
          <rect id="Rectangle_774" data-name="Rectangle 774" width="20.794" height="1.284" fill="#06df99"/>
        </g>
        <g id="Group_2114" data-name="Group 2114" transform="translate(15.482 37.295)">
          <g id="Group_2112" data-name="Group 2112" transform="translate(4.622)">
            <rect id="Rectangle_775" data-name="Rectangle 775" width="1.284" height="6.48" fill="#06df99"/>
          </g>
          <g id="Group_2113" data-name="Group 2113">
            <rect id="Rectangle_776" data-name="Rectangle 776" width="1.284" height="6.48" fill="#06df99"/>
          </g>
        </g>
      </g>
      <g id="Group_2116" data-name="Group 2116" transform="translate(6.266 5.506)">
        <path id="Path_2684" data-name="Path 2684" d="M105.656,193.333c-1.532-1.5-6.166-.549-6.166,2.766-3.113,0-5.86,4.139-3.7,7.539-2.947,1.662-3.272,7.052.255,8.9,0,4.259,4.844,7.071,9.613,4.566,4.77,2.505,9.614-.307,9.614-4.566,3.528-1.852,3.2-7.242.254-8.9,2.159-3.4-.588-7.539-3.7-7.539C111.823,192.784,107.189,191.836,105.656,193.333Z" transform="translate(-93.487 -192.644)" fill="#06df99" fill-rule="evenodd"/>
      </g>
      <g id="Group_2117" data-name="Group 2117" transform="translate(5.624 4.865)">
        <path id="Path_2685" data-name="Path 2685" d="M108.95,218.335h0a8.351,8.351,0,0,1-3.652-.867,8.346,8.346,0,0,1-3.652.867,6.348,6.348,0,0,1-6.591-5.772,5.6,5.6,0,0,1-2.567-4.776,5.855,5.855,0,0,1,2.093-4.71,5.523,5.523,0,0,1,.156-5.141,5.374,5.374,0,0,1,3.8-2.792c.341-2.2,2.551-3.5,4.693-3.5a3.928,3.928,0,0,1,2.069.523,3.933,3.933,0,0,1,2.071-.523c2.142,0,4.352,1.3,4.693,3.5a5.374,5.374,0,0,1,3.8,2.792,5.523,5.523,0,0,1,.155,5.141,5.856,5.856,0,0,1,2.094,4.711,5.6,5.6,0,0,1-2.567,4.775,5.9,5.9,0,0,1-1.937,4.032A6.86,6.86,0,0,1,108.95,218.335Zm-3.653-2.311.3.157a7.181,7.181,0,0,0,3.354.87h0a5.578,5.578,0,0,0,3.789-1.405,4.64,4.64,0,0,0,1.53-3.462V211.8l.343-.18a4.293,4.293,0,0,0,2.212-3.848,4.391,4.391,0,0,0-1.974-3.928l-.589-.332.363-.571a4.2,4.2,0,0,0,.11-4.382,3.932,3.932,0,0,0-3.27-2.171h-.642v-.642c0-2.049-2.119-2.813-3.455-2.813a2.352,2.352,0,0,0-1.622.507l-.449.438-.448-.438a2.352,2.352,0,0,0-1.621-.507c-1.336,0-3.455.764-3.455,2.813v.642h-.642a3.932,3.932,0,0,0-3.27,2.171,4.2,4.2,0,0,0,.11,4.383l.362.571-.589.332a4.389,4.389,0,0,0-1.974,3.928,4.3,4.3,0,0,0,2.212,3.848l.343.18v.388a5.054,5.054,0,0,0,5.319,4.867,7.181,7.181,0,0,0,3.354-.87Z" transform="translate(-92.487 -191.644)" fill="#06df99"/>
      </g>
      <g id="Group_2126" data-name="Group 2126" transform="translate(13.183 13.051)">
        <g id="Group_2121" data-name="Group 2121">
          <g id="Group_2120" data-name="Group 2120">
            <g id="Group_2119" data-name="Group 2119">
              <g id="Group_2118" data-name="Group 2118">
                <path id="Path_2686" data-name="Path 2686" d="M114.734,208.94a.378.378,0,0,0-.291-.306l-.561-.1a.487.487,0,0,1-.343-.3l-.227-.556a.483.483,0,0,1,.04-.45l.334-.464a.378.378,0,0,0-.006-.422l-.3-.358a.379.379,0,0,0-.417-.076l-.513.252a.471.471,0,0,1-.445-.044l-.513-.318a.473.473,0,0,1-.236-.379l0-.574a.383.383,0,0,0-.255-.338l-.453-.111a.382.382,0,0,0-.382.181l-.087.165-.1.2-.074.141a.492.492,0,0,1-.388.235l-.6.043a.483.483,0,0,1-.417-.177l-.337-.458a.375.375,0,0,0-.4-.126l-.433.176a.378.378,0,0,0-.2.371l.082.565a.481.481,0,0,1-.178.416l-.459.39a.485.485,0,0,1-.439.1l-.543-.175a.391.391,0,0,0-.406.132s-.042.056-.128.2-.12.2-.12.2a.387.387,0,0,0,.06.42l.4.411a.5.5,0,0,1,.1.44l-.148.587a.489.489,0,0,1-.295.34l-.541.179a.377.377,0,0,0-.243.343l.033.471a.378.378,0,0,0,.291.306l.561.1a.489.489,0,0,1,.343.3l.226.556a.488.488,0,0,1-.037.451l-.336.465a.37.37,0,0,0,.008.421l.3.358a.379.379,0,0,0,.417.076l.513-.252a.468.468,0,0,1,.445.044l.515.322a.462.462,0,0,1,.236.377l0,.573a.38.38,0,0,0,.254.338l.453.111a.38.38,0,0,0,.381-.181l.268-.505a.489.489,0,0,1,.386-.235l.6-.044a.487.487,0,0,1,.417.178l.336.458a.375.375,0,0,0,.4.127l.435-.178a.375.375,0,0,0,.2-.37l-.081-.564a.482.482,0,0,1,.177-.415l.46-.39a.486.486,0,0,1,.44-.1l.544.173a.387.387,0,0,0,.4-.131s.042-.056.13-.2a2.282,2.282,0,0,0,.118-.2.392.392,0,0,0-.06-.422l-.4-.408a.486.486,0,0,1-.1-.44l.144-.585a.489.489,0,0,1,.3-.342l.543-.179a.376.376,0,0,0,.241-.347Zm-2.7,2.185a2.971,2.971,0,1,1-2.882-4.518,2.1,2.1,0,0,1,.3-.017,1.764,1.764,0,0,1,.273.007,2.221,2.221,0,0,1,.3.033,2.971,2.971,0,0,1,2.012,4.5Z" transform="translate(-104.263 -204.398)" fill="#06df99"/>
              </g>
            </g>
          </g>
        </g>
        <g id="Group_2125" data-name="Group 2125" transform="translate(3.133 3.041)">
          <g id="Group_2124" data-name="Group 2124">
            <g id="Group_2123" data-name="Group 2123">
              <g id="Group_2122" data-name="Group 2122">
                <path id="Path_2687" data-name="Path 2687" d="M112.381,209.458a2.115,2.115,0,0,0-2.917.678,2.119,2.119,0,1,0,2.917-.678Zm-.469,2.2a.762.762,0,1,1-1.3-.8.717.717,0,0,1,.228-.234.763.763,0,0,1,.823-.009.186.186,0,0,1,.048.035A.758.758,0,0,1,111.912,211.654Z" transform="translate(-109.144 -209.136)" fill="#06df99"/>
              </g>
            </g>
          </g>
        </g>
      </g>
      <g id="Group_2130" data-name="Group 2130" transform="translate(7.856 9.051)">
        <g id="Group_2127" data-name="Group 2127" transform="translate(3.771)">
          <path id="Path_2688" data-name="Path 2688" d="M103.589,201.782a1.688,1.688,0,0,1-1.75-1.63v-1.986h1.284v1.986a.409.409,0,0,0,.444.346c.263,0,.466-.159.466-.346V199.3h1.284v.854A1.683,1.683,0,0,1,103.589,201.782Z" transform="translate(-101.839 -198.166)" fill="#06df99"/>
        </g>
        <g id="Group_2128" data-name="Group 2128" transform="translate(0.001 6.143)">
          <path id="Path_2689" data-name="Path 2689" d="M98.7,211.159a1.769,1.769,0,0,1-1.194-.458l-1.544-1.4.864-.95,1.544,1.4a.523.523,0,0,0,.671,0,.317.317,0,0,0,.123-.237.3.3,0,0,0-.108-.223l-.664-.6.864-.95.664.6a1.568,1.568,0,0,1,0,2.346A1.81,1.81,0,0,1,98.7,211.159Z" transform="translate(-95.965 -207.737)" fill="#06df99"/>
        </g>
        <g id="Group_2129" data-name="Group 2129" transform="translate(0 12.641)">
          <path id="Path_2690" data-name="Path 2690" d="M97.5,222.083l-.864-.949,1.543-1.4a.284.284,0,0,0,0-.447.526.526,0,0,0-.687-.014l-.664.6-.865-.949.664-.6a1.8,1.8,0,0,1,2.4,0,1.568,1.568,0,0,1,.015,2.361Z" transform="translate(-95.964 -217.859)" fill="#06df99"/>
        </g>
      </g>
      <g id="Group_2134" data-name="Group 2134" transform="translate(21.737 9.051)">
        <g id="Group_2131" data-name="Group 2131">
          <path id="Path_2691" data-name="Path 2691" d="M119.34,201.782a1.688,1.688,0,0,1-1.75-1.63V199.3h1.284v.854a.409.409,0,0,0,.444.346c.263,0,.466-.159.466-.346v-1.986h1.284v1.986A1.683,1.683,0,0,1,119.34,201.782Z" transform="translate(-117.59 -198.166)" fill="#06df99"/>
        </g>
        <g id="Group_2132" data-name="Group 2132" transform="translate(2.761 6.143)">
          <path id="Path_2692" data-name="Path 2692" d="M123.635,211.16a1.779,1.779,0,0,1-1.2-.459,1.568,1.568,0,0,1-.015-2.36l.664-.6.864.95-.664.6a.284.284,0,0,0,0,.447.529.529,0,0,0,.687.014l1.543-1.4.864.95-1.543,1.4A1.779,1.779,0,0,1,123.635,211.16Z" transform="translate(-121.892 -207.737)" fill="#06df99"/>
        </g>
        <g id="Group_2133" data-name="Group 2133" transform="translate(3.641 12.642)">
          <path id="Path_2693" data-name="Path 2693" d="M125.333,222.084l-1.543-1.4a1.567,1.567,0,0,1,0-2.347,1.8,1.8,0,0,1,2.415-.014l.664.6-.864.949-.664-.6a.523.523,0,0,0-.671,0,.316.316,0,0,0-.124.237.3.3,0,0,0,.108.223l1.543,1.4Z" transform="translate(-123.262 -217.862)" fill="#06df99"/>
        </g>
      </g>
      <g id="Group_2135" data-name="Group 2135" transform="translate(17.793 6.196)">
        <rect id="Rectangle_777" data-name="Rectangle 777" width="1.284" height="3.808" fill="#06df99"/>
      </g>
      <g id="Group_2136" data-name="Group 2136" transform="translate(17.793 26.156)">
        <rect id="Rectangle_778" data-name="Rectangle 778" width="1.284" height="3.808" fill="#06df99"/>
      </g>
    </g>
    <g id="Group_2159" data-name="Group 2159" transform="translate(89.934 115.48)">
      <g id="Group_2139" data-name="Group 2139" transform="translate(73.621 0.66)">
        <g id="Group_2138" data-name="Group 2138">
          <path id="Path_2694" data-name="Path 2694" d="M230.762,137v.019h13.694v-.535a8.774,8.774,0,0,0-8.559-8.744h-.012C234.721,127.842,230.762,128.772,230.762,137Z" transform="translate(-230.762 -127.744)" fill="#06df99"/>
        </g>
      </g>
      <g id="Group_2144" data-name="Group 2144" transform="translate(7.526 0.642)">
        <g id="Group_2141" data-name="Group 2141">
          <g id="Group_2140" data-name="Group 2140">
            <path id="Path_2695" data-name="Path 2695" d="M127.8,217.243V137.012s-.711-9.3,10.035-9.3c15.331,0,61.326.012,61.326.012-.917.031-5.274.63-5.274,9.267v70.126s.8,10.124-7.833,10.124Z" transform="translate(-127.788 -127.715)" fill="#06df99"/>
          </g>
        </g>
        <g id="Group_2143" data-name="Group 2143" transform="translate(71.371 0.01)">
          <g id="Group_2142" data-name="Group 2142">
            <path id="Path_2696" data-name="Path 2696" d="M239.15,127.732h-.17C239.087,127.728,239.15,127.732,239.15,127.732Z" transform="translate(-238.98 -127.73)" fill="#06df99"/>
          </g>
        </g>
      </g>
      <g id="Group_2149" data-name="Group 2149" transform="translate(6.882)">
        <g id="Group_2146" data-name="Group 2146">
          <g id="Group_2145" data-name="Group 2145">
            <path id="Path_2697" data-name="Path 2697" d="M185.693,217.527H126.8V136.654a9.934,9.934,0,0,1,2.42-6.915c1.859-2.007,4.638-3.024,8.257-3.024,15.331,0,61.326.012,61.326.012l.021,1.283c-.777.026-4.653.564-4.653,8.625v70.126c.015.164.382,5.25-2.522,8.394A7.741,7.741,0,0,1,185.693,217.527Zm-57.613-1.284h57.613a6.508,6.508,0,0,0,5.009-1.96c2.528-2.736,2.187-7.424,2.184-7.472l0-70.177c0-4.889,1.374-7.369,2.814-8.625-10.579,0-45.3-.011-58.225-.011-3.241,0-5.7.876-7.306,2.6a8.8,8.8,0,0,0-2.089,6.005Z" transform="translate(-126.785 -126.715)" fill="#06df99"/>
          </g>
        </g>
        <g id="Group_2148" data-name="Group 2148" transform="translate(71.993 0.01)">
          <g id="Group_2147" data-name="Group 2147">
            <path id="Path_2698" data-name="Path 2698" d="M239.137,128.016h-.17l-.02-1.284.108,0c.078,0,.121,0,.121,0Z" transform="translate(-238.947 -126.73)" fill="#06df99"/>
          </g>
        </g>
      </g>
      <g id="Group_2152" data-name="Group 2152" transform="translate(78.896 0.652)">
        <g id="Group_2151" data-name="Group 2151">
          <g id="Group_2150" data-name="Group 2150">
            <path id="Path_2699" data-name="Path 2699" d="M239.15,127.732h-.17C239.087,127.728,239.15,127.732,239.15,127.732Z" transform="translate(-238.98 -127.73)" fill="#06df99"/>
          </g>
        </g>
      </g>
      <g id="Group_2154" data-name="Group 2154" transform="translate(0.645 80.269)">
        <g id="Group_2153" data-name="Group 2153">
          <path id="Path_2700" data-name="Path 2700" d="M182.213,261.671s-5.684-4.218,0-9.9H117.12s-1.11,9.9,6.838,9.9Z" transform="translate(-117.067 -251.77)" fill="#06df99"/>
        </g>
      </g>
      <g id="Group_2156" data-name="Group 2156" transform="translate(72.98 0.019)">
        <g id="Group_2155" data-name="Group 2155">
          <path id="Path_2701" data-name="Path 2701" d="M244.739,137.307H229.762v-.642c0-8.756,4.37-9.805,5.711-9.919l.065,0a9.443,9.443,0,0,1,9.2,9.385Zm-13.686-1.284h12.4a8.15,8.15,0,0,0-7.931-8C234.545,128.113,231.237,128.955,231.053,136.023Z" transform="translate(-229.762 -126.744)" fill="#06df99"/>
        </g>
      </g>
      <g id="Group_2158" data-name="Group 2158" transform="translate(0 79.627)">
        <g id="Group_2157" data-name="Group 2157">
          <path id="Path_2702" data-name="Path 2702" d="M183.795,261.955H123.6a6.781,6.781,0,0,1-5.3-2.17c-2.74-3.064-2.2-8.227-2.172-8.444l.064-.571H183.4l-1.1,1.1c-1.664,1.664-2.446,3.335-2.326,4.967a6.076,6.076,0,0,0,2.255,3.965Zm-66.433-9.9c-.053,1.352.021,4.789,1.892,6.879a5.554,5.554,0,0,0,4.344,1.739h56.695a6.726,6.726,0,0,1-1.592-3.745,6.965,6.965,0,0,1,1.718-4.873Z" transform="translate(-116.063 -250.77)" fill="#06df99"/>
        </g>
      </g>
    </g>
    <g id="Group_2172" data-name="Group 2172" transform="translate(106.714 136.431)">
      <g id="Group_2162" data-name="Group 2162" transform="translate(0.64 0.641)">
        <g id="Group_2160" data-name="Group 2160">
          <path id="Path_2703" data-name="Path 2703" d="M188.884,180.223a1.654,1.654,0,0,0-1.271-1.333l-2.448-.424a2.13,2.13,0,0,1-1.5-1.295l-.986-2.424a2.1,2.1,0,0,1,.177-1.963l1.455-2.024a1.651,1.651,0,0,0-.025-1.842l-1.316-1.562a1.659,1.659,0,0,0-1.819-.332l-2.238,1.1a2.054,2.054,0,0,1-1.94-.191s-.381-.3-1.1-.74-1.143-.646-1.143-.646a2.065,2.065,0,0,1-1.028-1.656l-.008-2.5a1.677,1.677,0,0,0-1.114-1.476l-1.976-.484a1.66,1.66,0,0,0-1.664.791l-.378.718-.456.869-.325.615a2.154,2.154,0,0,1-1.693,1.027l-.963.062-.433.032-1.213.094a2.116,2.116,0,0,1-1.822-.775l-1.467-2a1.637,1.637,0,0,0-1.761-.552l-1.892.765a1.654,1.654,0,0,0-.886,1.62l.353,2.467a2.093,2.093,0,0,1-.774,1.815l-2,1.7a2.107,2.107,0,0,1-1.912.442l-2.372-.76a1.7,1.7,0,0,0-1.77.577s-.182.246-.558.859-.523.882-.523.882a1.691,1.691,0,0,0,.261,1.834l1.736,1.793a2.155,2.155,0,0,1,.456,1.919l-.641,2.559a2.137,2.137,0,0,1-1.286,1.485l-2.361.782a1.646,1.646,0,0,0-1.06,1.5l.145,2.051a1.654,1.654,0,0,0,1.27,1.332l2.449.424a2.135,2.135,0,0,1,1.5,1.295l.985,2.425a2.124,2.124,0,0,1-.162,1.963l-1.462,2.031a1.615,1.615,0,0,0,.032,1.836l1.3,1.56a1.656,1.656,0,0,0,1.818.333l2.238-1.1a2.039,2.039,0,0,1,1.939.191s.4.3,1.1.741,1.15.66,1.15.66a2.022,2.022,0,0,1,1.027,1.65l.009,2.5a1.657,1.657,0,0,0,1.105,1.475l1.977.484a1.66,1.66,0,0,0,1.664-.791l1.166-2.2a2.147,2.147,0,0,1,1.686-1.028l2.61-.188a2.118,2.118,0,0,1,1.822.773l1.467,2a1.635,1.635,0,0,0,1.761.553l1.9-.779a1.634,1.634,0,0,0,.879-1.614l-.354-2.46a2.1,2.1,0,0,1,.774-1.814l2-1.7a2.115,2.115,0,0,1,1.919-.44l2.372.752a1.689,1.689,0,0,0,1.762-.571s.183-.245.565-.858.515-.89.515-.89a1.707,1.707,0,0,0-.26-1.84l-1.73-1.778a2.124,2.124,0,0,1-.456-1.919l.633-2.553a2.136,2.136,0,0,1,1.287-1.492l2.368-.782a1.638,1.638,0,0,0,1.053-1.514Z" transform="translate(-143.202 -160.405)" fill="#06df99"/>
        </g>
        <g id="Group_2161" data-name="Group 2161" transform="translate(9.952 9.553)">
          <path id="Path_2704" data-name="Path 2704" d="M182.68,195.085a12.961,12.961,0,1,1-12.574-19.712,9.537,9.537,0,0,1,1.3-.076,8.145,8.145,0,0,1,1.2.031,9.951,9.951,0,0,1,1.3.144,12.827,12.827,0,0,1,4.607,1.758A12.966,12.966,0,0,1,182.68,195.085Z" transform="translate(-158.706 -175.289)" fill="#06df99"/>
        </g>
      </g>
      <g id="Group_2165" data-name="Group 2165" transform="translate(14.31 13.91)">
        <g id="Group_2163" data-name="Group 2163">
          <path id="Path_2705" data-name="Path 2705" d="M178.616,182.481a9.16,9.16,0,0,0-6.535-1.25,9.254,9.254,0,1,0,6.535,1.25Z" transform="translate(-164.499 -181.077)" fill="#06df99"/>
        </g>
        <g id="Group_2164" data-name="Group 2164" transform="translate(5.919 5.91)">
          <path id="Path_2706" data-name="Path 2706" d="M179.876,195.36a3.327,3.327,0,1,1-5.654-3.508,3.157,3.157,0,0,1,1-1.023,3.333,3.333,0,0,1,3.59-.039.835.835,0,0,1,.209.153A3.312,3.312,0,0,1,179.876,195.36Z" transform="translate(-173.721 -190.284)" fill="#06df99"/>
        </g>
      </g>
      <g id="Group_2168" data-name="Group 2168" transform="translate(0 0)">
        <g id="Group_2166" data-name="Group 2166">
          <path id="Path_2707" data-name="Path 2707" d="M161.511,205.7a1.917,1.917,0,0,1-.37-.035l-2.005-.49a2.3,2.3,0,0,1-1.6-2.093l-.009-2.5a1.4,1.4,0,0,0-.667-1.074c-.028-.014-.483-.246-1.2-.691s-1.128-.762-1.145-.775a1.476,1.476,0,0,0-1.271-.128l-2.238,1.1a2.352,2.352,0,0,1-2.567-.467l-1.329-1.591a2.249,2.249,0,0,1-.056-2.629l1.457-2.024a1.5,1.5,0,0,0,.107-1.3l-1-2.467a1.521,1.521,0,0,0-1.018-.9l-2.444-.422a2.307,2.307,0,0,1-1.8-1.885l-.148-2.086a2.3,2.3,0,0,1,1.5-2.153l2.361-.782a1.5,1.5,0,0,0,.856-.991l.65-2.6a1.536,1.536,0,0,0-.3-1.318l-1.735-1.792a2.326,2.326,0,0,1-.369-2.577c.006-.011.149-.273.544-.92.386-.63.581-.895.589-.906a2.388,2.388,0,0,1,2.48-.807l2.374.761a1.547,1.547,0,0,0,1.271-.293l2.034-1.729a1.48,1.48,0,0,0,.554-1.238l-.353-2.463a2.3,2.3,0,0,1,1.25-2.293l1.922-.779a2.253,2.253,0,0,1,2.521.769l1.465,2a1.478,1.478,0,0,0,1.218.519l2.655-.193a1.544,1.544,0,0,0,1.169-.691l1.155-2.2a2.325,2.325,0,0,1,2.356-1.123l2.006.491a2.324,2.324,0,0,1,1.6,2.085l.008,2.514a1.429,1.429,0,0,0,.68,1.087s.458.222,1.186.671,1.136.766,1.153.779a1.494,1.494,0,0,0,1.271.117l2.23-1.1a2.358,2.358,0,0,1,2.567.467l1.343,1.591a2.291,2.291,0,0,1,.056,2.629L183.02,172.8a1.481,1.481,0,0,0-.119,1.31l1,2.46a1.518,1.518,0,0,0,1.017.905l2.444.422a2.307,2.307,0,0,1,1.8,1.886l.148,2.071a2.288,2.288,0,0,1-1.483,2.166l-2.377.784a1.5,1.5,0,0,0-.856,1l-.641,2.594a1.514,1.514,0,0,0,.3,1.32l1.727,1.776a2.349,2.349,0,0,1,.367,2.589s-.139.288-.537.927-.587.892-.6.9a2.359,2.359,0,0,1-1.849.895h0a1.983,1.983,0,0,1-.631-.1l-2.363-.749a1.5,1.5,0,0,0-1.284.294l-2.031,1.726a1.481,1.481,0,0,0-.554,1.239l.354,2.455a2.278,2.278,0,0,1-1.252,2.291l-1.918.788a2.24,2.24,0,0,1-2.524-.77l-1.465-1.995a1.485,1.485,0,0,0-1.218-.517l-2.652.192a1.541,1.541,0,0,0-1.164.687l-1.166,2.2A2.331,2.331,0,0,1,161.511,205.7Zm-7.779-9.165a2.627,2.627,0,0,1,1.555.482s.387.289,1.053.712,1.092.628,1.1.63a2.639,2.639,0,0,1,1.379,2.217l.009,2.5a1.017,1.017,0,0,0,.645.861l1.947.477c.011,0,.053,0,.094,0a1.051,1.051,0,0,0,.852-.478l1.164-2.2a2.771,2.771,0,0,1,2.239-1.369l2.578-.186a1.838,1.838,0,0,1,.248-.015,2.788,2.788,0,0,1,2.138,1.05l1.465,2a1.028,1.028,0,0,0,1.028.329l1.871-.77a1,1,0,0,0,.488-.933l-.354-2.455a2.723,2.723,0,0,1,1.037-2.428l1.961-1.669a2.8,2.8,0,0,1,2.538-.56l2.363.749a1.047,1.047,0,0,0,1.053-.341c.012-.016.185-.253.537-.816s.48-.825.481-.827a1.079,1.079,0,0,0-.147-1.12l-1.724-1.772a2.744,2.744,0,0,1-.608-2.564l.621-2.511a2.753,2.753,0,0,1,1.7-1.946l2.375-.784a1,1,0,0,0,.612-.876l-.144-2.019a1.016,1.016,0,0,0-.745-.747l-2.443-.423a2.768,2.768,0,0,1-2-1.722l-.972-2.387a2.7,2.7,0,0,1,.255-2.587l1.449-2.016a1.012,1.012,0,0,0-.011-1.074l-1.3-1.542a1.092,1.092,0,0,0-1.047-.17l-2.236,1.1a2.746,2.746,0,0,1-2.614-.257c-.006-.005-.372-.286-1.044-.7s-1.08-.612-1.083-.614a2.7,2.7,0,0,1-1.39-2.229l-.008-2.505a1.041,1.041,0,0,0-.653-.861l-1.948-.477c-.01,0-.051,0-.094,0a1.04,1.04,0,0,0-.854.478l-1.155,2.2a2.777,2.777,0,0,1-2.254,1.369l-2.566.186a1.92,1.92,0,0,1-.252.015,2.791,2.791,0,0,1-2.139-1.053l-1.465-2a1.029,1.029,0,0,0-1.027-.327l-1.868.755a1.012,1.012,0,0,0-.492.936l.353,2.465a2.726,2.726,0,0,1-1.037,2.428l-1.962,1.668a2.8,2.8,0,0,1-2.522.564l-2.374-.761a1.119,1.119,0,0,0-1.057.345c-.012.017-.184.254-.528.815-.365.6-.5.845-.508.856a1.052,1.052,0,0,0,.157,1.074l1.739,1.8a2.807,2.807,0,0,1,.608,2.555l-.632,2.526a2.748,2.748,0,0,1-1.7,1.937l-2.367.784a1.017,1.017,0,0,0-.619.876l.143,2.019a1.014,1.014,0,0,0,.745.746l2.444.423a2.772,2.772,0,0,1,2,1.722l.972,2.388a2.721,2.721,0,0,1-.234,2.578l-1.463,2.033a.991.991,0,0,0,.015,1.064L149.4,197.7a1.089,1.089,0,0,0,1.044.167l2.236-1.1A2.4,2.4,0,0,1,153.732,196.539Z" transform="translate(-142.204 -159.406)" fill="#06df99"/>
        </g>
        <g id="Group_2167" data-name="Group 2167" transform="translate(9.958 9.553)">
          <path id="Path_2708" data-name="Path 2708" d="M171.31,201.487a13.6,13.6,0,0,1-1.637-27.108,10.115,10.115,0,0,1,1.3-.082h.086a9.2,9.2,0,0,1,1.254.034,10.307,10.307,0,0,1,1.351.151,13.405,13.405,0,0,1,4.832,1.844,13.6,13.6,0,0,1-7.184,25.159Zm.128-25.915c-.118,0-.236,0-.356.009h-.111a8.814,8.814,0,0,0-1.137.071,12.325,12.325,0,1,0,3.609.1,9.109,9.109,0,0,0-1.223-.135C171.937,175.585,171.688,175.572,171.438,175.572Z" transform="translate(-157.718 -174.29)" fill="#06df99"/>
        </g>
      </g>
      <g id="Group_2171" data-name="Group 2171" transform="translate(13.666 13.269)">
        <g id="Group_2169" data-name="Group 2169">
          <path id="Path_2709" data-name="Path 2709" d="M173.388,199.845h0a9.882,9.882,0,1,1,2.282-19.5,9.884,9.884,0,0,1,6.122,14.821A9.841,9.841,0,0,1,173.388,199.845Zm0-18.484a8.415,8.415,0,0,0-1.544.143,8.6,8.6,0,0,0,1.548,17.057h0a8.587,8.587,0,0,0,4.531-15.892,8.54,8.54,0,0,0-4.535-1.308Z" transform="translate(-163.495 -180.079)" fill="#06df99"/>
        </g>
        <g id="Group_2170" data-name="Group 2170" transform="translate(5.925 5.923)">
          <path id="Path_2710" data-name="Path 2710" d="M176.677,197.234a3.9,3.9,0,0,1-2.076-.6,3.987,3.987,0,0,1-1.281-5.473,3.789,3.789,0,0,1,1.2-1.231,4.051,4.051,0,0,1,4.264-.04,1.2,1.2,0,0,1,.284.206,3.966,3.966,0,0,1-2.394,7.136Zm0-6.658a2.638,2.638,0,0,0-1.462.437,2.525,2.525,0,0,0-.8.827,2.7,2.7,0,0,0,.87,3.708,2.624,2.624,0,0,0,1.4.4,2.682,2.682,0,0,0,1.606-4.838l-.168-.126A2.748,2.748,0,0,0,176.678,190.576Z" transform="translate(-172.726 -189.306)" fill="#06df99"/>
        </g>
      </g>
    </g>
    <g id="Group_2208" data-name="Group 2208" transform="translate(178.569 133.583)">
      <g id="Group_2185" data-name="Group 2185" transform="translate(0.035 0)">
        <g id="Group_2176" data-name="Group 2176" transform="translate(0.642 0.642)">
          <g id="Group_2175" data-name="Group 2175">
            <g id="Group_2174" data-name="Group 2174">
              <g id="Group_2173" data-name="Group 2173">
                <path id="Path_2711" data-name="Path 2711" d="M263.671,162.706c-.134-.341-4.2-6.788-4.2-6.788s-3.89,6.254-4.145,6.788Z" transform="translate(-255.327 -155.918)" fill="#06df99" fill-rule="evenodd"/>
              </g>
            </g>
          </g>
        </g>
        <g id="Group_2180" data-name="Group 2180">
          <g id="Group_2179" data-name="Group 2179">
            <g id="Group_2178" data-name="Group 2178">
              <g id="Group_2177" data-name="Group 2177">
                <path id="Path_2712" data-name="Path 2712" d="M263.313,162.99h-8.344a.642.642,0,0,1-.579-.919c.263-.549,3.779-6.207,4.179-6.85a.642.642,0,0,1,.543-.3h0a.641.641,0,0,1,.543.3c1.53,2.427,4.118,6.549,4.253,6.9a.642.642,0,0,1-.6.876Zm-7.227-1.284h6.107c-.717-1.174-2.012-3.245-3.075-4.935C258.071,158.459,256.8,160.526,256.085,161.706Z" transform="translate(-254.327 -154.918)" fill="#06df99"/>
              </g>
            </g>
          </g>
        </g>
        <g id="Group_2184" data-name="Group 2184" transform="translate(2.797 0.642)">
          <g id="Group_2183" data-name="Group 2183">
            <g id="Group_2182" data-name="Group 2182">
              <g id="Group_2181" data-name="Group 2181">
                <path id="Path_2713" data-name="Path 2713" d="M258.685,159.183l4-.013-2.01-3.252Z" transform="translate(-258.685 -155.918)" fill="#06df99" fill-rule="evenodd"/>
              </g>
            </g>
          </g>
        </g>
      </g>
      <g id="Group_2189" data-name="Group 2189" transform="translate(0.652 7.67)">
        <g id="Group_2188" data-name="Group 2188">
          <g id="Group_2187" data-name="Group 2187">
            <g id="Group_2186" data-name="Group 2186">
              <path id="Path_2714" data-name="Path 2714" d="M263.657,166.868l-8.368.026.019,59.469h8.349Z" transform="translate(-255.289 -166.868)" fill="#06df99" fill-rule="evenodd"/>
            </g>
          </g>
        </g>
      </g>
      <g id="Group_2193" data-name="Group 2193" transform="translate(0.01 7.027)">
        <g id="Group_2192" data-name="Group 2192">
          <g id="Group_2191" data-name="Group 2191">
            <g id="Group_2190" data-name="Group 2190">
              <path id="Path_2715" data-name="Path 2715" d="M263.3,226.646h-8.349a.642.642,0,0,1-.642-.641l-.019-59.47a.642.642,0,0,1,.64-.642l8.368-.026a.553.553,0,0,1,.455.187.641.641,0,0,1,.189.454V226A.642.642,0,0,1,263.3,226.646Zm-7.708-1.284h7.066V167.153l-7.084.022Z" transform="translate(-254.289 -165.865)" fill="#06df99"/>
            </g>
          </g>
        </g>
      </g>
      <g id="Group_2197" data-name="Group 2197" transform="translate(3.4 7.67)">
        <g id="Group_2196" data-name="Group 2196">
          <g id="Group_2195" data-name="Group 2195">
            <g id="Group_2194" data-name="Group 2194">
              <path id="Path_2716" data-name="Path 2716" d="M262.443,166.868l-2.873.026.006,59.469h2.867Z" transform="translate(-259.569 -166.868)" fill="#06df99" fill-rule="evenodd"/>
            </g>
          </g>
        </g>
      </g>
      <g id="Group_2201" data-name="Group 2201" transform="translate(2.757 7.028)">
        <g id="Group_2200" data-name="Group 2200">
          <g id="Group_2199" data-name="Group 2199">
            <g id="Group_2198" data-name="Group 2198">
              <path id="Path_2717" data-name="Path 2717" d="M262.085,226.646h-2.867a.642.642,0,0,1-.642-.642l-.006-59.469a.642.642,0,0,1,.637-.642l2.873-.026a.654.654,0,0,1,.458.186.642.642,0,0,1,.19.456V226A.642.642,0,0,1,262.085,226.646Zm-2.225-1.284h1.583V167.157l-1.59.015Z" transform="translate(-258.569 -165.868)" fill="#06df99"/>
            </g>
          </g>
        </g>
      </g>
      <g id="Group_2204" data-name="Group 2204" transform="translate(0.642 67.165)">
        <g id="Group_2203" data-name="Group 2203">
          <g id="Group_2202" data-name="Group 2202">
            <path id="Path_2718" data-name="Path 2718" d="M255.273,259.558v1.836a3.075,3.075,0,0,0,3.066,3.067h2.337a3.076,3.076,0,0,0,3.066-3.067v-1.836Z" transform="translate(-255.273 -259.558)" fill="#06df99" fill-rule="evenodd"/>
          </g>
        </g>
      </g>
      <g id="Group_2207" data-name="Group 2207" transform="translate(0 66.523)">
        <g id="Group_2206" data-name="Group 2206">
          <g id="Group_2205" data-name="Group 2205">
            <path id="Path_2719" data-name="Path 2719" d="M260.318,264.744h-2.337a3.712,3.712,0,0,1-3.708-3.709V259.2a.642.642,0,0,1,.642-.642h8.469a.642.642,0,0,1,.642.642v1.836A3.713,3.713,0,0,1,260.318,264.744Zm-4.761-4.9v1.194a2.427,2.427,0,0,0,2.424,2.425h2.337a2.427,2.427,0,0,0,2.424-2.425v-1.194Z" transform="translate(-254.273 -258.558)" fill="#06df99"/>
          </g>
        </g>
      </g>
    </g>
    <g id="Group_2209" data-name="Group 2209" transform="translate(202.971 156.875)">
      <path id="Path_2720" data-name="Path 2720" d="M312.307,196.881H309.78c-1.273,0-1.8-1.37-2.266-2.578-.286-.741-.677-1.755-1.069-1.755s-.772.922-1.072,1.662c-.467,1.155-1,2.463-2.261,2.463s-1.8-1.3-2.266-2.444c-.3-.734-.676-1.647-1.078-1.647s-.792,1.008-1.082,1.743c-.472,1.2-1.007,2.555-2.275,2.555h-3.36a.642.642,0,1,1,0-1.284h3.36c.395,0,.791-1.007,1.081-1.743.472-1.2,1.008-2.556,2.277-2.556s1.8,1.3,2.265,2.444c.3.734.677,1.648,1.078,1.648s.771-.921,1.071-1.661c.468-1.155,1-2.465,2.262-2.465s1.8,1.369,2.266,2.577c.286.741.677,1.756,1.069,1.756h2.527a.642.642,0,1,1,0,1.284Z" transform="translate(-292.409 -191.264)" fill="#06df99"/>
    </g>
    <g id="Group_2210" data-name="Group 2210" transform="translate(69.084 121.544)">
      <path id="Path_2721" data-name="Path 2721" d="M103.307,141.881H100.78c-1.273,0-1.8-1.37-2.266-2.578-.286-.741-.677-1.756-1.069-1.756s-.772.922-1.072,1.662c-.467,1.155-1,2.464-2.261,2.464s-1.8-1.3-2.266-2.444c-.3-.734-.676-1.647-1.078-1.647s-.792,1.008-1.082,1.743c-.472,1.2-1.007,2.555-2.275,2.555h-3.36a.642.642,0,1,1,0-1.284h3.36c.395,0,.791-1.007,1.081-1.743.472-1.2,1.008-2.556,2.277-2.556s1.8,1.3,2.265,2.444c.3.734.677,1.648,1.078,1.648s.771-.921,1.071-1.661c.468-1.155,1-2.465,2.262-2.465s1.8,1.369,2.266,2.577c.286.741.677,1.756,1.069,1.756h2.527a.642.642,0,1,1,0,1.284Z" transform="translate(-83.409 -136.264)" fill="#06df99"/>
    </g>
  </g>
</svg>
